<?xml version="1.0" standalone="no"?>
<!DOCTYPE svg PUBLIC "-//W3C//DTD SVG 1.1//EN" "http://www.w3.org/Graphics/SVG/1.1/DTD/svg11.dtd" >
<svg xmlns="http://www.w3.org/2000/svg">
<metadata></metadata>
<defs>
<font id="enyo_slab_regularregular" horiz-adv-x="392" >
<font-face units-per-em="1000" ascent="750" descent="-250" />
<missing-glyph horiz-adv-x="166" />
<glyph unicode="&#xfb01;" horiz-adv-x="459" d="M20 -9h-20v40h60q4 76 -6 475h-2h-35l-20 1l2 40l21 -2q10 -1 34 -1q0 6 -1 18t-1 19q-1 13 -1 42q-1 17 1 47q2 2 2 6q2 47 22 70q31 34 101 27q5 0 13 -0.5t13 -0.5h20v-39h-20q-20 0 -29 1q-50 5 -68 -14q-11 -13 -13 -46v-7q-3 -42 -3 -43q0 -8 1 -21.5t1 -20.5 q1 -13 1 -37q25 0 38 2q26 1 72 1h20v-39h-20q-11 0 -34.5 -1t-36.5 -1q-13 -1 -38 -1q10 -395 6 -475q4 0 19 1t25 1h20v-41h-81q-6 0 -26 -0.5t-37 -0.5zM291 -9l-20 -1l-2 39l19 2h24q-1 104 1 217q5 118 -2 261h-48v39h36q15 2 33 0l17 -1l1 -18q6 -136 4 -283 q-4 -80 -3 -215h40v-39h-49q-40 0 -51 -1zM353 649l-20 -2h-26l-19 2l-1 18v20l1 19h46l17 -1l2 -18v-38z" />
<glyph unicode="&#xfb02;" horiz-adv-x="452" d="M267 -10l-19 -2l-3 40l20 2q6 0 19.5 0.5t20.5 0.5q-1 132 2 297q4 269 -3 405h-102q-20 0 -29 1q-50 5 -68 -14q-10 -14 -12 -46q-1 -3 -1 -7q-3 -21 -3 -43l3 -42q0 -8 0.5 -19t0.5 -18q25 0 38 2q13 0 36.5 0.5t34.5 0.5h19v-41h-19q-45 0 -70 -1q-6 0 -19 -0.5 t-20 -0.5q10 -375 7 -475q4 0 19 0.5t25 0.5h20v-40h-81q-6 0 -26 -0.5t-37 -0.5h-20v40h59q5 68 -5 475h-2h-35l-20 1l2 39h21q10 -1 32 -1q0 22 -1 37q0 6 -0.5 20t-0.5 22q0 17 2 47v6q0 2 1 10t1.5 10.5t2 9.5t3 11t3.5 9.5t5.5 10.5t7.5 9q29 34 101 27q4 0 12.5 -0.5 t12.5 -0.5h140l1 -18q8 -143 4 -428q-4 -196 -2 -296h5h51v-39h-51q-72 0 -83 -1z" />
<glyph unicode="&#xfb03;" horiz-adv-x="678" d="M240 -10h-21v40h60q2 93 -6 475q-39 0 -67 4q-19 1 -45 -2q-20 -2 -33 -2h-34q10 -375 7 -475q5 0 19.5 0.5t24.5 0.5h20v-40h-81q-6 0 -26 -0.5t-37 -0.5h-20v40h59q5 67 -5 475q-25 0 -37 1l-19 1l1 40l20 -2q11 -1 34 -1q0 23 -2 37q0 27 -1 42q0 25 3 47v6 q4 49 23 70q30 34 101 27q5 0 13 -0.5t12 -0.5h20v-39h-20q-18 0 -27 1q-51 5 -69 -14q-9 -11 -13 -46v-4l-1 -3q-2 -33 -1 -43q0 -28 1 -42q0 -8 0.5 -19.5t0.5 -18.5q17 0 27 1h7q19 0 29 2q35 2 53 1q24 -4 63 -4q0 23 -2 37q0 6 -0.5 20t-0.5 22q0 25 3 47v6q2 47 22 70 q30 34 102 27q4 0 12.5 -0.5t12.5 -0.5h20v-39h-20q-20 0 -29 1q-50 5 -68 -14q-7 -8 -13 -46v-7q-3 -42 -3 -43q2 -15 2 -42q1 -13 1 -37q27 0 41 2q23 1 69 1h20v-39h-20q-10 0 -33 -1t-35 -1l-41 -2q10 -405 5 -475q5 0 19.5 0.5t25.5 0.5h21v-40h-83q-6 0 -25 -0.5 t-36 -0.5zM510 -10l-20 -2l-2 40l19 2q5 0 13 0.5t11 0.5q-2 103 2 217q4 127 -4 261h-47v39h37q15 2 31 0l17 -1l2 -18q6 -108 4 -283q-4 -112 -3 -216h39v-39h-47q-41 0 -52 -1zM571 649l-19 -2h-26l-19 2l-1 18v20l1 19h46l17 -1l1 -18v-38z" />
<glyph unicode="&#xfb04;" horiz-adv-x="672" d="M239 -10h-20v40h60q2 92 -6 475q-39 0 -67 4q-19 1 -46 -2q-22 -2 -32 -2h-34q10 -375 7 -475q4 0 18 0.5t25 0.5h21v-40h-82q-6 0 -25.5 -0.5t-36.5 -0.5h-21v40h60q5 89 -5 475q-25 0 -37 1l-21 1l3 40l20 -2q10 -1 34 -1q0 23 -2 37q0 6 -0.5 20t-0.5 22q0 25 3 47v6 q4 49 23 70q29 34 101 27q4 0 12.5 -0.5t12.5 -0.5h20v-39h-20q-20 0 -29 1q-50 5 -68 -14q-7 -9 -13 -46v-7q-3 -42 -3 -43l3 -42q0 -8 0.5 -19.5t0.5 -18.5q16 0 25 1h9q19 0 29 2q34 2 53 1q24 -4 63 -4q0 6 -1 18t-1 19q-1 13 -1 42q-1 17 1 47q2 2 2 6q2 47 22 70 q31 34 101 27q5 0 13.5 -0.5t12.5 -0.5h139l1 -18q10 -169 4 -428q-2 -196 -1 -296h5h51v-39h-51q-71 0 -82 -1l-20 -2l-4 40l20 2q5 0 19 0.5t23 0.5q-1 66 1 297q2 303 -3 405h-102q-20 0 -29 1q-50 5 -68 -14q-11 -13 -13 -46v-7q-3 -42 -3 -43q0 -8 1 -21.5t1 -20.5 q1 -13 1 -37q26 0 39 2q25 1 71 1h20v-39h-20q-10 0 -33.5 -1t-35.5 -1l-40 -2q10 -405 5 -475q5 0 19.5 0.5t25.5 0.5h20v-40h-82q-6 0 -25.5 -0.5t-36.5 -0.5z" />
<glyph horiz-adv-x="0" />
<glyph horiz-adv-x="333" />
<glyph unicode=" "  horiz-adv-x="166" />
<glyph unicode="&#x09;" horiz-adv-x="166" />
<glyph unicode="&#xa0;" horiz-adv-x="166" />
<glyph unicode="!" horiz-adv-x="155" d="M90 161v-19h-40v19q0 17 -1 45t-1 40q-2 48 -2 65q0 68 -1 102q0 13 -1 40t-1 41q0 34 -8 98q-9 99 -6 138l1 20l41 -2l-2 -21q-2 -48 7 -131q7 -75 7 -102q0 -29 2 -81q0 -16 1 -50.5t1 -51.5q0 -41 1 -62q2 -52 2 -88zM92 51v-59h-41v59h41z" />
<glyph unicode="&#x22;" horiz-adv-x="193" d="M134 625v-21h-40v21q0 5 -0.5 25.5t-0.5 33.5q0 10 -1.5 31.5t-1.5 28.5v20h41v-20q0 -36 1 -59q2 -24 2 -60zM42 606l-41 -2v20q-1 48 -1 120v20h39v-20q0 -72 2 -119z" />
<glyph unicode="#" horiz-adv-x="651" d="M438 13v-21h-40v21q0 11 -2 41q-4 28 -4 46l4 48q2 34 2 50v31h-4q-7 0 -18.5 1t-17.5 1q-108 4 -159 4v-33q0 -4 3 -109q0 -13 0.5 -40t0.5 -40v-20l-39 -1l-1 20q0 54 -2 80q-1 35 -1 110v33h-160v40h160v114q0 47 1 79q-12 0 -62.5 2t-78.5 2h-20v39h20q52 0 144 -4 q1 12 1 30q0 43 -2 105q-3 39 -3 95v19h39v-19q0 -15 3 -93q4 -63 2 -108q0 -18 -1 -30q43 -3 136 -3q38 0 58 2q0 38 -0.5 115.5t-0.5 116.5v19h39v-19q0 -39 0.5 -116t0.5 -114q14 0 21 2q103 5 121 5h20v-41h-20q-50 0 -118 -5l-24 -3q0 -32 1 -97t1 -98l52 4q10 0 40 2 t47 2h21v-39h-20q-17 0 -47 -2t-38 -2l-55 -4v-33q0 -8 -0.5 -17t-1.5 -19.5t-1 -16.5q-2 -34 -2 -47q0 -12 2 -40q0 -5 1 -14t1.5 -16.5t0.5 -14.5zM341 463h-2q-50 0 -138 2q-2 -30 -2 -76v-114q109 -2 161 -5q14 -1 38 -1q-1 65 -1 195q-20 -1 -56 -1z" />
<glyph unicode="$" horiz-adv-x="322" d="M157 -135l-39 -4l-3 32q-6 47 -6 97q-35 13 -67 58v-45l-3 -20l-39 3l1 19q2 12 2 36v31l1 7q2 50 -1 68l39 5q5 -34 17 -56q17 -37 50 -61q0 72 2 214l2 47q0 13 0.5 38.5t0.5 39.5q-16 20 -31 45l-7 10q-38 53 -50 93l-6 22q-4 17 -6 21q-19 59 6 118q23 58 77 73 q7 3 17 3q0 11 -1 31.5t-1.5 37.5t-0.5 32v19l40 2l1 -20l3 -106q15 -4 47 -26l14 -13q2 7 2 23v20h39v-47q-2 -52 3 -68l-39 -12q-7 23 -25.5 46t-40.5 34q0 -213 -2 -325l10 -12q62 -87 85 -140q20 -48 14 -125q-1 -30 -11 -48t-35 -42q-28 -30 -68 -36q1 -30 7 -88z M189 47q20 21 26.5 32t7.5 34q2 70 -12 106q-24 52 -59 102v-26l-1 -47q0 -33 -0.5 -70t-1.5 -82.5t-1 -70.5q19 4 41 22zM56 668q-18 -45 -4 -90q5 -12 7 -26q1 -7 5 -19q7 -24 45 -82l5 -9q1 141 0 278q-2 0 -4 -1t-3 -1q-35 -10 -51 -50z" />
<glyph unicode="%" horiz-adv-x="663" d="M493 -18h-2q-77 0 -117 46q-41 43 -41 117q0 92 58 126q25 15 53 15q45 0 82 -25q29 -19 43 -46t16 -47t2 -58v-5q0 -44 -24.5 -83t-69.5 -40zM143 455q-47 0 -81 25q-29 20 -43.5 46.5t-16.5 46t-2 57.5v6q0 43 24.5 82t69.5 41h2q75 0 118 -46q38 -43 40 -118 q0 -90 -57 -126q-25 -14 -54 -14zM101 -50l-8 -18l-35 17l8 18q75 160 179 355q19 36 57.5 111t59.5 116q66 128 110 265l5 20l38 -12l-6 -20q-39 -124 -112 -271q-92 -179 -117 -227q-82 -155 -179 -354zM444 246q-16 0 -32 -9q-41 -24 -38 -92q0 -123 117 -124 q28 2 42.5 30.5t14.5 53.5v5q-1 35 -2.5 50.5t-11.5 34.5t-31 33q-28 18 -59 18zM96 720q-28 -2 -42.5 -30.5t-14.5 -53.5v-6q1 -36 3 -50.5t11.5 -33t30.5 -32.5q25 -19 59 -19q17 0 33 8q39 24 38 92q0 51 -26 87.5t-92 37.5z" />
<glyph unicode="&#x26;" horiz-adv-x="409" d="M231 241h-20v39h20q11 0 26.5 2t17.5 2q35 7 55 3l20 -3l-5 -39l-20 3q-13 2 -22 0q0 -6 0.5 -19.5t0.5 -20.5q1 -34 1.5 -65t-11.5 -63.5t-37 -54.5l-5 -5q-22 -20 -37 -27q-13 -5 -49 -7q-15 0 -21 -2h-9q-26 0 -53 13q-28 15 -52 42q-16 20 -23.5 48t-8 44.5t0.5 49.5 v37q-4 94 41 142q18 16 28 21q-23 16 -36 37q-32 48 -33 127q0 81 13 117q18 53 60 82q35 24 90 11l3 -1q40 -8 59 -31v32h40v-56q1 -7 1 -21q0 -4 -0.5 -10t-0.5 -9t-1 -8t-1 -7l-38 -7q-10 34 -30 60q-8 10 -36 19l-6 1q-36 8 -57 -5q-31 -24 -45 -63q-13 -38 -10 -102v-2 q0 -67 25 -105q27 -40 89 -40l56 2l3 -39l-59 -3q-57 0 -86 -27q-31 -36 -30 -114v-38q-2 -84 24 -117q16 -19 37 -30q25 -13 40 -10l24 2q21 0 37 4q3 2 12 9t11 9l7 7q18 16 26.5 42t8 52.5t-0.5 57.5q-2 12 -2 35q-10 -1 -32 -1z" />
<glyph unicode="'" horiz-adv-x="102" d="M43 625v-21h-39v21q0 5 -0.5 25.5t-0.5 33.5q-3 36 -3 60v20h41v-20q0 -36 1 -59q1 -24 1 -60z" />
<glyph unicode="(" horiz-adv-x="212" d="M149 -34l-21 -34l-17 10q-20 13 -35 33.5t-24.5 48.5t-14.5 47.5t-11 51.5l-4 19q-4 28 -5 41l-4 32q-14 89 -6 267l2 42v16q5 94 19 136q3 10 7 20q1 1 2.5 6t3.5 8q9 24 14.5 37.5t19 31t31.5 27.5l17 9l20 -34l-18 -10q-26 -14 -48 -75l-5 -16q-20 -53 -22 -141 q-2 -6 -2 -16q0 -7 -0.5 -21.5t-0.5 -21.5q-10 -170 5 -259l4 -32q5 -34 6 -40l4 -18q6 -38 12 -62t20 -52t34 -41z" />
<glyph unicode=")" horiz-adv-x="212" d="M28 -59l-19 -8l-17 36l18 9q27 12 52 44q21 27 23 93q1 6 2 19.5t2 20.5q9 76 9 220v9q0 22 -1 34q0 51 1 76q2 43 -17 136l-6 33q-18 86 -58 108l-17 9l18 35l17 -9q59 -29 78 -135l8 -33q19 -98 17 -145q-2 0 -1 -37l1 -38v-43q0 -147 -10 -226q-2 -22 -2 -36 q-6 -84 -33 -116q-30 -38 -65 -56z" />
<glyph unicode="*" horiz-adv-x="257" d="M37 613l-17 -9l-20 34l17 11l7 4q21 11 34 14l2 1h2l-6 6q-11 5 -23 13q-2 0 -8 2l-17 10l18 35l19 -9q1 -3 6 -3q19 -11 26 -16l6 -2v56h39v-61q2 0 8 2q22 7 35 16l17 10l21 -32l-16 -11q-10 -8 -38 -20l53 -31l-21 -34l-26 17q-4 2 -11.5 6t-13.5 7.5t-11 7.5l3 -14 q1 -10 1 -32v-20l-40 2l1 19q0 4 -0.5 13t-0.5 14l-3 14l-13 -5q-12 -3 -24 -11z" />
<glyph unicode="+" horiz-adv-x="332" d="M156 265v-20h-41v64q-1 15 -1 45v6q-27 2 -83 2h-31v39h31q54 0 83 -1v25q1 22 1 69v20h40v-117q9 0 26 0.5t25 0.5q14 2 43 2h21v-40h-21q-7 0 -21 -0.5t-21 -0.5t-20 -0.5t-19 -0.5h-15v-4q0 -8 1 -22t1 -21t0.5 -23t0.5 -23z" />
<glyph unicode="," horiz-adv-x="126" d="M58 -60l-6 -20l-38 9l4 20q6 26 6 42h-24v18v20v18l18 1h28l17 -1l1 -17v-23q0 -36 -6 -67z" />
<glyph unicode="-" horiz-adv-x="291" d="M136 359h-59q-18 1 -57 1h-20v40h79q9 0 28 -1t29 -1q6 0 18 1t19 1q6 0 18 0.5t19 0.5h19v-41h-55q-13 -1 -38 -1z" />
<glyph unicode="." horiz-adv-x="126" d="M64 30v-39h-64v57h63z" />
<glyph unicode="/" horiz-adv-x="370" d="M42 -54l-5 -19l-38 11l5 20q23 71 119 355q42 116 78 227q48 144 73 266l4 20l39 -9l-4 -19q-25 -121 -74 -271l-78 -227q-42 -119 -119 -354z" />
<glyph unicode="0" horiz-adv-x="368" d="M157 -16q-26 0 -53 8q-25 8 -40 24.5t-20 29.5t-10 37l-4 17q-30 109 -30 263v8q0 101 7 162q6 88 36 138q3 5 7 17q4 14 13 29q19 22 46 33q29 9 48 9q33 0 58 -15q77 -42 81 -170q7 -129 7 -299q0 -5 0.5 -16.5t0.5 -18.5q3 -31 0.5 -67.5t-8.5 -69t-25.5 -61.5 t-51.5 -45q-26 -13 -62 -13zM157 718q-21 0 -35 -6q-17 -6 -26 -20q-4 -4 -8 -17q-7 -19 -11 -24q-23 -39 -31 -122q-5 -49 -5 -158v-8q0 -156 27 -253l4 -18q8 -30 15.5 -43t27.5 -19q19 -6 42 -6q22 0 45 9q19 9 32.5 26.5t19 38t9 45t3 48.5t-0.5 48q-2 13 -2 36 q0 161 -6 296q-8 109 -62 138q-13 9 -38 9z" />
<glyph unicode="1" horiz-adv-x="315" d="M152 -10q-20 0 -64 2q-6 0 -19 0.5t-21 0.5l-19 2l1 39h20l40 -3q30 -2 41 -2v92q0 25 4 44q0 1 1.5 16t1.5 22v39q-2 15 -2 46q5 116 2 226v55q-3 51 -3 103l-12 -17l-13 -21l-20 -34q-27 -52 -47 -73l-14 -16l-29 28l14 14q15 16 42 67q12 24 20 35l14 23q37 54 41 77 h41q4 -127 5 -185q0 -38 1 -56q1 -55 -1 -226v-46v-39q0 -22 -3 -43q-2 -26 -2 -39v-91q15 0 25 1q19 2 61 2l20 -2l-3 -39h-19q-19 1 -58 -1q-6 0 -18 -0.5t-17 -0.5h-11z" />
<glyph unicode="2" horiz-adv-x="328" d="M42 -12q-4 0 -12 1t-12 1l-18 1v18q0 66 7 100l7 29l4 17q14 50 21 68l20 42q11 23 14 30t10 20.5t11 20.5q19 35 28 64q6 16 38 89q10 18 14 29q16 30 28 67q9 26 6 56v10q0 24 -7 34l-2 3q-6 10 -13 16q-19 12 -41 14q-30 4 -56 0q-20 -3 -31 -22q-10 -13 -13 -25 q-4 -13 -4 -38v-21l-40 1v20q0 26 6 47q3 17 18 40q22 32 58 38q27 3 65 0q32 -3 60 -21q13 -9 24 -28l3 -1q12 -18 14 -57v-7q2 -42 -9 -71q-6 -19 -30 -72l-13 -30q-23 -42 -37 -83q-5 -15 -30 -71q-5 -8 -11.5 -21.5t-8.5 -16.5q-5 -14 -16 -31q-16 -34 -18 -40 q-5 -14 -20 -63l-4 -17l-6 -27q-3 -17 -7 -72q28 0 40 1q33 2 46 1h30h76v36l-2 20l41 1v-20q1 -26 -1 -47v-12l-3 -17h-17q-48 -1 -94 0h-30q-9 0 -23 -0.5t-21 -0.5q-36 -3 -39 -3z" />
<glyph unicode="3" horiz-adv-x="337" d="M123 448q-16 8 -22 15v27l39 47q10 12 21 36l12 22q4 7 20 41q31 62 42 77q-21 0 -44 -3q-18 -2 -27 -2q-49 -3 -117 -2v-47h-40v89l21 -1q81 -3 135 0l24 3q71 4 95 -3v-39q-18 -16 -53 -89q-3 -5 -7 -15t-7.5 -17t-7.5 -12l-10 -19q-13 -27 -27 -44l-25 -31 q100 -51 120 -143l8 -37q9 -40 13 -64t1.5 -60t-16.5 -71q-1 -2 -2 -5t-2 -7t-2 -6q-9 -24 -15 -37t-20 -31.5t-35 -27t-50 -8.5h-20q-19 2 -29 4.5t-29 9.5t-32.5 22.5t-22.5 38.5l-8 18l38 15l6 -19q8 -20 23 -31t25.5 -13t31.5 -4h2q24 -3 40 0.5t27 17t16 23.5t15 36 l7 19q12 29 13.5 60t-2 52t-13.5 59l-8 38q-5 25 -16.5 45t-30 35.5t-27.5 21t-28 16.5z" />
<glyph unicode="4" horiz-adv-x="334" d="M14 305l-14 2v30q9 16 50 101l27 57q12 22 48 97l13 28l6 16q20 49 54 112l3 6h34l1 -14q3 -85 3 -242q-4 -107 -7 -156v-1h54v-40h-57q0 -7 -0.5 -23t-0.5 -24q-3 -46 3 -133q5 -90 5 -109v-20h-39v20q0 36 -6 106q-5 106 -4 138l3 44h-9q-92 -2 -167 5zM48 342 q64 -5 132 -3h11q0 1 1 3t1 3q5 123 5 154v159q-1 -2 -17 -38l-8 -17l-12 -26q-4 -8 -21 -44.5t-27 -55.5l-26 -56z" />
<glyph unicode="5" horiz-adv-x="305" d="M128 -14q-11 0 -41 7l-15 4q-41 11 -59 65l-6 18l36 13l7 -18q13 -34 33 -40l14 -4q35 -8 50 -2q34 14 57 55q25 40 21 136v38q-2 38 -18 71q-6 17 -26 41q-1 3 -7 9q-11 16 -21 25q-39 30 -78 30q-16 0 -23 1h-27l-22 1l2 21l4 48q0 2 0.5 5t0.5 4q3 25 7 42l4 27 q1 5 1 20q0 17 2 25l4 23l3 21l8 61l2 15l15 2q28 4 76 4h2q2 0 11 -1t16 -1q7 -1 15 -1h6q23 -1 51 0h20l1 -39l-19 -2q-5 -1 -29 0h-25l-8 2h-14q-21 2 -25 1h-2q-35 0 -55 -1q-6 -44 -6 -46l-4 -21l-4 -22q0 -14 -1 -21q0 -16 -2 -25q-1 -7 -3 -16t-2 -12q0 -5 -2 -17.5 t-3 -21.5q0 -7 -2 -9q0 -3 -0.5 -6.5t-1 -9.5t-0.5 -11h8q4 0 10.5 -0.5t10.5 -0.5q53 0 103 -39q10 -8 28 -32q5 -5 6 -8q22 -26 32 -48q18 -41 21 -86v-40q2 -109 -26 -157q-31 -52 -76 -71q-17 -6 -35 -6z" />
<glyph unicode="6" horiz-adv-x="329" d="M136 -16q-23 0 -47 9q-16 8 -35 33q0 1 -1.5 2.5t-1.5 2.5q-22 28 -31 56q-6 15 -10 48l-2 16q-3 13 -5 39q-3 30 -3 63q1 40 5 100v18q1 7 2 21.5t2 21.5v3q6 41 12 63l3 13q28 99 44 139q13 30 23 50t28.5 42.5t40.5 33.5l17 9l18 -36l-17 -9q-37 -19 -73 -105 q-17 -39 -42 -135l-4 -13q-6 -26 -11 -57v-3q0 -3 -0.5 -8t-0.5 -8q17 19 37 28q53 25 106 -3q29 -13 42 -33l8 -14l10 -16q11 -17 23 -50q7 -27 7 -65q1 -37 1 -70t-11 -71t-35 -68q-38 -47 -99 -47zM45 301l-4 -15v-33q0 -41 1 -59q1 -10 5 -37l3 -17q1 -20 8 -42t25 -43 l4 -5q11 -17 19 -20q24 -11 52.5 -3.5t45.5 29.5q28 36 34 78.5t3 104.5q0 33 -8 56q-8 27 -15 37l-12 19l-8 13q-8 10 -26 19q-37 17 -71 2q-39 -17 -56 -84z" />
<glyph unicode="7" horiz-adv-x="298" d="M145 -16l-39 8l4 20q12 63 34 276q7 82 15 143q6 43 18 84q13 56 14 62l28 106q0 2 2.5 12.5t3.5 16.5h-14q-6 -1 -13.5 -1t-16 0.5t-13.5 0.5h-15q-11 0 -34 0.5t-35 0.5q-15 1 -45 1v-46h-39v87h20q10 0 32 -0.5t33 -0.5q36 -3 68 -3h57q35 1 42 1h15v-40l-10 -40 q-24 -86 -26 -102q-5 -25 -16 -65q-12 -46 -17 -79q-2 -17 -7 -65.5t-8 -76.5q-18 -194 -34 -280z" />
<glyph unicode="8" horiz-adv-x="325" d="M143 -16q-19 0 -34 6q-34 8 -58 30q-37 35 -43 65q-19 72 2 146q6 17 31 51l13 19q29 48 59 84q2 6 5 7q-41 53 -72 101q-10 15 -22 61q-2 10 -6 24q-16 54 8 106q24 58 80 74q16 2 29 2h17q29 -1 49 -12q24 -13 39 -32q10 -14 20 -32q4 -8 6 -16.5t2.5 -19.5t0.5 -17.5 t-1.5 -20t-2 -17.5t-3 -19t-2.5 -16q-12 -53 -61 -120l-5 -7q-8 -13 -26 -39l5 -7q58 -72 93 -149q26 -61 17 -119t-50 -97q-14 -14 -48 -28q-24 -8 -42 -8zM143 359q-30 -37 -55 -79q-10 -16 -16 -22q-21 -31 -24 -39q-16 -62 -2 -125q4 -17 33 -46q12 -11 40 -20 q11 -4 24 -4q12 0 27 5q22 9 36 19q35 34 39 85t-16 87q-27 62 -86 139zM135 721q-11 0 -20 -3q-36 -8 -53 -50q-18 -40 -6 -78l7 -26q8 -37 17 -50q18 -27 62 -88l21 27l5 8q44 69 52 105q16 72 3 102q-8 16 -15 24q-9 13 -26 21q-16 7 -31 7h-3q-5 1 -13 1z" />
<glyph unicode="9" horiz-adv-x="325" d="M88 -16l-19 -8l-17 36l19 9q19 8 35.5 25.5t29.5 44.5t19 43t17 47q2 10 5 16q18 49 37 137q-55 -18 -135 24l-3 1q-30 16 -43.5 40.5t-19.5 59.5l-1 8q-13 81 -12 129q0 36 20 96q14 41 44 56q24 12 57 12t59 -12q27 -14 48.5 -40t27.5 -54q4 -32 4 -45q1 -6 1 -15 q1 -14 3.5 -40.5t2.5 -29.5l3 -13q2 -24 -4 -93q-3 -15 -3 -18q-10 -106 -49 -217q-1 -2 -2 -5t-2 -5.5t-2 -4.5q-47 -150 -120 -184zM119 721q-20 0 -38 -8q-15 -7 -23 -33q-19 -55 -19 -84q0 -39 12 -123l1 -8q9 -53 42 -71l3 -1q23 -12 38 -18t39.5 -6.5t44.5 12.5l2 2 q0 5 1.5 12.5t1.5 9.5t0.5 8.5t0.5 9.5q8 58 4 84q0 8 -1 13q-3 26 -7 71q-1 5 -1 16q0 23 -4 39q-4 20 -19 38.5t-34 27.5q-18 9 -44 9z" />
<glyph unicode=":" horiz-adv-x="126" d="M64 30v-39h-64v57h63zM0 396v39h64v-58h-63z" />
<glyph unicode=";" horiz-adv-x="126" d="M58 -60l-6 -20l-38 9l4 20q6 26 6 42h-24v18v20v18l18 1h28l17 -1l1 -17v-23q0 -36 -6 -67zM64 417v-40h-64v58h63z" />
<glyph unicode="&#x3c;" horiz-adv-x="242" d="M197 301l-24 -31l-16 10q-28 20 -60 41t-49 31l-18 11l-2 34l65 46l66 38l17 10l19 -35l-17 -9q-48 -28 -63 -37q-5 -3 -39 -27q64 -41 104 -70z" />
<glyph unicode="=" horiz-adv-x="330" d="M269 410h-44q-13 0 -28.5 0.5t-34.5 1.5t-30 1q-11 1 -69 1q-15 -1 -43 -1h-20v39h20q7 0 21 0.5t21 0.5q36 3 74 0q33 -2 101 -2h32v-41zM160 305h-71q-11 0 -34.5 1t-34.5 1h-20v39h89q24 -1 71 -1q7 0 21.5 0.5t21.5 0.5t22.5 0.5t23.5 0.5h20v-40h-65q-14 -2 -44 -2z " />
<glyph unicode="&#x3e;" horiz-adv-x="228" d="M35 279l-17 -9l-18 35l18 10q32 18 33 18l70 47q-102 66 -104 67l-17 9l20 35l17 -10q23 -14 74.5 -47.5t54.5 -36.5v-33l-93 -65z" />
<glyph unicode="?" horiz-adv-x="304" d="M136 157l-1 -19l-39 1l1 20q0 36 -1 55v60q1 63 35 105l8 10l17 21q17 16 29 51q3 12 9 24q15 38 18 71q9 60 -17 114q-24 48 -68 48q-14 -1 -33 -16q-4 -2 -11 -9q-19 -12 -29 -27q-15 -28 -15 -43l2 -20l-41 -1v19q-1 28 21 66q12 21 39 40q5 3 11 7q34 24 56 24 q70 0 104 -71q30 -62 22 -135q-7 -43 -22 -81l-8 -23q-17 -47 -40 -68q-3 -3 -11 -13l-9 -14q-27 -31 -28 -82v-17v-20.5v-18.5q1 -20 1 -58zM136 50v-58h-39v58h39z" />
<glyph unicode="@" horiz-adv-x="552" d="M330 -122q-13 0 -18 1q-44 5 -100 2q-77 -4 -119 30q-41 32 -53 77t-12 112q-1 31 -1 66t0.5 78t0.5 65v44q0 52 1.5 81.5t10.5 74.5t28 78q12 22 32.5 37t39 22t47 11t45 4.5t45.5 0.5h7q125 3 164 -63q28 -47 28 -152v-17q0 -6 -3 -195v-6q-1 -37 -3.5 -59.5t-13 -56 t-29.5 -54.5q-14 -16 -36.5 -23t-43.5 -3q-23 5 -42 27q-10 -11 -19 -15q-20 -12 -44 -12l-1 -2h-8q-20 0 -35 10q-38 18 -45 78q-1 16 -1 45v27l-4 46q0 4 -0.5 12t-0.5 13q-1 13 1 58q0 6 0.5 17t0.5 17q0 45 12 81q14 34 38 53q22 15 59 6h2q22 -7 31 -13l1 17l40 -1v-20 q-2 -16 -2 -80v-8q3 -80 -2 -157q-2 -33 -2 -79v-43l2 -4q9 -30 28 -34q25 -6 42 15q31 34 35 144v5q3 93 3 194v17q0 94 -22 131q-17 28 -49.5 36.5t-80.5 8.5h-7q-44 0 -68.5 -2t-57.5 -15t-47 -39q-17 -28 -25.5 -68t-9.5 -67.5t-1 -78.5q0 -17 -1 -27v-226 q1 -59 10.5 -96t40.5 -63q27 -22 93 -20q58 3 105 -2q59 -6 92 22q13 12 13 30v20h39v-20q0 -36 -26 -60q-37 -33 -104 -33zM271 443l-4 5q-2 5 -17 7l-1 1q-19 5 -28 -1q-16 -12 -22 -33q-10 -30 -10 -69q0 -6 -1 -18t-1 -17q-2 -37 -1 -53l3 -24q2 -32 2 -48v-29 q0 -28 2 -41q3 -37 22 -47q10 -5 20 -5l2 1q45 6 47 37l3 21v23q0 48 1 82q3 48 3 154v8l-1 2v3l-2 11q-1 12 -17 30z" />
<glyph unicode="A" d="M235 -10h-20v40h42q-12 84 -13 108q-8 70 -13 106q-3 16 -10 68q-5 -1 -15 -1q-16 -3 -30 -3h-7q-27 0 -48 5q0 -2 -1 -5t-1 -4l-9 -55q-4 -21 -8 -67q-2 -28 -5 -40l-8 -78l-2 -31h39v-40h-20q-10 0 -23.5 -0.5t-18.5 -0.5t-19.5 -0.5t-24.5 -0.5h-20v40h46l4 37l12 118 q3 35 9 70l9 56q12 57 16 100q2 16 15 100q9 35 12 67l8 55q1 12 11 79h-28v41h21q7 0 10 -2h10q2 2 6 2h26l6 -24q21 -89 25 -115l1 -12q14 -114 29 -189q6 -35 14 -98q2 -32 8 -66q4 -27 13 -108q3 -37 13 -111h43v-39h-19q-30 0 -42 -1q-4 0 -17.5 -0.5t-25.5 -0.5z M170 629q-4 -39 -7 -55q-5 -36 -12 -69q-12 -62 -16 -97q-1 -19 -7 -57q12 -2 41 -2h5q19 0 29 1h15q-5 34 -10 56q-18 105 -28 192l-2 11l-6 33q0 -2 -1 -6.5t-1 -6.5z" />
<glyph unicode="B" horiz-adv-x="353" d="M66 -10h-66v39h29v39q0 188 5 323q-2 4 0 9q1 40 5 127q1 13 -2 113q-4 32 -4 76h-15l-19 1v39h74v-1q13 -1 50 -9q60 -18 100 -54q50 -46 33 -152q-4 -23 -14.5 -41.5t-18.5 -26.5t-29 -25l-13 -12q-18 -15 -51 -31l9 -3q41 -14 77 -37q45 -27 60 -60t19 -89 q8 -97 -51 -157q-65 -68 -178 -68zM215 85q47 52 41 126q-5 50 -16 74.5t-45 46.5q-42 22 -70 31q-34 11 -53 13q-4 -136 -4 -309v-38q91 0 147 56zM156 467l13 10q18 15 24.5 21.5t13.5 19t9 29.5q16 82 -21 115q-32 32 -84 46q-4 1 -12 2.5t-14.5 2.5t-12.5 1q0 -40 4 -72 q5 -69 3 -118l-6 -102q51 20 83 45z" />
<glyph unicode="C" horiz-adv-x="334" d="M152 -16h-10q-24 0 -54 13q-31 16 -51 42q-34 45 -32 142q0 4 0.5 12t0.5 14t-1 11q0 9 -0.5 27t-0.5 28q-6 86 -1 141q1 36 -2 84q-1 16 -1 47q-1 58 20 117q18 52 59 82q34 24 90 11l4 -1q39 -8 58 -31v36h40v-81q0 -12 -1 -19v-15l-39 -7q-13 40 -30 60q-7 9 -37 19 h-4q-37 10 -58 -4q-29 -21 -46 -63q-18 -61 -17 -104q0 -7 1 -22t1 -22q2 -59 1 -88q-3 -46 1 -139l3 -56v-37v-43.5t5 -39t17 -34.5q20 -24 37 -30q27 -13 42 -10h1q2 1 3 1q36 2 51 12q19 13 23 44l4 20l40 -7l-4 -19q-8 -50 -42 -71q-21 -14 -66 -18z" />
<glyph unicode="D" horiz-adv-x="349" d="M25 -12h-25v40h35q-2 76 -5 115q-4 67 1 275q0 17 2 26q0 26 2 72q3 32 3 65q1 26 -1 78q-3 29 -3 55h-33l-2 40l19 1q78 6 130 -25q44 -25 76 -77t45 -118q23 -131 18 -220q0 -25 -1 -38q0 -83 -13 -120q-16 -42 -50 -81q-25 -32 -64 -52l-15 -8q-22 -13 -39 -20 q-25 -8 -80 -8zM93 34q14 5 32 16l15 9q27 11 53 42q31 36 42 69q11 34 11 107q0 27 2 40q5 89 -19 211q-10 57 -37 101.5t-64 66.5q-24 12 -53 17q0 -8 0.5 -25.5t0.5 -26.5q2 -63 1 -82q0 -21 -2 -65l-3 -71q0 -17 -1 -26q-6 -169 0 -272l4 -116q13 2 18 5z" />
<glyph unicode="E" horiz-adv-x="341" d="M34 372h-25v40h25q0 12 -0.5 35t-0.5 34q-2 45 -2 136q0 17 -2 49q0 5 -2 21.5t-2 26.5h-25v40h20q23 0 34 -2q49 0 64 2q31 4 94 0q6 0 15.5 -1t13.5 -1h20v-19q0 -16 1 -27v-44l-39 -1v21q0 14 -2 23v9h-11q-60 4 -88 0q-20 -2 -56 -2q0 -14 2 -44q3 -45 3 -51 q0 -22 0.5 -67t0.5 -68q0 -44 1 -67h7q20 3 42 3h48q12 -1 37 -1v35h39v-19q0 -11 1 -20t1 -11t0.5 -12.5t0.5 -22.5v-20h-39v29q-8 0 -21.5 0.5t-20.5 0.5q-15 2 -45 2q-20 -3 -40 -3q-3 -1 -8 -1q0 -192 6 -345q26 -1 76 1q44 3 80 2v51h40v-92h-21q-24 2 -97 0 q-46 -2 -69 -2q-30 0 -61 3l-20 2l4 39l20 -1q1 0 4 -1t5 -1q-6 129 -8 341z" />
<glyph unicode="F" horiz-adv-x="309" d="M174 377h-29q-19 0 -30 2h-39v-68q-1 -17 -1 -53q0 -65 4 -118q2 -70 2 -109h44v-39h-20q-32 0 -42 -1q-5 0 -19 -0.5t-26 -0.5h-19v40h43q0 62 -4 109q-3 117 -3 119v54q2 21 2 67h-28v39h26v11q-2 62 -2 94q1 8 1 21q2 72 1 90v45v34h-15l-20 -1l-3 40l20 2q29 1 64 -2 q48 -2 82 2q21 3 45 1h40v-20q0 -17 1 -27v-46h-39v20q0 14 -2 24v10h-1q-30 0 -39 -2q-26 -3 -89 -1h-3q0 -7 -0.5 -19t-0.5 -18v-39q1 -43 -2 -94v-21q-1 -42 2 -91v-12q29 0 44 -1q26 -2 54 0h17v35h41v-51q1 -6 1 -34v-19h-39v30q-3 0 -9 -1t-10 -1z" />
<glyph unicode="G" horiz-adv-x="337" d="M142 -16q-26 0 -53 11q-37 15 -56 64q-32 78 -32 178v112q0 10 -0.5 32t-0.5 33q-1 25 -1 76q0 54 8 88q1 10 1 35q0 42 9 65q19 41 43 61q14 10 47 19q44 8 80 -11q25 -13 38 -30q-1 8 -1 22v20h39v-20q0 -1 3 -19q3 -30 3 -31q-2 -6 -2 -15q-2 -24 -2 -33l-38 -8 q-18 58 -58 79q-26 12 -52 6q-23 -4 -32 -12q-17 -10 -31 -44q-7 -15 -7 -49q0 -27 -2 -43q-6 -37 -7 -80q0 -12 0.5 -38t0.5 -38q2 -21 2 -65v-112q0 -89 28 -164q14 -32 36 -42q29 -10 52 -5q19 4 37 12q12 6 24 25q0 1 2 5q15 19 15 29l2 20v1q0 14 -2 54q-3 27 -3 56 q0 33 1 50q3 39 2 72q-21 -2 -42 0q-12 1 -25 0h-38v39h19q11 0 16 2q25 0 34 -2q21 -1 47 2l25 2l2 -19q4 -33 0 -99q0 -9 -1 -25t-1 -23q0 -10 1.5 -29.5t1.5 -23.5q3 -54 3 -57v-49q-2 -20 -2 -61v-20h-40v33q-9 -9 -21 -16q-24 -13 -49 -17q-1 0 -10 -1.5t-13 -1.5z" />
<glyph unicode="H" horiz-adv-x="398" d="M248 713h-44v39h20q32 0 42 2q5 0 19 0.5t26 0.5h21v-41h-44q3 -71 0 -150q0 -141 4 -208q3 -49 3 -148q3 -160 4 -178h44v-39h-19q-32 0 -42 -1q-5 0 -19 -1t-26 -1h-21v41h44q-1 17 -4 179q0 48 -4 146q-2 12 -2 35q-110 -4 -161 -4q0 -29 -0.5 -86t-0.5 -85 q0 -34 -0.5 -95t-0.5 -88h40v-39h-20q-10 0 -24 -0.5t-19 -0.5t-18.5 -0.5t-25.5 -0.5h-20v39h47q0 120 1 185q4 338 -5 500h-40v40h19q32 0 44 1q4 0 18 0.5t26 0.5h20v-40h-46q5 -110 5 -291q88 0 160 4v136q0 102 -1 148z" />
<glyph unicode="I" horiz-adv-x="211" d="M163 29l-2 -39h-19q-35 1 -75 1q-6 0 -21 -0.5t-25 -0.5h-21v40h62q0 191 4 319q3 105 -2 224q-2 92 -2 141h-41l-21 -1v41h143l20 -2l-2 -39h-19q-9 0 -22.5 0.5t-18.5 0.5q0 -71 3 -140q4 -166 2 -227q-5 -119 -5 -317h42z" />
<glyph unicode="J" horiz-adv-x="384" d="M345 754v-41h-20q-9 0 -24 0.5t-21 0.5q0 -5 1 -13t1 -12t0.5 -16.5t0.5 -21.5q0 -54 4 -95q3 -51 3 -53l4 -43q0 -7 2 -35t2 -44q-1 -44 -11 -207q-9 -110 -60 -161q-29 -29 -74 -29q-47 0 -82 29q-69 56 -71 180v19l39 2v-21q4 -106 57 -148q22 -19 50.5 -21t52.5 18 q43 41 47 135q11 119 11 204q0 41 -4 76q0 21 -3 45l-2 51q-6 64 -6 98v37q-1 8 -1 26h-59v40h163z" />
<glyph unicode="K" horiz-adv-x="388" d="M47 609v104h-42v41h63q11 1 45 1h19v-39h-44q0 -18 -0.5 -54t-0.5 -54q0 -13 0.5 -41.5t0.5 -42.5q2 -36 2 -57v-48q21 44 28 67q24 87 72 172l8 16l20 39h-37v41h63q10 1 44 1h20v-39h-45q-15 -35 -30 -61q-3 -7 -9 -15q-43 -82 -68 -166q-10 -31 -26 -65q7 -5 13 -11 t9.5 -10.5t7.5 -12.5t5 -10.5t4.5 -12t4.5 -11.5l4 -11l8 -25q8 -17 17 -48q9 -32 24 -67l12 -30q12 -35 48 -129h47v-39h-19q-12 0 -25.5 -0.5t-18.5 -0.5q-11 -1 -44 -1h-20v39h38q-20 49 -43 116l-12 31q-17 40 -26 72q-7 24 -15 43q-1 3 -9 26l-4 12q-10 31 -23 43 q-16 -32 -23 -54l-3 -10l-3 -214q0 -5 0.5 -15.5t0.5 -16.5t1.5 -16t1.5 -15h39v-39h-20q-11 0 -24.5 -0.5t-18.5 -0.5q-10 -1 -44 -1h-20v39h47q0 4 -0.5 14t-0.5 16q-1 12 -1 35q0 137 3 269q3 35 3 102l-3 58q-2 58 -1 86z" />
<glyph unicode="L" horiz-adv-x="350" d="M43 712h-43v40h62q11 2 44 2h20v-40h-43q0 -34 -2 -50q-2 -66 0 -99q5 -77 2 -155q-1 -17 1 -78q3 -57 3 -59q0 -53 3 -104q8 -83 4 -138h11h75q13 0 39 -0.5t39 -0.5v1q0 32 -1 49v20h41v-108l-20 -1h-98q-25 1 -74 1h-29h-43h-20v39h40q2 55 -3 135q-5 60 -5 107 q0 38 -1 56q-3 45 -2 84q3 43 -2 149q-1 26 1 104q0 30 1 46z" />
<glyph unicode="M" horiz-adv-x="423" d="M21 -10h-20v39h44l-3 231q0 22 -1 34q-3 23 -2 44q0 21 2 32q0 9 0.5 26.5t0.5 25.5v291q-17 0 -22 1h-20l1 40h82l4 -14l26 -83l15 -53l10 -26l7 -22q14 -43 23 -76l8 -27l6 -23l4 13l15 48q6 20 9 29l10 40l8 35l5 16l8 29q1 12 9 32l4 15l15 52l5 15h81v-40h-42 q4 -145 9 -683h45v-39h-20q-12 0 -25 -0.5t-17 -0.5q-11 -1 -44 -1h-21v39h43q-5 421 -8 584l-4 -14q-2 -11 -5 -16l-8 -31q-3 -24 -10 -42q-1 -5 -4 -16t-5 -16l-15 -45q-3 -15 -12 -41q0 -3 -2 -11q-4 -6 -7 -14h-40q-16 40 -25 76l-8 26q-7 25 -23 75q-2 10 -6 20 q-8 18 -11 28l-7 28v-38q0 -47 -2 -70v-90q0 -37 -1 -54q0 -5 -0.5 -15.5t-0.5 -15.5q0 -6 0.5 -19.5t0.5 -21.5l3 -36q0 -159 1 -229h43v-39h-20q-11 0 -24 -0.5t-17 -0.5q-12 -1 -45 -1z" />
<glyph unicode="N" horiz-adv-x="398" d="M300 -9h-38l-1 2l-13 49q-15 63 -32 113q-21 67 -47 174l-8 33q-8 34 -36 119q-13 34 -27 76l-15 54q-3 -75 1 -140q8 -152 0 -306q-1 -29 1 -88q0 -6 0.5 -14t1.5 -18t1 -15h43v-39h-20q-31 0 -42 -1q-4 0 -18 -1t-26 -1h-20v41h43l-2 47q-2 70 -1 92q8 150 0 301 q-4 65 0 160q1 28 1 85h-46v40h80l5 -14l51 -171l25 -75q24 -63 40 -123l7 -33q24 -101 46 -170l7 -23q1 50 -1 151q0 27 -1 83.5t-1 84.5q0 9 0.5 19.5t1.5 23.5t1 20q2 44 2 71q0 9 -0.5 30t-0.5 30q-1 17 -1 54h-45v40h63q11 2 43 2h21v-40h-43q0 -9 0.5 -28t0.5 -27 q2 -18 2 -61q0 -2 -3 -74q0 -9 -0.5 -29.5t-0.5 -30.5q-1 -58 1 -166q0 -31 0.5 -93.5t0.5 -93.5q0 -26 -1 -39v-81z" />
<glyph unicode="O" horiz-adv-x="381" d="M164 -16q-26 0 -58 15q-20 11 -34 27t-23.5 40t-13.5 38.5t-10 43.5l-5 20q0 2 -6 38l-4 26q-14 78 -6 233l3 37v13q1 33 2.5 48.5t7 40.5t16.5 47l6 16q9 20 14.5 31t18.5 25.5t30 22.5q27 13 62 13q27 0 54 -8q24 -7 39 -23.5t20 -29.5t10 -37l4 -17q30 -110 30 -264 v-8q0 -128 -10 -196q-3 -16 -3 -32q-2 -26 -3.5 -37t-9.5 -31.5t-21 -34.5q-56 -57 -110 -57zM164 720q-26 0 -45 -10q-24 -10 -43 -59q-3 -5 -7 -15q-20 -46 -22 -122q0 -2 -0.5 -6.5t-0.5 -6.5q0 -7 -0.5 -20t-0.5 -18q-12 -143 5 -223l4 -29q2 -24 5 -34l4 -21 q7 -32 12 -50t18 -40t33 -32t38 -10q38 0 81 44q19 21 24 79q0 10 2 34q9 65 9 191v8q0 145 -27 253q-1 9 -5 18q-5 21 -8.5 31t-11.5 18.5t-22 12.5q-23 7 -42 7z" />
<glyph unicode="P" horiz-adv-x="360" d="M123 288q-6 0 -12.5 0.5t-14.5 1.5t-12 1v-104q0 -49 -1 -73v-84h5q3 0 9.5 -0.5t8.5 -0.5h20v-39h-20q-16 0 -22 1q-9 1 -25 1l-13 -2q-12 -3 -26 -3h-20v39h20q3 0 9.5 1.5t9.5 1.5h3v1q0 58 1 84q0 13 1 37t1 36q0 18 -1 54.5t-1 53.5h-34v39h34v70q0 3 3 87 q4 64 4 96l-4 66l-4 61h-34v40h54q6 0 57 -3q45 -7 83 -33q74 -46 93 -143q14 -74 -11 -150q-10 -34 -33.5 -67.5t-49.5 -50.5q-29 -19 -78 -19zM85 655q4 -44 4 -68q0 -32 -2 -98q-4 -56 -4 -84q0 -13 0.5 -38t0.5 -37q68 -8 96 11q20 13 39.5 41t26.5 54q6 17 9.5 42.5 t3.5 64.5t-20 78t-59 64q-32 22 -66 27q-11 0 -31 2q0 -19 2 -59z" />
<glyph unicode="Q" horiz-adv-x="381" d="M203 -109q-55 0 -61 46q-3 12 0 43v7q-27 5 -40 12q-17 8 -30 22.5t-19 26t-14 31.5q-4 10 -6 14q-22 47 -26 136v15l-3 36q-8 155 6 234l4 26q0 1 2 15.5t4 21.5l5 21q6 28 10 43t13.5 38t23.5 39.5t34 27.5q29 15 58 15q55 0 110 -56q28 -29 34 -103q0 -16 3 -32 q10 -68 10 -196v-8q0 -155 -30 -264l-4 -17q-5 -24 -9.5 -37t-20 -29.5t-39.5 -23.5q-20 -7 -37 -8v-8v-35q1 -5 1.5 -7t5.5 -3.5t15 -1.5q11 0 17 1q21 3 22 3h20v-41h-20q-10 0 -15 -1q-3 0 -7.5 -1t-8.5 -1.5t-8 -0.5zM164 722q-18 0 -38 -10q-20 -11 -33 -33t-18 -39.5 t-12 -49.5l-4 -21q-3 -11 -5 -34l-4 -29q-17 -80 -5 -223q0 -7 0.5 -19.5t0.5 -18.5q0 -2 0.5 -6.5t0.5 -6.5q2 -76 22 -122q4 -10 7 -16q19 -48 43 -59q19 -9 45 -9q24 0 42 7q20 6 27.5 18.5t14.5 41.5q4 15 5 20q27 108 27 253v8q0 125 -9 191q-2 20 -2 34q-6 57 -24 79 q-46 44 -81 44z" />
<glyph unicode="R" horiz-adv-x="397" d="M38 299h-43v39h43q-2 170 1 261q3 59 3 115h-42v40h54q4 0 56 -3q47 -7 84 -31q78 -50 93 -143q14 -69 -9 -150q-17 -53 -58 -91q-17 -15 -31 -21q-8 -5 -24 -10q32 -34 70 -118q4 -9 18 -35q17 -30 20 -38q12 -30 27 -73l4 -12q4 0 16 -0.5t18 -0.5h20v-40h-20 q-10 0 -22 0.5t-20 1.5h-8l-11 1l-4 10q-3 6 -11 27q-9 31 -26 70l-17 34l-21 40q-19 48 -41.5 82t-39.5 41l-10 4h-28q0 -34 0.5 -70.5t1 -55.5t0.5 -21v-83v-39h45v-39h-20q-12 0 -25 -0.5t-17 -0.5q-12 -2 -44 -2h-20v40h42v124q0 1 -1 21t-2 55.5t-1 70.5zM79 598 q-4 -85 -2 -259h15q32 -2 55 3q24 8 26 9q9 4 20 13q33 33 47 74q7 22 10 47t2 64t-21.5 76t-58.5 62q-25 16 -67 25q-3 0 -11.5 0.5t-12.5 0.5q0 -37 -2 -115z" />
<glyph unicode="S" horiz-adv-x="322" d="M41 4l-2 -21l-39 4l1 20q2 11 2 35v38q2 47 0 67l39 6q4 -31 17 -56q12 -24 34 -47t41 -25q28 -1 53 23q21 19 27 31t7 34q5 69 -10 107q-23 52 -81 131l-49 70l-5 9q-35 48 -51 92q-1 5 -3 12t-2 11q-1 2 -2 6.5t-2 8t-2 6.5q-19 59 6 118q23 58 77 74q52 13 105 -28 q2 -2 4.5 -4t5 -5t4.5 -5q0 5 1 13t1 11v20h39v-20q0 -18 -1 -27q-4 -45 4 -68l-39 -12q-12 37 -45 66t-69 19q-34 -8 -51 -50q-18 -43 -4 -89l7 -26q1 -6 5 -20q9 -32 45 -81l5 -9q2 -3 20 -29t29 -39q56 -76 83 -139q9 -20 13 -42t3.5 -41.5t-0.5 -41.5q-1 -31 -11.5 -49 t-34.5 -41q-37 -39 -85 -35q-44 3 -89 62v-6q0 -25 -1 -38z" />
<glyph unicode="T" horiz-adv-x="393" d="M337 752v-108l-41 1l2 19v49q-9 0 -22 0.5t-23 0.5h-11h-47q0 -62 -2 -178q-4 -177 -3 -269q1 -63 1 -188v-48h44v-39h-20q-12 0 -25 -0.5t-17 -0.5q-12 -1 -45 -1h-21v39h45v51q0 124 -1 186q-1 61 1 271q3 171 3 177h-42q-11 -1 -71 -1q0 -3 -0.5 -17.5t-0.5 -25.5v-21 l-41 1l1 20l2 64l1 20h313z" />
<glyph unicode="U" horiz-adv-x="391" d="M126 754v-41h-43q0 -8 -3 -146q-2 -120 0 -245v-11q0 -108 16 -177q23 -109 76 -110q26 0 46 19q43 45 43 165v69q-1 31 -1 97v65v74v61t-1 68.5t-1 70.5h-43v41h20q31 0 43 1h64v-39h-43v-141q1 -65 1 -201v-166q0 -139 -55 -194q-32 -30 -73 -30q-49 0 -79 47 q-20 29 -37 95q-15 74 -15 183v12q-4 101 0 246q1 46 1 146q-3 0 -11 0.5t-13 0.5l-19 2l1 39l20 -1h106z" />
<glyph unicode="V" horiz-adv-x="413" d="M39 713h-46v41h129v-41h-42q6 -28 26 -143q3 -14 5 -43q1 -6 5 -33t7 -42q15 -71 37 -203l23 -151q16 78 20 108l24 144q3 28 9 59q29 181 37 228l13 76h-42v41h21q31 0 43 1h45h19v-41h-46q-1 -9 -6.5 -39t-7.5 -45q-8 -47 -37 -228q-1 -2 -9 -59l-24 -144l-22 -128 l-17 -85h-39q-16 88 -43 256q-18 110 -37 202q-3 16 -7.5 46t-4.5 33q-1 11 -5 42q-13 76 -28 148z" />
<glyph unicode="W" horiz-adv-x="684" d="M624 754v-40h-47v-6l-4 -30l-2 -10q-14 -78 -23 -149l-3 -21l-21 -113q-13 -58 -15 -85l-15 -88q-7 -59 -16 -103q-6 -39 -15 -80q-10 -42 -10 -43h-38l-13 53q-6 30 -19 85.5t-15 62.5l-10 59l-4 17l-5 25q0 4 -1 9.5t-1 7.5l-4 25l-4 26q0 2 -0.5 5.5t-0.5 5.5l-10 79 q0 1 -3 19v2q-6 27 -9 55l-5 38l-7 -41q-3 -26 -26 -157l-7 -40l-15 -86l-11 -53q-34 -179 -38 -197h-39q0 16 -8 45l-8 48q-8 39 -16 97q-2 7 -3.5 15t-3 18t-2.5 15q-6 36 -6 42q-2 14 -8 40.5t-7 30.5q-9 37 -14 69l-12 84l-8 64l-12 78l-2 9l-13 72h-48v41h63q12 1 46 1 h20v-39h-41q2 -9 6 -34t6 -35l1 -9l13 -78q4 -18 10 -66q2 -28 10 -81q6 -32 14 -68q2 -14 7.5 -39t7.5 -33q0 -7 1 -14t2.5 -15t2.5 -13l8 -50q3 -13 7.5 -41t7.5 -40l17 91l10 53l16 85q3 13 7 39q16 80 26 155q7 65 27 147h38q15 -63 25 -142q0 -2 3.5 -23t5.5 -32v-1 q3 -12 3 -22l10 -78q0 -2 1 -5t1 -4l4 -26l4 -28q0 -3 0.5 -8t0.5 -7l5 -21l4 -19l11 -59q7 -35 26 -114q4 25 5 34q9 43 16 104l14 88q6 37 16 86q19 101 20 110l4 21q9 72 23 151l1 9l4 28v4h-42v39h65q4 0 18 -0.5t26 -0.5h20z" />
<glyph unicode="X" horiz-adv-x="438" d="M21 -9h-20l-1 39l20 1h25q6 20 11 29q22 54 23 58l26 89l14 46q13 39 20 54l12 32q9 25 10 29l8 25l-1 3v4q0 1 -11 30l-14 44l-16 52l-12 43l-10 29q-7 16 -11 30l-28 86h-42v41h19q12 0 26 -0.5t19 -0.5h61v-41h-42l25 -73q2 -5 5 -14.5t5 -14.5l11 -30l12 -45l16 -50 l10 -33q0 4 2 6l13 40l19 61q3 8 7 18l8 21l6 24q5 22 16 49q9 27 12 40h-42v40h20q10 0 24 1t18 1h44h20v-40h-42q0 -2 -2 -7.5t-2 -7.5q-7 -24 -13 -40l-15 -47l-6 -25l-9 -23l-7 -17l-18 -59l-13 -42l-20 -54l20 -55l36 -110q2 -8 15 -47l12 -35q2 -7 7 -20.5t7 -17.5 q7 -13 17 -41l9 -23q0 -4 4 -12h47v-39h-19q-32 0 -44 -1q-4 0 -18 -0.5t-26 -0.5h-20v40h38q-2 4 -9 24q-6 19 -16 38l-15 42q-6 14 -11 32l-52 158l-3 6v-2q-1 -1 -1 -2l-13 -34l-19 -50l-14 -47l-26 -89q-6 -19 -24 -61q-5 -10 -6 -15q10 0 19 1l20 2l1 -41h-20 q-22 -1 -47 -1h-39z" />
<glyph unicode="Y" horiz-adv-x="412" d="M128 754v-41h-41q1 -1 3.5 -11t5.5 -19q1 -3 5 -17t6 -22q14 -38 16 -50l21 -70l42 -136l33 107q7 21 13 33q9 25 10 29q4 12 10 34.5t9 31.5q7 35 16 61l7 30h-23l-20 2l1 39h21q25 -1 50 -1q4 0 15.5 0.5t20.5 0.5h21v-41h-44l-11 -42l-16 -60q-5 -22 -19 -68l-11 -32 q-5 -8 -12 -28l-51 -169q0 -22 0.5 -64.5t0.5 -63.5q3 -129 3 -133v-9q-2 -6 -2 -14h41v-39h-20q-10 0 -23.5 -0.5t-19.5 -0.5q-12 -1 -43 -1h-21v39h47q-1 0 -1 9l1 9q0 2 0.5 4t0.5 3q0 47 -2 133q-2 41 -2 128l-60 197l-21 71q-2 10 -16 49l-11 40l-10 28l-3 16h-23 l-19 -2l-3 40l20 1h56q11 -1 33 -1h19z" />
<glyph unicode="Z" horiz-adv-x="375" d="M81 -13q-7 0 -17 0.5t-18.5 0.5t-16 0.5t-12.5 1.5h-5l-12 1v39l26 68l8 20q13 34 22 67l7 23q15 53 58 151q22 48 39 93q24 61 60 135l22 49q4 6 10 19t8 17l20 46l-19 -2q-26 -3 -68 -3q-28 0 -38 1q-4 0 -11.5 1t-9.5 1h-65v-65l-39 -1v21q-1 21 -1 56l1 27l18 1h86 q14 0 23 -1q5 0 17 -1t19 -1q30 0 64 4q31 3 56 0l11 -1v-39q-5 -11 -15 -31.5t-14 -29.5l-16 -36l-23 -48q-51 -112 -59 -133q-16 -43 -40 -96q-41 -95 -56 -145l-7 -24l-22 -69l-9 -21l-21 -55q7 0 21 -1t20 -1q3 0 10 0.5t16.5 1.5t15.5 1q38 2 47 2h14q30 3 53 0 q13 0 19 -1q6 0 15.5 -0.5t13.5 -0.5v27q0 4 -0.5 12t-0.5 12v20h40v-44q0 -4 0.5 -14t0.5 -18t-1 -16v-18h-18q-12 -1 -52 1q-4 0 -10.5 0.5t-9.5 0.5h-64q-10 0 -44 -2q-27 -3 -45 -3h-2z" />
<glyph unicode="[" horiz-adv-x="260" d="M54 -56h-21l-19 1l-1 18q-5 180 -5 418q0 20 -0.5 59t-0.5 58q0 25 -1 75.5t-1 76.5q0 8 -0.5 27.5t-0.5 30.5q0 2 -1.5 31t-1.5 42l2 20l19 -2q4 0 14 1t14 1t12 0.5t11 0.5l55 -4l31 -2h19l-1 -41l-20 1l-31 3q-34 2 -53 2h-21q-4 -1 -10 -1q0 -34 1 -51q2 -20 2 -59 q0 -26 0.5 -76.5t0.5 -75.5q1 -38 1 -117q1 -133 5 -398q24 0 46 3q48 2 72 1l20 -3l-3 -39l-19 1q-14 1 -67 -1q-8 0 -24 -0.5t-23 -0.5z" />
<glyph unicode="\" horiz-adv-x="368" d="M337 -56l-37 -17l-8 18q-15 32 -55 145l-9 31q-7 19 -18 54.5t-15 47.5q-42 134 -63 185q-15 38 -39 116q-12 41 -17 53q-10 33 -71 220l-5 18l38 13l5 -19l71 -221q7 -17 17 -53q29 -88 38 -113q25 -63 64 -187l32 -101q8 -23 10 -32q33 -98 53 -140z" />
<glyph unicode="]" horiz-adv-x="253" d="M98 -58h-4q-5 0 -16 1.5t-15 1.5q-39 3 -42 3l-20 1l2 39h19l45 -4q20 -2 27 -2q13 0 37 2l18 3q0 37 -1 56v51q0 31 -0.5 93.5t-0.5 92.5q0 18 -1 53.5t-1 53.5q0 22 1 66.5t1 65.5q2 106 0 211q-2 5 -2 30h-30q-4 -1 -11 -1q-34 -1 -74 0l-20 1l3 41l20 -3q23 -1 69 1 h12q4 0 16.5 0.5t23.5 0.5l11 1h20v-20l1 -11v-23v-16q2 -54 0 -212v-239q1 -60 1 -186q0 -32 2 -51v-95h-20q-5 0 -10.5 -0.5t-12 -1.5t-10.5 -1q-33 -3 -38 -3z" />
<glyph unicode="^" horiz-adv-x="245" d="M45 638l-12 -17l-33 24l12 17q67 95 67 103l34 2q0 -1 7.5 -11.5t17 -23.5t13.5 -19q14 -21 31 -54l9 -17l-34 -19l-10 17q0 1 -5.5 11t-13 22.5t-11.5 18.5q-1 2 -8 12t-11 16q-34 -54 -53 -82z" />
<glyph unicode="_" horiz-adv-x="442" d="M240 -37q-19 0 -28 2q-67 5 -192 5h-20v40h20q149 -3 196 -6q27 -3 83 3q38 2 61 2h20v-40h-20q-8 0 -18 -0.5t-22 -1.5t-19 -1q-57 -3 -61 -3z" />
<glyph unicode="`" horiz-adv-x="148" d="M96 636l-37 -15l-8 19q-17 44 -41 77l-10 17l33 22l10 -16q12 -17 23 -38.5t16.5 -34t5.5 -13.5z" />
<glyph unicode="a" horiz-adv-x="316" d="M104 -14q-22 0 -42 10q-28 13 -39 37t-15 57q-1 19 -1 55v35q0 10 -2 30t-2 27l-3 30q-1 25 1 75q0 6 1 16t1 16v6q2 67 15 101q17 44 48 62q24 15 64 7q26 -4 50 -27v4v20h72v-41h-33v-25.5v-29v-16.5v-9q1 -107 -3 -195q-2 -41 -2 -125v-76h6q4 0 11.5 -0.5t10.5 -0.5 h20v-39h-20q-17 0 -24 1q-4 0 -12 0.5t-13 0.5h-21v15l-7 -6q-23 -11 -51 -14h-3q-2 -1 -7 -1zM174 97v9q0 84 2 127q5 79 2 192v8l-4 19q-5 23 -19 39q-17 18 -33 21q-23 5 -35 -3q-22 -14 -32 -42q-12 -34 -12 -88v-7l-2 -33q-4 -42 0 -69q0 -5 0.5 -15t0.5 -15 q4 -25 4 -59q1 -12 1 -36q-1 -26 0 -51q6 -50 32 -61q16 -9 27 -7h3q17 2 28.5 6t21.5 15.5t13 29.5z" />
<glyph unicode="b" horiz-adv-x="308" d="M94 5l2 -14h-21q-21 0 -30 1h-45v41h20q4 0 13 -1t14 -1h8q-2 73 0 289q5 247 -3 409h-47v39h20q10 0 17 1q20 0 31 -1l17 -1l2 -17q5 -89 5 -215q11 10 34 14l3 1q43 9 68 -9q31 -22 43 -61q14 -41 12 -125v-40q0 -32 1 -48q4 -109 -2 -178q-10 -73 -53 -94 q-22 -11 -40 -11q-2 0 -5.5 1t-4.5 1h-2q-28 3 -50 15zM93 96l3 -20q3 -26 19 -36.5t41 -14.5h4q11 -2 26 6q25 12 29 62q5 59 3 173v49v41q2 74 -11 111q-8 28 -29 42q-13 8 -35 2h-3q-19 -6 -22 -10q-4 -6 -13 -30l-4 -14l-4 -11q0 -21 -0.5 -63t-0.5 -63q-3 -113 -3 -224 z" />
<glyph unicode="c" horiz-adv-x="257" d="M111 -17h-7q-14 0 -41 10q-53 28 -60 96q-5 52 -3 178q0 32 1 48q0 7 -0.5 20t-0.5 20q-2 84 13 125q16 42 43 61q25 18 69 9l2 -1q26 -4 41 -20v24h39v-29q2 -32 -9 -67l-38 2q-8 25 -20 42q-5 5 -22 10h-3q-23 6 -35 -2q-20 -13 -30 -42q-11 -33 -11 -111q2 -13 2 -41 q0 -8 -1 -24.5t-1 -24.5q-2 -114 3 -173q7 -48 39 -63q16 -8 25 -8l3 2q21 2 34 7q11 9 13 29l4 20l39 -7l-4 -19q-4 -39 -31 -55q-18 -11 -49 -15z" />
<glyph unicode="d" horiz-adv-x="308" d="M186 -9l-22 -1l1 17l-6 -4q-21 -13 -50 -16h-3q-2 -1 -9 -1q-14 0 -41 10q-44 22 -51 94q-4 32 -4 95q0 2 -0.5 7.5t-0.5 8.5q0 47 1 57q5 31 3 97q-6 79 10 125q15 41 45 63q27 20 67 7h2q26 -6 37 -15q0 22 0.5 52t0.5 57t0.5 51t1.5 39v16v19h19l6 1h13h15.5t14.5 -1 l20 -2l-4 -40l-20 2q-5 1 -25 1q0 -224 -3 -252q0 -31 -1 -47q-2 -126 -2 -192q0 -18 2 -52q3 -51 3 -53v-101q14 0 19 -2h35v-40h-37h-8.5h-12.5h-16zM153 489q-10 10 -11 12q-5 7 -23 10l-2 1q-23 6 -36 -2q-19 -13 -29 -43q-13 -36 -9 -109q4 -65 -1 -105q-4 -23 -1 -51 v-17q0 -50 4 -91q3 -49 28 -61q19 -8 27 -7h4q16 2 27 6t21 15.5t12 29.5l2 20v37q0 15 -2 49q0 6 -1 17.5t-1.5 21t-0.5 17.5q0 3 3 192q0 22 1 34q0 12 -12 24z" />
<glyph unicode="e" horiz-adv-x="257" d="M113 -17h-8q-16 0 -41 10q-54 26 -61 96q-5 51 -3 178q0 8 0.5 24t0.5 24q0 27 -1 40q0 84 13 125q15 41 43 61q26 18 69 9l2 -1q33 -9 45 -25q10 -13 19 -34q9 -29 11 -61q0 -5 2 -19q3 -12 3 -23q1 -12 1 -38q0 -25 -2 -57v-17l-19 -1q-25 -2 -76 1q-32 3 -70 0v-9 q-4 -106 2 -173q4 -46 38 -64q17 -7 25 -7l4 2q22 2 33 7q10 8 14 28l3 20l39 -6l-2 -19q-6 -39 -32 -55q-16 -11 -50 -15zM77 317q17 0 37 -2q23 -3 54 -2v15v14l1 5q-1 15 -1 37l-3 20l-4 22q-2 34 -8 50q-1 7 -13 25q-3 4 -22 10h-3q-22 6 -35 -2q-21 -14 -29 -42 q-14 -39 -10 -111v-41q30 2 36 2z" />
<glyph unicode="f" horiz-adv-x="269" d="M85 -9h-82v39h19h41q3 95 -7 475h-1q-24 0 -35 1h-20l1 41l21 -2q11 -1 34 -1q-1 13 -1 35q-1 15 -1 44q-1 10 1 45q1 3 1 7q4 47 23 68q31 36 101 29q9 -1 24 -1h21v-41h-21q-14 0 -27 3h-28t-22 -3.5t-18 -12.5q-11 -11 -13 -45v-8q-3 -20 -3 -40q0 -8 0.5 -22t0.5 -20 q2 -13 2 -37q25 0 38 2q14 0 37 0.5t33 0.5h21v-39h-21q-12 0 -37.5 -1.5t-31.5 -1.5q-7 0 -19 -0.5t-19 -0.5q9 -395 5 -474h64v-39h-19q-46 0 -62 -1z" />
<glyph unicode="g" horiz-adv-x="282" d="M111 -239q-55 0 -94 41l-13 15l29 27l14 -14q18 -20 46 -26t42 2q13 6 16 13q4 11 6 34q0 2 1 6t1 6q2 18 2 28q0 18 -2 44q0 3 -1 11t-1 11q-1 12 -1 36q-6 -2 -41 -11h-4q-2 -1 -7 -1q-17 0 -41 12q-53 24 -60 95q-5 51 -3 177v48v41q-2 84 12 124q19 45 44 63 q29 19 69 7h2q27 -7 39 -19v4l2 13h67l19 -1l-1 -40l-20 2h-26l-3 -42q0 -19 -2 -57q-4 -51 -4 -115v-260q0 -18 -1 -27v-47l2 -20q2 -14 2 -50q0 -1 -3 -31q0 -2 -0.5 -5.5t-0.5 -5.5q-4 -30 -10 -44q-8 -22 -36 -36q-22 -8 -40 -8zM140 501q-6 8 -22 10l-4 1q-22 6 -34 -2 q-20 -15 -30 -43q-13 -39 -11 -111q2 -13 2 -41q0 -8 -1 -24t-1 -24q-2 -116 3 -173q6 -49 38 -64q19 -9 26 -6h3q22 2 33 7q1 1 4 5t5 7l6 12v240q0 40 6 118q0 26 1 39l-1 12q-3 10 -23 37z" />
<glyph unicode="h" horiz-adv-x="337" d="M33 -9l-20 -3l-3 41l20 1q4 0 10 0.5t8 0.5q-1 132 2 295q4 269 -3 405q-6 0 -9 -1h-38v39h20q2 0 7.5 1t9.5 1h31l17 -2l2 -18q5 -118 5 -215q13 11 34 14h2q39 12 67 -9q30 -19 45 -61q14 -44 12 -125v-40q1 -81 -2 -176v-108h38v-40h-53q-10 -1 -37 -1h-20v39h32 q0 19 0.5 56t0.5 54q1 58 1 176v41q4 73 -10 111q-8 27 -29 43q-12 8 -35 1h-3q-17 -3 -22 -10q-4 -6 -13 -30l-8 -24q0 -21 -1 -61t-1 -60q-3 -245 -2 -296h34v-39h-46q-16 1 -43 0z" />
<glyph unicode="i" horiz-adv-x="176" d="M29 -9l-21 -1l-3 39l20 1q5 0 12.5 0.5t10.5 0.5q-1 138 3 217q2 153 -4 262q-6 0 -9 -1h-38v39h20q2 0 7.5 0.5t9.5 0.5h31l17 -1l2 -19q7 -134 3 -283q-3 -147 -2 -215h39v-40h-47q-23 1 -51 0zM89 649l-20 -2h-26l-18 2l-1 18v20l1 19h46l17 -1l1 -18v-38z" />
<glyph unicode="j" horiz-adv-x="282" d="M202 649l-20 -2h-26l-18 2l-2 18v20l2 19h45l18 -1l1 -18v-38zM114 -239h-1q-23 0 -59 15q-18 7 -37 26l-13 15l29 27l14 -16q10 -11 21 -15q26 -12 45 -12q12 0 22 5q13 6 16 13q4 11 6 34q7 57 7 172v67q1 35 -3 69q-4 29 -2 47v117q0 20 2 54q0 11 1 31t1 30 q0 1 -1 12t-2 27.5t-1 29.5l-49 -2v41h85l2 -19q0 -8 1.5 -29.5t3 -39t1.5 -20.5q0 -23 -2 -63l-3 -52v-47q1 -36 0 -71q0 -19 3 -42q3 -51 3 -73q-1 -23 -1 -67q0 -118 -6 -176q-4 -31 -10 -44q-8 -22 -36 -36q-19 -8 -37 -8z" />
<glyph unicode="k" d="M197 507l-20 -1l-4 39l20 3q32 1 56 0h46v-39h-35l-8 -14q-23 -31 -37 -61t-25 -49q-22 -35 -38 -57l-5 -8l1 -3q24 -35 71 -124l30 -57q39 -69 52 -105h42v-39h-19q-28 0 -40 -1q-5 0 -18.5 -0.5t-23.5 -0.5h-19v40h37q-19 39 -46 87q-7 12 -31 57q-29 59 -60 110 q-19 -33 -27 -51l-7 -15q0 -13 2 -50.5t2 -57.5q3 -78 3 -79h38v-40h-20q-5 0 -14.5 0.5t-12.5 0.5q-32 0 -53 -1l-20 -1l-2 39l19 1q10 1 25 1q-2 54 -2 78q-4 63 -4 145q0 75 1 106q1 20 1 62q-1 11 -1 33v185q0 1 -1 15.5t-2 36t-1 38.5h-47v39h66l19 2v-20q5 -43 5 -113 v-103q0 -13 1 -39.5t1 -40.5v-97q0 -8 -1 -25t-1 -26l29 43q31 46 37 56q3 6 8 15t9 16t7 14q12 30 31 58q-3 0 -7 -1t-7 -1z" />
<glyph unicode="l" horiz-adv-x="211" d="M29 -10l-20 -2l-4 41l20 1q5 0 19 0.5t23 0.5q-1 100 1 295q2 307 -2 404q-18 0 -25 -1h-41v39h21q2 0 8.5 0.5t9.5 0.5h46l19 -1v-18q8 -171 3 -424q-2 -196 -1 -295h5q12 -1 31 -1h21v-39h-52q-71 0 -82 -1z" />
<glyph unicode="m" horiz-adv-x="537" d="M28 -9l-20 -1l-4 39l21 1q9 1 23 1q0 5 1 16t1 16q0 58 -2 73q-3 25 -1 74q1 13 1 39v64q3 104 -1 196h-9q-4 0 -9.5 -1t-8.5 -1h-20v41h35q16 1 32 0l18 -1v-18q0 -1 1 -4t1 -5q19 22 51 30q38 8 64 -9q24 -13 43 -46q5 11 16 23q32 32 64 32q39 4 66 -15q26 -21 40 -55 q9 -23 16 -97q0 -6 0.5 -16t0.5 -14q2 -10 2 -44v-9q0 -96 -2 -143q0 -21 -0.5 -63t-0.5 -63q3 0 10 -0.5t12 -0.5l20 -1l-3 -39l-19 1h-46q-4 0 -15 -0.5t-18 -0.5h-21v40h41q0 21 0.5 64t0.5 65q1 45 1 141v9q0 27 -1 40q-1 10 -1 31q-7 66 -15 85q-7 23 -26 38 q-11 8 -42 8q-17 0 -34 -20q-15 -15 -20 -39l-5 -29q1 -8 1 -68q-1 -13 -1 -40v-57v-65.5v-54.5q-1 -36 -1 -107h39v-39h-20q-27 0 -39 -1q-5 0 -18.5 -0.5t-22.5 -0.5h-19v40h39q0 19 0.5 55.5t0.5 53.5q3 94 2 174v43q2 74 -12 109q-11 28 -34 44q-13 7 -36 2 q-18 -3 -32 -20q-16 -19 -21 -40l-3 -12v-190q0 -15 -2 -41q-4 -41 1 -66q3 -36 1 -80v-31h37v-39h-47q-31 0 -51 -1z" />
<glyph unicode="n" horiz-adv-x="354" d="M28 -10l-20 -2l-3 40l20 2h25v32q2 45 -2 74q-2 20 0 75q0 6 1 18.5t1 19.5v64q0 133 -3 196h-47v39h37q15 2 31 0l17 -1l2 -18v-7q24 24 51 28q38 8 65 -7q32 -21 50 -63q18 -44 14 -125v-40q0 -120 -1 -176q0 -17 -0.5 -54t-0.5 -55q2 0 9.5 0.5t11.5 0.5h19v-40h-19 q-28 0 -40 -1q-4 0 -18 -1t-24 -1h-19v41h40q0 75 2 110v53.5v65.5v57q0 28 1 41q2 76 -12 109q-9 24 -34 44q-12 7 -37 2q-17 -3 -31 -20q-18 -19 -22 -40l-3 -9v-41.5v-47.5v-40v-64q0 -7 -0.5 -21t-0.5 -20q-2 -50 0 -66q2 -14 2 -82q-1 -10 -1 -30h38v-39h-47 q-41 0 -52 -1z" />
<glyph unicode="o" horiz-adv-x="261" d="M114 -17q-14 0 -27 3l-3 1q-31 6 -45 25q-32 42 -38 143q-1 14 -1 86v114q0 49 10 95q3 8 3 21q7 48 34 66q16 11 49 15l4 1q24 2 48 -10q53 -26 60 -96q18 -186 3 -336q-8 -80 -56 -116q-17 -12 -41 -12zM107 514h-2l-3 -2q-25 -3 -33 -7q-14 -10 -15 -40q0 -2 -2 -11.5 t-4 -14.5q-9 -41 -9 -84v-114q0 -56 2 -85q4 -86 30 -121q5 -5 22 -10h4q15 -3 17 -3q11 0 17 6q35 23 41 87q14 153 -3 328q-6 48 -38 64q-16 7 -24 7z" />
<glyph unicode="p" horiz-adv-x="345" d="M34 -231l-20 -2l-4 39l20 3q4 0 11 0.5t10 0.5q0 19 0.5 42.5t0.5 40.5v19v5q-4 130 -4 188q0 42 6 118l2 39q1 18 -1 83q-1 19 -1 59v103q-15 0 -20 2h-34v39h35h38l21 1v-18l7 4q21 12 50 15h2q18 3 33 -3.5t20 -12t17 -19.5l6 -9q28 -35 31 -96q1 -59 -2 -130 q-1 -28 -1 -89q0 -87 -16 -136q-10 -34 -32.5 -53t-52.5 -19q-12 0 -24 3l-2 1q-30 7 -41 20q0 -43 3 -88v-7l-1 -43q-1 -43 -1 -59q6 -1 16 -1h20v-40h-43q-24 3 -49 0zM88 92l1 -20q0 -11 13 -21q1 -1 7 -6t8 -8q5 -7 22 -12h4q4 -1 13 -1q35 0 47 42q13 45 13 125 q0 1 3 91q2 85 1 127q-1 45 -22 72l-8 10q-11 15 -16 18.5t-15 1.5h-3q-55 -8 -60 -51l-3 -20v-36q0 -10 0.5 -29t0.5 -28q4 -58 2 -87q0 -1 -3 -40q-5 -63 -5 -115v-13z" />
<glyph unicode="q" horiz-adv-x="311" d="M149 -231h-21v40h37q-4 132 -4 192q-11 -7 -34 -13l-2 -1q-1 0 -10 -1.5t-13 -1.5q-29 0 -64 25q-27 18 -31 70l-3 17q-6 26 -4 87q1 15 1 40q0 65 2 97v89q0 25 0.5 37t5 34.5t16 37.5t30.5 25q27 14 50 9h2q36 -7 49 -16l8 -5v17h50q9 -1 25 -1h19v-40h-46q-6 0 -9 2 q0 -62 -1 -91q-3 -93 -3 -96q0 -9 1 -27t1 -28q0 -27 0.5 -83.5t0.5 -85.5q-2 -197 4 -288q2 0 7.5 0.5t9.5 0.5h19v-40h-56q-10 -2 -37 -2zM163 442l-2 19q-6 45 -59 51h-4q-7 3 -26 -6q-30 -14 -30 -96v-1v-28v-34v-29v-94q0 -7 -0.5 -21.5t-0.5 -21.5q-6 -46 1 -76 q1 -2 4 -21q4 -35 14 -42q32 -21 55 -16h3q18 6 22 12q10 12 13 30l4 12l4 10v8q1 39 -1 168v56q0 50 3 97v23z" />
<glyph unicode="r" horiz-adv-x="270" d="M76 -9h-51l-20 1l2 39h19q8 -1 22 -1v18q-2 62 -1 92q4 55 4 253q0 60 -1 74q0 3 -1 16l-2 26h-5q-2 0 -6.5 -0.5t-9 -0.5t-8.5 1h-19l1 40l20 -1h21h7.5h10h8.5l17 -1l1 -18q0 -8 3 -32q19 30 33 39q34 20 61.5 18.5t49.5 -17.5l17 -11l-22 -33l-17 12q-34 21 -66 -2 q-16 -10 -30 -37.5t-20 -52.5l-2 -13v-7q0 -83 -4 -255q-2 -21 0 -88v-19h38v-39h-20q-6 0 -16 -0.5t-14 -0.5z" />
<glyph unicode="s" horiz-adv-x="271" d="M42 0l-3 -20l-39 4l3 20v47l1 5q0 40 -1 48l39 6q4 -18 13 -38q22 -41 58 -48q23 -3 42 14q24 22 27 57t-10 60q-15 29 -27 44q-11 15 -14 19l-21 30q-7 10 -35 43l-17 18q-21 26 -33 57q-3 6 -3 8q-1 3 -2.5 8.5t-5 21t-5 29.5t0 30t6.5 27q22 50 67 60q43 11 86 -21 l7 -5v28h39v-40q-2 -32 3 -47l-38 -13q-9 26 -34.5 45.5t-53.5 13.5q-23 -3 -41 -38q-10 -21 8 -88l3 -4q10 -28 26 -45l17 -19q23 -25 38 -46l21 -30l13 -18q20 -30 30 -51q19 -41 14 -85q-4 -45 -40 -79q-33 -30 -75 -24q-34 6 -63 38q0 -4 -0.5 -11t-0.5 -11z" />
<glyph unicode="t" horiz-adv-x="232" d="M20 506h-20v41h20q3 0 11.5 -0.5t16.5 -0.5t16 1v117l-1 20l39 1l2 -19q2 -46 0 -118h86v-39h-21q-41 0 -65 -2q-2 -17 -2 -48v-177q-1 -19 -1 -55v-59q-2 -75 3 -121q1 -12 10 -15.5t42 -2.5h13l20 1l1 -40h-33q-2 0 -8.5 -1t-9.5 -1q-17 0 -37 5q-35 12 -39 52 q-5 68 -3 131q2 15 2 51v174q0 4 0.5 23.5t0.5 34.5q0 7 0.5 23t0.5 25q-18 -1 -44 -1z" />
<glyph unicode="u" horiz-adv-x="349" d="M142 -17q-20 0 -40 12q-34 20 -50 63q-16 38 -14 124v41v183q1 33 1 103h-4q-3 0 -8 -1t-7 -1h-20v41h33h8.5h10.5h10l18 -3v-17q0 -20 -0.5 -61.5t-0.5 -60.5q-2 -60 -2 -183q1 -7 1 -14t-0.5 -15.5t-0.5 -12.5q-2 -74 12 -109q13 -31 34 -43q11 -9 36 -3q20 5 32 20 q19 20 23 39l1 9q0 87 1 130v64q0 28 2 41q2 46 0 67q-5 32 -3 89v22h-37v41h59l17 -3v-60q0 -66 3 -84q2 -20 0 -75q0 -5 -0.5 -18t-0.5 -20v-65q0 -161 2 -192h47v-39h-21q-10 0 -15 -1h-17q-11 0 -15 1l-17 1l-1 17q0 1 -0.5 2.5t-0.5 3.5q-19 -22 -50 -29q-3 0 -12 -2 t-14 -2z" />
<glyph unicode="v" horiz-adv-x="362" d="M60 408l-22 99h-39v41h112v-39h-32q2 -11 10 -44t11 -51l4 -30q3 -30 9 -54q12 -51 30 -147q10 -60 17 -91l12 60q9 41 19 104l8 43q3 20 30 164l11 44h-33v41h56q10 1 37 1h21v-39h-41q-1 -6 -5.5 -25t-5.5 -29l-30 -165l-8 -42q-2 -11 -8.5 -47.5t-11.5 -57.5l-18 -92 l-16 -66h-35q-19 80 -38 190q-9 52 -31 145q-2 12 -5 32t-4 24z" />
<glyph unicode="w" horiz-adv-x="556" d="M519 548v-41h-39q0 -2 -3 -17l-1 -6q-11 -57 -19 -109l-2 -15l-17 -82q-11 -40 -13 -60q-7 -36 -11 -65q-4 -20 -13 -74q-5 -24 -14 -59q-1 -5 -4 -17t-4 -17h-37q0 1 -1.5 7.5t-4 17t-4.5 17.5q-22 72 -29 107l-9 43l-3 12q0 2 -2 8.5t-2 11.5l-3 11q0 4 -0.5 9.5 t-0.5 8.5q-1 3 -4 19q0 2 -0.5 4t-0.5 3l-8 57l-3 15l-7 40q0 1 -1 3t-1 4q0 -2 -0.5 -5t-0.5 -4q-5 -38 -21 -114l-7 -28l-13 -63l-8 -38l-32 -146l-37 1q-5 27 -7 35l-7 34q-2 11 -4.5 23.5t-5.5 26.5t-4 20l-6 37l-7 30q-2 21 -10 49t-12 52l-10 61q-4 30 -7 46l-9 55 l-3 8l-8 43h-39v40h20q26 0 35 1h58v-39h-33l7 -37l1 -8q8 -42 10 -56l8 -48q1 -4 4 -25.5t5 -33.5q4 -20 11 -48q11 -45 12 -54l6 -30q1 -13 7 -35l8 -44q3 14 10 52l8 36q5 21 13 63l7 29q2 12 6.5 34.5t8 41t6.5 35.5q5 55 22 107h38q13 -52 21 -104l8 -39v-2q0 -5 2 -15 l8 -57q0 -1 0.5 -3t0.5 -3l3 -19l4 -21q0 -6 1 -10q0 -2 1.5 -7.5t1.5 -6.5l4 -15l9 -43l17 -67l3 9q9 54 13 75q2 23 10 64q1 4 5.5 26t7.5 37l17 80l3 14q8 53 20 110l1 10q0 5 1 8h-34v39h113z" />
<glyph unicode="x" horiz-adv-x="356" d="M14 -9l-19 -1l-2 40h38q1 3 5.5 13t6.5 13q10 17 16 37q16 42 22 63l12 33q2 6 4.5 12.5t6 14t5.5 11.5q10 22 10 23l9 21l4 13v3l-7 22l-12 32q-3 5 -5 11.5t-4.5 13.5t-3.5 11q-3 11 -11 31l-8 21q-1 3 -4.5 10t-4.5 11q-8 22 -10 32q-5 9 -10 27h-38v40h21 q10 0 21.5 -0.5t14.5 -0.5h55v-41h-32l4 -12l12 -32l8 -20l9 -22q11 -29 11 -30l11 -36l6 -17q2 4 4.5 12.5t4.5 12.5l16 43q1 4 5 13q1 2 3 7.5t3 8.5q2 3 4 9t2 7q11 33 13 37l6 18v1h-33v40h20q26 0 36 1h56v-39h-37v-3q-4 -10 -4 -15l-8 -19l-11 -33l-6 -17l-8 -18 l-5 -12l-15 -42q-6 -17 -11 -29l-14 -35l14 -38q16 -38 30 -78q8 -22 13 -34q2 -4 5 -11.5t4 -11.5q4 -11 12 -26l13 -31l7 -13q0 -1 4 -13q3 0 10 0.5t11 0.5h19v-40h-53q-5 0 -16.5 -0.5t-20.5 -0.5h-20v40h27l-4 12l-13 26l-14 30q-3 12 -9 24l-12 34l-30 75l-8 -20 q-10 -24 -14 -35l-12 -33l-22 -63q-8 -24 -18 -45l-4 -5h9l20 1l1 -39l-20 -1h-71z" />
<glyph unicode="y" horiz-adv-x="356" d="M39 507h-39v41h113v-41h-33q10 -39 18 -92q2 -6 3.5 -17t2.5 -13q3 -27 9 -53q11 -47 30 -147q2 -16 10 -62q5 -31 6 -34q0 3 1 5l3 15q3 14 9 44q7 34 19 104l8 42q4 24 9 51.5t11.5 61.5t9.5 52l8 43h-31v41h56q3 0 14.5 0.5t22.5 0.5h19v-40h-39q-7 -28 -10 -53 q-7 -30 -17.5 -87t-14.5 -77q-1 -8 -3 -23t-3 -19l-20 -105l-9 -44l-3 -14l-9 -39q-6 -22 -9 -41l-5 -28q-7 -39 -10 -54l-2 -9q0 -4 -3 -10l-12 -65q-4 -18 -5 -32h32v-40h-20q-8 0 -20 -0.5t-17 -0.5q-10 -1 -36 -1h-21v39h40q2 8 4.5 22.5t3.5 19.5q9 49 13 67l3 9 q0 2 0.5 5.5t0.5 4.5q6 24 9 50v6l-1 10q-6 29 -21 117l-10 60q-30 140 -31 145q-2 9 -3.5 18.5t-3 21t-2.5 17.5q-2 21 -5 30q-8 53 -20 98z" />
<glyph unicode="z" horiz-adv-x="325" d="M269 547v-44l-24 -52q-36 -90 -81 -190q-12 -25 -85 -159l-16 -29l-7 -14l-14 -29q10 1 30 1q114 0 129 -1q10 0 17 -1h19v29l-1 21l41 1v-20v-52v-18l-19 -2q-29 0 -43 2q-4 0 -9.5 0.5t-7.5 0.5q-6 0 -62 0.5t-64 0.5l-60 -4h-13v43l21 45q6 10 6 13q1 3 19 33 q57 98 83 156q26 56 80 187q15 32 19 44q-30 0 -49 -2q-46 -2 -71 -2q-6 0 -16.5 0.5t-15.5 0.5q-7 1 -16 1v-46h-39v20v9q-1 8 -1.5 19t-0.5 18v20h59q10 -2 30 -2q11 0 34.5 1t35.5 1q59 3 83 1z" />
<glyph unicode="{" horiz-adv-x="307" d="M236 -55h-41q-31 0 -53 21q-53 49 -71 134q-10 51 -12 133v27q-1 33 -8 53.5t-17.5 28t-17.5 9.5t-16 2v40q24 0 38 12q19 20 16 92v35q4 97 26 152l5 16q19 45 34 67q29 32 93 32h21v-39h-21q-26 0 -38.5 -3.5t-22.5 -16.5q-12 -13 -28 -55q-6 -14 -6 -17 q-19 -46 -23 -137q-1 -5 -1 -16v-17q8 -85 -26 -121l-8 -5q13 -12 22 -29q16 -30 17 -82q0 -17 2 -26q0 -81 10 -128q7 -32 23.5 -63.5t35.5 -48.5q12 -12 35 -9h32v-41z" />
<glyph unicode="|" horiz-adv-x="109" d="M43 -75h-39v20q0 16 -0.5 47.5t-0.5 46.5q-3 66 -3 131v224q0 42 3 101q2 62 2 75q2 52 -2 125q-3 47 -3 111v21h41v-21q0 -48 2 -110q3 -55 3 -127q0 -6 -1 -32t-2 -43q-2 -78 -2 -100v-224q0 -87 1 -129q0 -16 0.5 -47.5t0.5 -48.5v-20z" />
<glyph unicode="}" horiz-adv-x="309" d="M45 -56h-10q-1 0 -5 0.5t-4 -0.5h-21v40h32h6h7h6q22 6 53 61q15 31 21 62q8 39 10 128v26q0 46 17 82q9 19 20 28q-1 2 -7 6q-5 5 -9 11.5t-7 14t-5 13t-3.5 15t-2 14t-1 15t-0.5 13.5v13.5v11.5q1 8 1 18q-1 6 -1 15l-4 60q-5 35 -17 80l-4 13q-1 3 -2.5 8.5t-2.5 9 t-3 6.5l-12 13q-7 11 -14 19q-10 12 -23.5 15.5t-39.5 3.5h-20v39l20 1q64 0 93 -32q1 -2 17 -21q1 -2 9 -13q7 -9 17 -40q0 -7 3 -10q11 -37 18 -87q1 -11 4 -63q0 -3 0.5 -8t0.5 -7v-21q-3 -70 17 -92q13 -13 37 -12l1 -40q-9 0 -15.5 -2t-17.5 -9.5t-17 -28t-7 -52.5v-26 q-4 -102 -11 -134q-6 -36 -25 -73q-37 -75 -80 -83q-3 0 -9.5 -0.5t-9.5 -0.5z" />
<glyph unicode="~" horiz-adv-x="329" d="M199 350q-23 0 -46 13q-5 3 -15.5 10.5t-12.5 9.5q-28 21 -41 25.5t-25 -4.5q-12 -12 -16 -29l-2 -20l-40 7l3 19q6 30 27 52q32 25 66 13q23 -9 51 -31q2 -2 25 -18q20 -11 37 -5q17 8 19 34l3 20l39 -4l-1 -20q-7 -49 -45 -67q-11 -5 -26 -5z" />
<glyph unicode="&#xa1;" horiz-adv-x="121" d="M56 -83h-39v20q0 48 -8 144q-9 134 -6 189q0 5 2 49t2 69q0 17 -4 59q-3 30 -3 60v20h39v-20q0 -10 2 -29t2 -27q3 -32 3 -64q0 -67 -3 -118q-2 -71 7 -185q1 -16 2.5 -46.5t2.5 -55t1 -45.5v-20zM38 678v-59h-39v59h39z" />
<glyph unicode="&#xa2;" horiz-adv-x="334" d="M161 -144l-39 -4l-4 31q-7 79 -7 107q-12 3 -23 9q-25 10 -50 42q-16 19 -23.5 46.5t-8.5 44t-1 50.5q3 18 0 36q0 9 -0.5 27t-0.5 28q-6 87 -1 142q1 37 -2 84q-1 15 -1 46q-1 61 20 117q18 53 60 82q11 9 37 15q0 15 -1 45.5t-1 46.5l-1 19l41 2v-20q0 -16 0.5 -47.5 t0.5 -46.5l13 -3h4q40 -10 59 -32v32h39v-96q-1 -5 -1 -14l-38 -7q-16 40 -31 61q-9 11 -37 17l-4 1h-3q1 -40 -2 -431v-47q-3 -107 -3 -214q41 7 50 13q19 13 25 45l2 19l40 -6l-3 -20q-10 -49 -43 -72q-21 -14 -66 -18h-5q0 -43 7 -99zM114 239l1 48q3 249 2 431 q-4 -1 -15 -6q-28 -19 -46 -63q-17 -56 -17 -102q0 -8 1 -23.5t1 -22.5q3 -73 1 -88q-3 -46 1 -139l3 -55v-38v-42t5 -39t17 -34q17 -21 37 -32l6 -3q3 105 3 208z" />
<glyph unicode="&#xa3;" horiz-adv-x="389" d="M204 343l-2 -40l-20 2q-50 3 -69 0q-2 0 -5.5 -0.5t-5.5 -0.5q3 -57 5 -176q0 -1 1 -5.5t1 -7.5q2 -56 -11 -85q7 0 11 1q8 0 12 2q18 2 30 1q25 -1 82 -1q5 0 19.5 -1t22.5 -1q16 -1 46 -1v15v18v16v19l39 2l2 -20v-89l-20 -1q-7 0 -30.5 0.5t-37.5 0.5q-16 1 -41 1 q-47 0 -84 3q-3 0 -11 -1t-12 -1l-15 -2q-18 -1 -48 -1h-53v39h20q17 0 26 9q15 15 12 76v14q-2 119 -5 176h-63v39h20h19h15h8l-4 62q-10 0 -40 3l-19 1l2 41l20 -2q34 -2 35 -2q-1 21 -1 61v38q-1 58 20 117q18 53 60 82q31 22 89 11l4 -1q40 -8 59 -31v31h39v-95 q-1 -5 -1 -15l-38 -7q-15 41 -30 60q-8 10 -38 19h-4q-36 10 -58 -4q-29 -21 -44 -63q-19 -53 -19 -102q0 -27 2 -38v-63q26 0 40 1q19 1 47 1h20v-39h-20q-4 0 -19.5 -0.5t-24.5 -0.5q-24 -3 -42 -3l4 -60h9q33 2 75 0z" />
<glyph unicode="&#xa4;" horiz-adv-x="359" d="M43 143l-12 -16l-31 24l12 15l21 28q2 5 6 9q5 2 9 13q-14 20 -23 46q-18 48 -13 109q2 46 25 85q4 10 9 15l-3 3q-20 22 -34 49l-8 18l36 16l9 -17q9 -21 26 -38l1 -3q32 23 76 23q45 0 83 -27q14 24 22 32q6 4 12 14l9 17l34 -19l-9 -17q-7 -14 -17 -24t-22 -29l6 -8 q50 -73 25 -187q-8 -35 -29 -59l10 -18q7 -7 13 -15l12 -13l13 -14l-29 -28l-13 15q-9 9 -15 17l-10 11q-6 6 -12 17q-19 -13 -47 -19q-16 -3 -29 -3q-27 0 -55 11q-13 3 -22 11l-11 -13q-2 -1 -4 -4zM149 481q-53 0 -78 -43q-18 -33 -20 -70q-3 -49 12.5 -94t53.5 -62 q18 -8 39 -8q4 0 11.5 1.5t9.5 1.5q28 6 49 26.5t27 48.5q21 101 -18 157q-31 42 -86 42z" />
<glyph unicode="&#xa5;" horiz-adv-x="412" d="M127 751v-41h-40l7 -27q2 -5 6.5 -19t6.5 -19l16 -51l20 -70l42 -136l33 107q0 1 13 33q9 25 10 29q6 15 19 66q13 50 17 61l7 28h-23l-20 1l1 39h20q26 -1 51 -1q4 0 15.5 0.5t20.5 0.5h19v-40h-42l-11 -40q-9 -26 -16 -60q-3 -9 -9.5 -32t-10.5 -36q-1 -5 -12 -30 l-11 -30l-38 -126h2q38 2 47 2h20v-40h-20q-27 0 -44 -2q-7 -1 -17 -1v-59q31 0 63 -1l19 -1l-2 -41l-20 1q-47 3 -60 2q0 -5 0.5 -15t0.5 -14q1 -45 1 -134v-10v-14h41v-39h-20q-10 0 -24 -0.5t-19 -0.5q-12 -1 -44 -1h-20v39h46q0 12 1 18v8q0 21 -0.5 66t-0.5 66 q0 5 -1 14.5t-1 14.5h-82v40h69q1 0 5 0.5t7 0.5v60q-30 0 -63 3l-19 1l2 39l20 -1q25 -3 48 -3l-48 156q-8 25 -20 71l-16 49l-13 40l-8 28l-5 13h-22l-20 -1l-1 40h20h55q12 -1 32 -1h20z" />
<glyph unicode="&#xa6;" horiz-adv-x="111" d="M46 -55v-20h-41v20q0 40 -2 96q-3 48 -3 110q0 5 1 26t2 35q2 54 2 76l2 20h39v-20l-4 -77q0 -14 -0.5 -34.5t-0.5 -25.5q-2 -45 2 -109q3 -42 3 -97zM46 464v-20h-41v82q-2 87 2 132v55v20l-3 35q-1 12 -1 39v20h39v-20q0 -5 0.5 -17t0.5 -19q3 -18 3 -38v-19 q2 -30 0 -59q-5 -50 -1 -128q0 -11 0.5 -32t0.5 -31z" />
<glyph unicode="&#xa7;" horiz-adv-x="258" d="M42 3l-3 -20l-39 4l3 20v40l1 4q0 33 -1 39l39 7q8 -26 10 -31q9 -15 24 -27.5t25 -13.5q19 0 35 13q9 8 11 10t5 6.5t4 8t1 9.5q3 38 -8 60q-15 32 -55 79q-6 7 -17 21.5t-17 21.5l-4 6q-28 36 -36 58q0 1 -4 15l-4 12q-29 75 60 152l12 10l-24 33l-4 5q-29 39 -36 59 q0 1 -4 15l-4 11q-16 39 4 80q18 38 59 49q42 8 76 -19q1 0 2 -1v21h40v-37q-4 -23 1 -38l-37 -14q-7 21 -29 37.5t-45 11.5q-21 -4 -32 -27q-11 -24 -3 -48q2 -3 3.5 -9.5t2.5 -7.5l4 -11q6 -17 30 -47l4 -5l33 -42q41 -47 60 -87q23 -45 8 -90q-12 -36 -50 -68l-13 -12 l-17 -16l12 -13q40 -46 60 -86q14 -29 12 -82q-1 -21 -9 -33t-27 -28q-27 -25 -63 -22q-27 1 -56 30v-13zM89 282l15 13l13 13q62 52 32 110q-14 30 -39 59l-12 -10q-67 -58 -50 -108q2 -3 3.5 -9.5t2.5 -7.5l4 -10q5 -17 30 -48z" />
<glyph unicode="&#xa8;" horiz-adv-x="235" d="M182 623l-19 -2h-27l-18 2l-1 18v20l1 19h46l17 -1l1 -18v-38zM64 641v-20h-46l-17 2l-1 18v38l18 1h28l18 -1v-18v-20z" />
<glyph unicode="&#xa9;" horiz-adv-x="418" d="M189 326h-12q-49 0 -90 24q-64 39 -80 121q-14 61 1 141q13 57 46 102q46 63 127 63q48 0 93 -25q47 -27 68 -72q52 -98 0 -241q-18 -48 -59.5 -78t-93.5 -35zM181 738q-60 0 -94 -47q-27 -35 -40 -87q-7 -41 -7 -81.5t17 -79.5t50 -58q38 -22 79 -19q40 3 72 26.5 t46 60.5q19 53 22 104.5t-19 105.5q-17 34 -52 54.5t-74 20.5zM180 398h-8q-12 0 -28 6q-17 7 -27 17q-20 18 -20 60v12q0 13 -1 18v53v27q-2 5 -2 17q0 26 11 47q9 21 34 36q17 9 47 4h1q20 -5 25 -8v12h40v-23q0 -22 -11 -43l-37 1q-3 10 -10 17q-4 3 -13 4h-1 q-17 4 -23 0q-11 -6 -15 -17q-8 -13 -8 -30q0 -2 0.5 -6.5t0.5 -7.5v-33q-1 -15 1 -47q0 -13 2 -20v-14q-3 -21 6 -30q7 -7 13 -8q11 -4 16 -4l3 1q15 0 21 3q1 1 3 4l2 2l4 20l39 -8l-5 -20q-2 -21 -26 -34q-4 -2 -34 -8z" />
<glyph unicode="&#xaa;" horiz-adv-x="254" d="M215 393v-40l-76 1l-1 6q-25 -13 -44 -13h-5q-6 0 -30 4q-50 13 -56 49q-5 22 -3 77q0 2 0.5 8.5t0.5 9.5q0 11 -1 16q0 40 13 60q12 18 39 29q25 9 53 3h4q20 -3 22 -4q0 5 1 8q4 49 -6 77q-6 15 -20 28q-8 4 -14 2q-17 0 -25 -1q0 -1 -2 -2q-1 -2 -2 -3q-9 -9 -17 -28 l-37 16q13 26 24 38q10 13 22 16q15 5 35 5h2q20 0 36 -11q26 -18 36 -47q10 -28 8 -93q0 -3 -1 -10.5t-1 -11.5q0 -101 6 -189h39zM126 560l-21 4h-5q-26 2 -33 -2q-18 -7 -21 -14q-8 -10 -5 -34v-20q0 -13 -2 -20q0 -50 3 -66q0 -13 26 -17q15 -5 24 -3q9 0 23 6.5 t17 15.5l2 5q-3 46 -3 141z" />
<glyph unicode="&#xab;" horiz-adv-x="307" d="M143 298l-28 -29l-14 14q-13 13 -43 47t-32 37l-1 26l44 54l32 31l14 13l28 -27l-43 -43l-33 -40q61 -68 63 -70zM246 312l-25 -30l-15 13q-15 13 -44.5 41.5t-30.5 30.5l-1 27q4 8 44 45q3 3 11 9.5t14 12t7 6.5l15 13l25 -32l-14 -13q-12 -7 -30 -25q-9 -7 -29 -29 q39 -40 59 -56z" />
<glyph unicode="&#xac;" horiz-adv-x="380" d="M318 326v-19h-40v19q0 15 2 41q0 8 1 23.5t1 22.5h-33h-19.5h-23h-19.5q-49 3 -112 1h-75v39h21q35 0 52 2q92 0 117 -2q20 -1 58 -1q26 1 53 0h16l3 -17q2 -23 0 -71q-2 -13 -2 -38z" />
<glyph unicode="&#xad;" horiz-adv-x="363" d="M278 401l20 1l3 -39l-19 -1q-74 -8 -185 -4q-52 2 -77 2h-20v40h20q13 0 39 -1t39 -1q109 -4 180 3z" />
<glyph unicode="&#xae;" horiz-adv-x="418" d="M183 325q-35 0 -68 14q-67 29 -97 108q-23 69 -17 140q5 58 32 109q20 38 57.5 59.5t83.5 21.5q44 0 84.5 -20.5t65.5 -55.5q27 -39 35.5 -93.5t5 -86.5t-9.5 -60q-11 -49 -48 -85.5t-88 -46.5q-16 -4 -36 -4zM174 737q-74 0 -106 -61q-24 -44 -27 -91q-5 -68 16 -128 t73 -81q28 -10 53 -10q10 0 28 2q39 8 68 36t37 67q13 43 7.5 105.5t-32.5 102.5q-19 26 -50.5 42t-66.5 16zM125 519h-19v39l19 2q-3 42 0 72q0 4 0.5 11.5t0.5 11.5h-19v40h36q18 0 25 -2q19 -1 40 -10q37 -18 46.5 -53.5t-4.5 -60.5q-8 -21 -29 -36l-9 -5q15 -23 29 -47 v-1l12 -21h22v-41h-46l-6 11l-5 9q-1 2 -4.5 9.5t-6.5 12.5l-1 1q-7 13 -13.5 24t-10.5 16.5t-7 9t-5 5.5l-2 2h-3v-10.5t0.5 -9t0.5 -6.5v-5v-2v-26h19v-41h-78v39h19v27v2v5t-0.5 7t-0.5 9.5v11.5zM165 629q-1 -17 -1 -69h18q8 2 9 2l7 4q9 6 16 17q15 44 -24 64 q-12 6 -24 7q-1 -9 -1 -25z" />
<glyph unicode="&#xaf;" horiz-adv-x="329" d="M163 672q-49 0 -71 2h-92v39h208q15 1 46 1h20v-39h-20q-8 0 -22.5 -0.5t-21.5 -0.5q-8 0 -24 -1t-23 -1z" />
<glyph unicode="&#xb0;" horiz-adv-x="214" d="M98 587h-1q-45 0 -72 29q-25 26 -25 72q-1 56 37 79q14 9 34 9q29 0 51 -16q18 -12 26.5 -28.5t10 -28.5t1.5 -35v-2q1 -28 -15.5 -53t-46.5 -26zM71 737q-7 0 -15 -4q-17 -13 -17 -44q0 -60 58 -63q11 1 17.5 14.5t6.5 25.5v2q0 27 -3.5 38.5t-17.5 20.5q-13 10 -29 10z " />
<glyph unicode="&#xb1;" horiz-adv-x="332" d="M156 291v-20h-41v65q-1 14 -1 44v7q-27 1 -83 1h-31v39h31q54 0 83 -1v25q1 22 1 69v20h40v-117q9 0 26 1t25 1q14 1 43 1h21v-39h-21q-7 0 -21 -1t-21 -1t-20 -0.5t-19 -0.5h-15v-4q0 -7 1 -21.5t1 -21.5t0.5 -22.5t0.5 -23.5zM160 191h-71q-11 0 -34.5 1t-34.5 1h-20 v39h89q24 -1 71 -1q7 0 21.5 0.5t21.5 0.5t22.5 0.5t23.5 0.5h20v-40h-65q-14 -2 -44 -2z" />
<glyph unicode="&#xb2;" horiz-adv-x="231" d="M34 353q-2 0 -7 0.5t-7 0.5h-19v20q0 20 4 52l4 16q3 6 3 8q1 7 13 35l12 22l8 15l11 21q7 10 16 30q4 9 11.5 24.5t10.5 22.5l8 13q9 15 16 33q4 11 4 25v4q-1 9 -3 11l-1 2q-2 5 -5 5q-11 7 -20 7q-15 2 -31 0q-9 -3 -14 -8l-5 -10q-1 -3 -1 -15l-1 -21l-40 1v20 q0 10 4 26q4 12 12 24q18 18 39 22q16 1 40 0q17 0 38 -12q6 -3 15 -16l2 -1q10 -13 10 -33v-5q2 -16 -5 -39q-4 -13 -18 -38l-8 -15q-17 -29 -20 -40q-9 -23 -20 -37q-5 -12 -10 -18q-5 -12 -9 -17l-9 -19q-8 -14 -12 -30q0 -2 -0.5 -3.5t-1.5 -3t-1 -2.5q-2 -8 -2 -13 l-4 -24h14q8 1 26 1h53v7l-2 21l41 1v-19q1 -15 0 -25q0 -4 -1 -7l-2 -17h-17q-27 -1 -55 0h-17q-5 0 -13 -0.5t-12 -0.5q-3 0 -10.5 -0.5t-11.5 -0.5z" />
<glyph unicode="&#xb3;" horiz-adv-x="232" d="M77 579q-9 3 -13 7v34q5 6 20 21q8 8 10 16l8 11l11 20q8 16 13 22h-7q-2 0 -7 -0.5t-8 -0.5q-30 -1 -59 0v-24h-41v65l21 -2q48 -1 77 0q4 2 15 2q43 2 56 -2l3 -1v-37q-9 -6 -28 -40l-13 -24q-3 -2 -5 -9q-2 -2 -4.5 -7t-5.5 -9t-7 -8t-6 -5q52 -27 62 -72q1 -5 5 -18 q6 -24 8 -34.5t0.5 -31t-9.5 -39.5l-4 -9q-7 -17 -13 -27t-23 -20.5t-41 -10.5h-12q-54 3 -72 43l-8 17l37 17l8 -18q4 -11 11.5 -14t26.5 -6h1q23 -1 31 6t17 28l4 10q14 29 -1 78l-4 20q-8 30 -54 52z" />
<glyph unicode="&#xb4;" horiz-adv-x="147" d="M45 638l-10 -17l-35 19l9 17q11 23 20 35q2 8 12 21q1 4 5 12.5t5 11.5l5 18l38 -13l-6 -19q-2 -5 -13 -28l-12 -23q-7 -10 -18 -34z" />
<glyph unicode="&#xb6;" horiz-adv-x="438" d="M387 754h19v-41h-19h-25h-24v-1v-3q0 -54 -1 -81v-72v-217q0 -24 2 -74q3 -37 3 -79q0 -38 -3 -79q0 -14 -0.5 -44t-0.5 -45v-25l-39 -1v25q-1 33 1 92q1 25 1 77q0 13 -0.5 39t-0.5 38q-2 50 -2 75q0 34 -1 107t-1 111q0 13 1 37.5t1 35.5q0 13 0.5 40t0.5 40v3v1h-41 q0 -20 -4 -62q-2 -42 -2 -65q-1 -11 2 -96q3 -41 3 -86v-218q0 -48 1 -72v-81v-2v-14v-25l-39 1v25v13v2q0 54 -1 80v73v102q-90 0 -118 19q-26 17 -50 51t-34 67q-22 78 -11 149q18 93 95 144q33 22 81 32q34 4 58 4q4 -1 25 -1t53 0.5t45 0.5h25z" />
<glyph unicode="&#xb7;" horiz-adv-x="126" d="M0 370v39h64v-58h-63z" />
<glyph unicode="&#xb8;" horiz-adv-x="173" d="M22 -163h-22l1 41h20q20 -2 31 3q20 8 21 22q0 12 -4 17q-10 16 -49 11l-20 28q18 37 20 38q15 20 17 24l9 17l35 -18l-9 -17q-11 -23 -21 -29q0 -1 -1 -2v-2q37 -6 51 -26q14 -18 12 -46q-5 -41 -49 -55q-18 -6 -42 -6z" />
<glyph unicode="&#xb9;" horiz-adv-x="218" d="M98 351q-5 0 -17 1t-19 1q-15 0 -23 1h-19l1 40l20 -1q15 0 23 -1q2 0 7 -0.5t8 -0.5v36q0 8 2 24q0 3 1 9t1 9v19q-2 7 -2 23q3 62 2 113v56l-2 -1l-10 -16q-16 -26 -29 -40l-14 -14l-28 29l14 15q13 13 23 30l11 18l4 7q7 7 17 22.5t11 23.5h41q1 -25 1 -76v-53 q2 -59 0 -114v-43q0 -4 -0.5 -11.5t-0.5 -10.5q-3 -10 -3 -19v-35h7h11h13h11h20l-2 -39h-52q-7 -2 -21 -2h-7z" />
<glyph unicode="&#xba;" horiz-adv-x="239" d="M97 338q-10 0 -22 3h-2q-25 4 -39 19q-29 34 -33 105q-1 23 -1 63v81q0 35 9 69l3 14q3 37 30 52q5 3 12.5 5t16.5 3.5t12 2.5h2q19 2 41 -8q22 -9 36.5 -28.5t15.5 -43.5q15 -126 3 -240q-6 -61 -49 -88q-18 -9 -35 -9zM92 716h-4q-25 -6 -26 -7q-10 -5 -11 -22 q-2 -17 -4 -21q-8 -30 -8 -57v-81q0 -40 2 -60q2 -58 23 -81q3 -3 17 -7h2q5 -1 14 -1q10 0 14 2q26 15 31 58q10 103 -3 231q-2 30 -29 40q-9 6 -18 6z" />
<glyph unicode="&#xbb;" horiz-adv-x="333" d="M147 283l-15 -14l-28 27l14 15q27 28 37 39q3 4 26 31q-24 30 -63 69l-14 14l28 27l13 -13q13 -12 25 -25t21 -23t16 -18.5t11 -13.5l5 -6l-2 -24l-36 -46zM42 295l-16 -13l-26 30l16 13q27 24 36 33l23 23q-22 24 -59 55l-16 12l26 32l15 -13q20 -16 38.5 -34t28 -28 t10.5 -12l-1 -26q-1 0 -8 -8t-16.5 -17.5t-13.5 -12.5z" />
<glyph unicode="&#xbc;" horiz-adv-x="602" d="M85 351q-5 0 -17 1t-19 1q-15 0 -23 1h-19l1 40l20 -1q15 0 23 -1q2 0 7 -0.5t8 -0.5v36q0 8 2 24q0 3 1 9t1 9v19q-2 7 -2 23q3 62 2 113v56l-2 -1l-10 -16q-16 -26 -29 -40l-14 -14l-28 29l14 15q13 13 23 30l11 18l4 7q7 7 17 22.5t11 23.5h41q1 -25 1 -76v-53 q2 -59 0 -114v-43q0 -4 -0.5 -11.5t-0.5 -10.5q-3 -10 -3 -19v-35h7h35h20l-2 -39h-52q-7 -2 -21 -2h-7zM371 149h-12v37l25 45q12 22 17 29l26 48q4 7 7 14l4 8q2 3 6.5 12.5t11 21.5t13.5 24l3 4h34l1 -15q1 -41 1 -121q0 -38 -4 -70h31v-39h-32q-1 -4 -1 -15 q-1 -28 2 -65q3 -28 3 -55v-20h-41v20q0 16 -2 52q-2 54 -1 71v12q-41 -3 -92 2zM405 186h60q0 8 1 22.5t1.5 26t0.5 21.5v45l-5 -11l-28 -50l-16 -29zM58 -56l-10 -17l-35 19l10 17q89 158 210 355q10 17 59.5 97.5t78.5 129.5q85 148 128 265l7 18l38 -13l-7 -18 q-54 -146 -132 -271q-65 -113 -138 -228q-135 -223 -209 -354z" />
<glyph unicode="&#xbd;" horiz-adv-x="630" d="M88 351q-5 0 -17 1t-19 1q-15 0 -23 1h-19l1 40l20 -1q15 0 23 -1q2 0 7 -0.5t8 -0.5v36q0 8 2 24q0 3 1 9t1 9v19q-2 7 -2 23q3 62 2 113v56l-2 -1l-10 -16q-16 -26 -29 -40l-14 -14l-28 29l14 15q13 13 23 30l11 18l4 7q7 7 17 22.5t11 23.5h41q1 -25 1 -76v-53 q2 -59 0 -114v-43q0 -4 -0.5 -11.5t-0.5 -10.5q-3 -10 -3 -19v-35h7h35h20l-2 -39h-52q-7 -2 -21 -2h-7zM61 -56l-10 -17l-35 19l10 17q89 158 210 355q10 17 59.5 97.5t78.5 129.5q85 148 128 265l7 18l38 -13l-7 -18q-54 -146 -132 -271q-65 -113 -138 -228 q-135 -223 -209 -354zM435 -10q-3 0 -7 0.5t-7 0.5h-19v19q0 21 4 53l4 16q3 6 3 8q1 7 13 35l12 22l8 15l11 21q7 10 16 30q4 9 11.5 24.5t10.5 22.5l8 13q8 12 16 33q4 11 4 25v4q-1 9 -3 11l-1 2q-3 5 -5 5q-9 6 -20 6q-15 3 -31 0q-8 -1 -14 -7l-5 -10q-1 -3 -1 -15 l-1 -21l-40 1v20q0 10 4 26q4 12 12 24q18 18 39 22q16 1 40 0q17 0 38 -12q7 -3 15 -16l2 -1q10 -13 10 -33v-5q2 -16 -5 -39q-4 -13 -18 -38l-8 -15q-17 -29 -20 -40q-8 -22 -20 -37q-5 -12 -10 -18q-5 -12 -9 -17l-9 -19q-8 -14 -12 -30q0 -3 -3 -9q-2 -8 -2 -13l-4 -24 h14q8 1 26 1h53v7l-2 21l41 1v-19q1 -15 0 -25q0 -4 -1 -7l-2 -17h-17q-28 -1 -55 0h-17q-5 0 -13 -0.5t-12 -0.5q-3 0 -10.5 -0.5t-11.5 -0.5z" />
<glyph unicode="&#xbe;" horiz-adv-x="607" d="M376 149h-12v37l25 45q12 22 17 29l26 48q4 7 7 14l4 8q2 3 6.5 12.5t11 21.5t13.5 24l3 4h34l1 -15q1 -41 1 -121q0 -38 -4 -70h31v-39h-32q-1 -4 -1 -15q-1 -28 2 -65q3 -29 3 -55v-20h-41v20q0 16 -2 52q-2 54 -1 71v12q-41 -3 -92 2zM410 186q2 -1 30.5 -0.5 t29.5 0.5q0 8 1 22.5t1.5 26t0.5 21.5v45l-5 -11l-28 -50l-16 -29zM63 -56l-10 -17l-35 19l10 17q89 158 210 355q10 17 59.5 97.5t78.5 129.5q85 148 128 265l7 18l38 -13l-7 -18q-54 -146 -132 -271q-65 -113 -138 -228q-135 -223 -209 -354zM72 579q-9 3 -13 7v34 q6 6 20 21q8 8 10 16l8 11l11 20q8 16 13 22h-7q-2 0 -7 -0.5t-8 -0.5q-29 -1 -59 0v-24h-41v65l21 -2q48 -1 77 0q4 2 15 2q43 2 56 -2l3 -1v-37q-9 -6 -28 -40l-13 -24q-3 -2 -5 -9q-2 -2 -4.5 -7t-5.5 -9t-7 -8t-6 -5q52 -27 62 -72q1 -5 5 -18q6 -24 8 -34.5t0.5 -31 t-9.5 -39.5l-4 -9q-7 -17 -13 -27t-23 -20.5t-41 -10.5h-12q-54 3 -72 43l-8 17l37 17l8 -18q4 -11 11.5 -14t26.5 -6h1q23 -1 31 6t17 28l4 10q14 29 -1 78l-4 20q-8 30 -54 52z" />
<glyph unicode="&#xbf;" horiz-adv-x="311" d="M126 -89h-1q-69 0 -104 69q-16 34 -20 109v17l-1 4q0 36 5 51q15 47 20 57q22 47 62 98q15 19 19.5 35t6.5 46q0 37 -2 56q-1 20 -1 58v20h41l-2 -20q0 -9 1 -27.5t1 -27.5q2 -41 1 -60q-1 -64 -35 -105q-33 -41 -55 -89q-14 -32 -19 -53q-5 -14 -2 -38v-21q2 -64 17 -91 q20 -47 67 -47h1q27 0 55 30q31 33 31 65l-1 20l39 2l2 -21q2 -47 -42 -94q-40 -41 -84 -43zM149 678v-59h-39v59h39z" />
<glyph unicode="&#xc0;" d="M235 -10h-20v40h42q-12 84 -13 108q-8 70 -13 106q-3 16 -10 68q-5 -1 -15 -1q-16 -3 -30 -3h-7q-27 0 -48 5q0 -2 -1 -5t-1 -4l-9 -55q-4 -21 -8 -67q-2 -28 -5 -40l-8 -78l-2 -31h39v-40h-20q-10 0 -23.5 -0.5t-18.5 -0.5t-19.5 -0.5t-24.5 -0.5h-20v40h46l4 37l12 118 q3 35 9 70l9 56q12 57 16 100q2 16 15 100q9 35 12 67l8 55q1 12 11 79h-28v41h21q7 0 10 -2h10q2 2 6 2h26l6 -24q21 -89 25 -115l1 -12q14 -114 29 -189q6 -35 14 -98q2 -32 8 -66q4 -27 13 -108q3 -37 13 -111h43v-39h-19q-30 0 -42 -1q-4 0 -17.5 -0.5t-25.5 -0.5z M170 629q-4 -39 -7 -55q-5 -36 -12 -69q-12 -62 -16 -97q-1 -19 -7 -57q12 -2 41 -2h5q19 0 29 1h15q-5 34 -10 56q-18 105 -28 192l-2 11l-6 33q0 -2 -1 -6.5t-1 -6.5zM173 846l-37 -15l-8 19q-17 44 -41 77l-10 17l33 22l10 -16q12 -17 23 -38.5t16.5 -34t5.5 -13.5z" />
<glyph unicode="&#xc1;" d="M235 -10h-20v40h42q-12 84 -13 108q-8 70 -13 106q-3 16 -10 68q-5 -1 -15 -1q-16 -3 -30 -3h-7q-27 0 -48 5q0 -2 -1 -5t-1 -4l-9 -55q-4 -21 -8 -67q-2 -28 -5 -40l-8 -78l-2 -31h39v-40h-20q-10 0 -23.5 -0.5t-18.5 -0.5t-19.5 -0.5t-24.5 -0.5h-20v40h46l4 37l12 118 q3 35 9 70l9 56q12 57 16 100q2 16 15 100q9 35 12 67l8 55q1 12 11 79h-28v41h21q7 0 10 -2h10q2 2 6 2h26l6 -24q21 -89 25 -115l1 -12q14 -114 29 -189q6 -35 14 -98q2 -32 8 -66q4 -27 13 -108q3 -37 13 -111h43v-39h-19q-30 0 -42 -1q-4 0 -17.5 -0.5t-25.5 -0.5z M170 629q-4 -39 -7 -55q-5 -36 -12 -69q-12 -62 -16 -97q-1 -19 -7 -57q12 -2 41 -2h5q19 0 29 1h15q-5 34 -10 56q-18 105 -28 192l-2 11l-6 33q0 -2 -1 -6.5t-1 -6.5zM198 848l-10 -17l-35 19l9 17q11 22 20 35q2 8 12 21q1 4 5 12.5t5 11.5l5 18l38 -13l-6 -19 q-2 -5 -13 -28l-12 -23q-7 -10 -18 -34z" />
<glyph unicode="&#xc2;" d="M235 -10h-20v40h42q-12 84 -13 108q-8 70 -13 106q-3 16 -10 68q-5 -1 -15 -1q-16 -3 -30 -3h-7q-27 0 -48 5q0 -2 -1 -5t-1 -4l-9 -55q-4 -21 -8 -67q-2 -28 -5 -40l-8 -78l-2 -31h39v-40h-20q-10 0 -23.5 -0.5t-18.5 -0.5t-19.5 -0.5t-24.5 -0.5h-20v40h46l4 37l12 118 q3 35 9 70l9 56q12 57 16 100q2 16 15 100q9 35 12 67l8 55q1 12 11 79h-28v41h21q7 0 10 -2h10q2 2 6 2h26l6 -24q21 -89 25 -115l1 -12q14 -114 29 -189q6 -35 14 -98q2 -32 8 -66q4 -27 13 -108q3 -37 13 -111h43v-39h-19q-30 0 -42 -1q-4 0 -17.5 -0.5t-25.5 -0.5z M170 629q-4 -39 -7 -55q-5 -36 -12 -69q-12 -62 -16 -97q-1 -19 -7 -57q12 -2 41 -2h5q19 0 29 1h15q-5 34 -10 56q-18 105 -28 192l-2 11l-6 33q0 -2 -1 -6.5t-1 -6.5zM164 902l-82 -82l-28 28l13 13q18 19 39.5 40t32.5 32l11 11h27q2 -1 21 -20t26 -27q5 -5 12.5 -14 t12.5 -16t6 -7l11 -16l-31 -24l-12 15q0 4 -29 36q-4 5 -30 31z" />
<glyph unicode="&#xc3;" d="M235 -10h-20v40h42q-12 84 -13 108q-8 70 -13 106q-3 16 -10 68q-5 -1 -15 -1q-16 -3 -30 -3h-7q-27 0 -48 5q0 -2 -1 -5t-1 -4l-9 -55q-4 -21 -8 -67q-2 -28 -5 -40l-8 -78l-2 -31h39v-40h-20q-10 0 -23.5 -0.5t-18.5 -0.5t-19.5 -0.5t-24.5 -0.5h-20v40h46l4 37l12 118 q3 35 9 70l9 56q12 57 16 100q2 16 15 100q9 35 12 67l8 55q1 12 11 79h-28v41h21q7 0 10 -2h10q2 2 6 2h26l6 -24q21 -89 25 -115l1 -12q14 -114 29 -189q6 -35 14 -98q2 -32 8 -66q4 -27 13 -108q3 -37 13 -111h43v-39h-19q-30 0 -42 -1q-4 0 -17.5 -0.5t-25.5 -0.5z M170 629q-4 -39 -7 -55q-5 -36 -12 -69q-12 -62 -16 -97q-1 -19 -7 -57q12 -2 41 -2h5q19 0 29 1h15q-5 34 -10 56q-18 105 -28 192l-2 11l-6 33q0 -2 -1 -6.5t-1 -6.5zM217 831q-18 0 -37 11q-12 6 -25 16q-36 25 -47 14q-10 -7 -12 -18l-3 -20l-39 8l3 19q3 25 23 41 q28 21 57 11q8 -2 42 -24l18 -12q17 -7 27 -4q11 5 13 21l3 20l39 -5l-2 -20q-5 -41 -38 -52q-14 -6 -22 -6z" />
<glyph unicode="&#xc4;" d="M235 -10h-20v40h42q-12 84 -13 108q-8 70 -13 106q-3 16 -10 68q-5 -1 -15 -1q-16 -3 -30 -3h-7q-27 0 -48 5q0 -2 -1 -5t-1 -4l-9 -55q-4 -21 -8 -67q-2 -28 -5 -40l-8 -78l-2 -31h39v-40h-20q-10 0 -23.5 -0.5t-18.5 -0.5t-19.5 -0.5t-24.5 -0.5h-20v40h46l4 37l12 118 q3 35 9 70l9 56q12 57 16 100q2 16 15 100q9 35 12 67l8 55q1 12 11 79h-28v41h21q7 0 10 -2h10q2 2 6 2h26l6 -24q21 -89 25 -115l1 -12q14 -114 29 -189q6 -35 14 -98q2 -32 8 -66q4 -27 13 -108q3 -37 13 -111h43v-39h-19q-30 0 -42 -1q-4 0 -17.5 -0.5t-25.5 -0.5z M170 629q-4 -39 -7 -55q-5 -36 -12 -69q-12 -62 -16 -97q-1 -19 -7 -57q12 -2 41 -2h5q19 0 29 1h15q-5 34 -10 56q-18 105 -28 192l-2 11l-6 33q0 -2 -1 -6.5t-1 -6.5zM258 846l-19 -2h-27l-18 2l-1 18v20l1 19h46l17 -1l1 -18v-38zM140 864v-20h-46l-17 2l-1 18v38l18 1 h28l18 -1v-18q1 -1 1 -4.5v-6.5t-1 -6v-3z" />
<glyph unicode="&#xc5;" d="M235 -10h-20v40h42q-12 84 -13 108q-8 70 -13 106q-3 16 -10 68q-5 -1 -15 -1q-16 -3 -30 -3h-7q-27 0 -48 5q0 -2 -1 -5t-1 -4l-9 -55q-4 -21 -8 -67q-2 -28 -5 -40l-8 -78l-2 -31h39v-40h-20q-10 0 -23.5 -0.5t-18.5 -0.5t-19.5 -0.5t-24.5 -0.5h-20v40h46l4 37l12 118 q3 35 9 70l9 56q12 57 16 100q2 16 15 100q9 35 12 67l8 55q1 12 11 79h-28v41h21q7 0 10 -2h10q2 2 6 2h26l6 -24q21 -89 25 -115l1 -12q14 -114 29 -189q6 -35 14 -98q2 -32 8 -66q4 -27 13 -108q3 -37 13 -111h43v-39h-19q-30 0 -42 -1q-4 0 -17.5 -0.5t-25.5 -0.5z M170 629q-4 -39 -7 -55q-5 -36 -12 -69q-12 -62 -16 -97q-1 -19 -7 -57q12 -2 41 -2h5q19 0 29 1h15q-5 34 -10 56q-18 105 -28 192l-2 11l-6 33q0 -2 -1 -6.5t-1 -6.5zM175 818q-24 0 -42 12q-14 10 -21.5 24t-8.5 23.5t-1 27.5v2q-1 25 13 45t38 21h1q37 0 58.5 -22.5 t21.5 -60.5q2 -46 -30 -65q-14 -7 -29 -7zM154 932q-13 0 -13 -25v-1q0 -33 15 -42q7 -6 19 -6q7 0 8 1q12 8 12 31q0 18 -7 27.5t-14.5 12t-19.5 2.5z" />
<glyph unicode="&#xc6;" horiz-adv-x="578" d="M499 663h-39v20q0 1 -0.5 9.5t-0.5 13.5v8q-4 2 -12 2q-60 2 -87 0q-18 -3 -57 -3q0 -23 4 -43q2 -32 2 -51q0 -90 2 -134q0 -49 1 -72l13 2l34 3q33 0 49 -1q7 0 19 -1t17 -1v37h40v-19q0 -25 1 -32q0 -2 0.5 -12t0.5 -22v-20h-40v29q-28 0 -41 1q-7 0 -21.5 1t-21.5 1 q-19 -3 -33 -3q-10 -2 -17 -2q1 -177 8 -344q50 0 74 1q45 3 79 2v51h41v-92l-21 1q-22 1 -97 -1q-22 -1 -67 -1q-42 0 -63 2l-20 2l4 39l20 -1q2 0 5 -1t4 -1q-6 230 -6 278q-3 0 -9 -0.5t-8 -0.5q-6 0 -17 -0.5t-16 -0.5h-8q-41 0 -50 2l-21 -64q-14 -40 -33 -106 q-3 -12 -8.5 -37.5t-8.5 -38.5q0 -5 -6 -30h38v-40h-21q-10 0 -23.5 -0.5t-18.5 -0.5t-19 -0.5t-24 -0.5h-20v40h47l8 40q5 25 17 77q20 70 34 110q16 49 33 105q1 3 6 22q10 31 36 104l30 90l16 54q24 78 26 83h-32v39h21q21 0 35 -1q71 0 78 1q40 5 93 0q6 0 16 -0.5 t14 -0.5h20v-46q1 -11 1 -25v-20zM269 634l-4 -11l-16 -56q-5 -18 -17 -51t-14 -40q-18 -50 -35 -102l-6 -23q0 -1 -0.5 -1t-0.5 -1q20 -3 39 -3h6q14 0 32 3h20v32q0 17 -1 52t-1 52q-2 86 -2 134v15z" />
<glyph unicode="&#xc7;" horiz-adv-x="334" d="M119 -163h-22l1 41h20q20 -2 31 3q20 8 21 22q0 12 -4 17q-10 16 -49 11l-20 28l14 31q-13 2 -23 7q-31 16 -51 42q-34 45 -32 142q0 4 0.5 12t0.5 14t-1 11q0 9 -0.5 27t-0.5 28q-6 86 -1 141q1 36 -2 84q-1 16 -1 47q-1 58 20 117q18 52 59 82q34 24 90 11l4 -1 q39 -8 58 -31v36h40v-81q0 -12 -1 -19v-15l-39 -7q-13 40 -30 60q-7 9 -37 19h-4q-37 10 -58 -4q-29 -21 -46 -63q-18 -61 -17 -104q0 -7 1 -22t1 -22q2 -59 1 -88q-3 -46 1 -139l3 -56v-37v-43.5t5 -39t17 -34.5q20 -24 37 -30q27 -13 42 -10h1q2 1 3 1q36 2 51 12 q19 13 23 44l4 20l40 -7l-4 -19q-8 -50 -42 -71q-21 -14 -66 -18l-9 -12v-2l-1 -2q37 -6 51 -26q14 -18 12 -46q-5 -41 -49 -55q-18 -6 -42 -6z" />
<glyph unicode="&#xc8;" horiz-adv-x="341" d="M34 372h-25v40h25q0 12 -0.5 35t-0.5 34q-2 45 -2 136q0 17 -2 49q0 5 -2 21.5t-2 26.5h-25v40h20q23 0 34 -2q49 0 64 2q31 4 94 0q6 0 15.5 -1t13.5 -1h20v-19q0 -16 1 -27v-44l-39 -1v21q0 14 -2 23v9h-11q-60 4 -88 0q-20 -2 -56 -2q0 -14 2 -44q3 -45 3 -51 q0 -22 0.5 -67t0.5 -68q0 -44 1 -67h7q20 3 42 3h48q12 -1 37 -1v35h39v-19q0 -11 1 -20t1 -11t0.5 -12.5t0.5 -22.5v-20h-39v29q-8 0 -21.5 0.5t-20.5 0.5q-15 2 -45 2q-20 -3 -40 -3q-3 -1 -8 -1q0 -192 6 -345q26 -1 76 1q44 3 80 2v51h40v-92h-21q-24 2 -97 0 q-46 -2 -69 -2q-30 0 -61 3l-20 2l4 39l20 -1q1 0 4 -1t5 -1q-6 129 -8 341zM165 846l-37 -15l-8 19q-17 44 -41 77l-10 17l33 22l10 -16q12 -17 23 -38.5t16.5 -34t5.5 -13.5z" />
<glyph unicode="&#xc9;" horiz-adv-x="341" d="M34 372h-25v40h25q0 12 -0.5 35t-0.5 34q-2 45 -2 136q0 17 -2 49q0 5 -2 21.5t-2 26.5h-25v40h20q23 0 34 -2q49 0 64 2q31 4 94 0q6 0 15.5 -1t13.5 -1h20v-19q0 -16 1 -27v-44l-39 -1v21q0 14 -2 23v9h-11q-60 4 -88 0q-20 -2 -56 -2q0 -14 2 -44q3 -45 3 -51 q0 -22 0.5 -67t0.5 -68q0 -44 1 -67h7q20 3 42 3h48q12 -1 37 -1v35h39v-19q0 -11 1 -20t1 -11t0.5 -12.5t0.5 -22.5v-20h-39v29q-8 0 -21.5 0.5t-20.5 0.5q-15 2 -45 2q-20 -3 -40 -3q-3 -1 -8 -1q0 -192 6 -345q26 -1 76 1q44 3 80 2v51h40v-92h-21q-24 2 -97 0 q-46 -2 -69 -2q-30 0 -61 3l-20 2l4 39l20 -1q1 0 4 -1t5 -1q-6 129 -8 341zM159 848l-10 -17l-35 19l9 17q11 22 20 35q2 8 12 21q1 4 5 12.5t5 11.5l5 18l38 -13l-6 -19q-2 -5 -13 -28l-12 -23q-7 -10 -18 -34z" />
<glyph unicode="&#xca;" horiz-adv-x="341" d="M34 372h-25v40h25q0 12 -0.5 35t-0.5 34q-2 45 -2 136q0 17 -2 49q0 5 -2 21.5t-2 26.5h-25v40h20q23 0 34 -2q49 0 64 2q31 4 94 0q6 0 15.5 -1t13.5 -1h20v-19q0 -16 1 -27v-44l-39 -1v21q0 14 -2 23v9h-11q-60 4 -88 0q-20 -2 -56 -2q0 -14 2 -44q3 -45 3 -51 q0 -22 0.5 -67t0.5 -68q0 -44 1 -67h7q20 3 42 3h48q12 -1 37 -1v35h39v-19q0 -11 1 -20t1 -11t0.5 -12.5t0.5 -22.5v-20h-39v29q-8 0 -21.5 0.5t-20.5 0.5q-15 2 -45 2q-20 -3 -40 -3q-3 -1 -8 -1q0 -192 6 -345q26 -1 76 1q44 3 80 2v51h40v-92h-21q-24 2 -97 0 q-46 -2 -69 -2q-30 0 -61 3l-20 2l4 39l20 -1q1 0 4 -1t5 -1q-6 129 -8 341zM141 902l-82 -82l-28 28l13 13q18 19 39.5 40t32.5 32l11 11h27q2 -1 21 -20t26 -27q5 -5 12.5 -14t12.5 -16t6 -7l11 -16l-31 -24l-12 15q0 4 -29 36q-4 5 -30 31z" />
<glyph unicode="&#xcb;" horiz-adv-x="341" d="M34 372h-25v40h25q0 12 -0.5 35t-0.5 34q-2 45 -2 136q0 17 -2 49q0 5 -2 21.5t-2 26.5h-25v40h20q23 0 34 -2q49 0 64 2q31 4 94 0q6 0 15.5 -1t13.5 -1h20v-19q0 -16 1 -27v-44l-39 -1v21q0 14 -2 23v9h-11q-60 4 -88 0q-20 -2 -56 -2q0 -14 2 -44q3 -45 3 -51 q0 -22 0.5 -67t0.5 -68q0 -44 1 -67h7q20 3 42 3h48q12 -1 37 -1v35h39v-19q0 -11 1 -20t1 -11t0.5 -12.5t0.5 -22.5v-20h-39v29q-8 0 -21.5 0.5t-20.5 0.5q-15 2 -45 2q-20 -3 -40 -3q-3 -1 -8 -1q0 -192 6 -345q26 -1 76 1q44 3 80 2v51h40v-92h-21q-24 2 -97 0 q-46 -2 -69 -2q-30 0 -61 3l-20 2l4 39l20 -1q1 0 4 -1t5 -1q-6 129 -8 341zM225 846l-19 -2h-27l-18 2l-1 18v20l1 19h46l17 -1l1 -18v-38zM107 864v-20h-46l-17 2l-1 18v38l18 1h28l18 -1v-18q1 -1 1 -4.5v-6.5v-6z" />
<glyph unicode="&#xcc;" horiz-adv-x="211" d="M163 29l-2 -39h-19q-35 1 -75 1q-6 0 -21 -0.5t-25 -0.5h-21v40h62q0 191 4 319q3 105 -2 224q-2 92 -2 141h-41l-21 -1v41h143l20 -2l-2 -39h-19q-9 0 -22.5 0.5t-18.5 0.5q0 -71 3 -140q4 -166 2 -227q-5 -119 -5 -317h42zM97 846l-37 -15l-8 19q-17 44 -41 77l-10 17 l33 22l10 -16q12 -17 23 -38.5t16.5 -34t5.5 -13.5z" />
<glyph unicode="&#xcd;" horiz-adv-x="211" d="M163 29l-2 -39h-19q-35 1 -75 1q-6 0 -21 -0.5t-25 -0.5h-21v40h62q0 191 4 319q3 105 -2 224q-2 92 -2 141h-41l-21 -1v41h143l20 -2l-2 -39h-19q-9 0 -22.5 0.5t-18.5 0.5q0 -71 3 -140q4 -166 2 -227q-5 -119 -5 -317h42zM112 848l-10 -17l-35 19l9 17q11 22 20 35 q2 8 12 21q1 4 5 12.5t5 11.5l5 18l38 -13l-6 -19q-2 -5 -13 -28l-12 -23q-7 -10 -18 -34z" />
<glyph unicode="&#xce;" horiz-adv-x="227" d="M179 29l-2 -39h-19q-35 1 -75 1q-6 0 -21 -0.5t-25 -0.5h-21v40h62q0 191 4 319q3 105 -2 224q-2 92 -2 141h-41l-21 -1v41h143l20 -2l-2 -39h-19q-9 0 -22.5 0.5t-18.5 0.5q0 -71 3 -140q4 -166 2 -227q-5 -119 -5 -317h42zM98 902l-82 -82l-28 28l13 13q18 19 39.5 40 t32.5 32l11 11h27q2 -1 21 -20t26 -27q5 -5 12.5 -14t12.5 -16t6 -7l11 -16l-31 -24l-12 15q0 4 -29 36q-4 5 -30 31z" />
<glyph unicode="&#xcf;" horiz-adv-x="221" d="M173 29l-2 -39h-19q-35 1 -75 1q-6 0 -21 -0.5t-25 -0.5h-21v40h62q0 191 4 319q3 105 -2 224q-2 92 -2 141h-41l-21 -1v41h143l20 -2l-2 -39h-19q-9 0 -22.5 0.5t-18.5 0.5q0 -71 3 -140q4 -166 2 -227q-5 -119 -5 -317h42zM181 846l-19 -2h-27l-18 2l-1 18v20l1 19h46 l17 -1l1 -18v-38zM63 864v-20h-46l-17 2l-1 18v38l18 1h28l18 -1v-18q1 -1 1 -4.5v-6.5v-6z" />
<glyph unicode="&#xd0;" horiz-adv-x="379" d="M55 -10h-25v39h36q-1 13 -2 36t-2 42.5t-2 36.5q-6 98 -1 207q-18 0 -39 3l-20 2l4 40l20 -3q19 -2 36 -2q0 5 1 14t1 14q0 17 1 27q0 36 3 72q2 42 2 64q1 26 -1 79q-3 54 -3 55h-33l-2 39l19 1q80 6 130 -25q44 -25 76 -77t45 -118q23 -131 18 -220v-38 q-2 -86 -14 -119q-13 -40 -50 -82q-26 -33 -64 -52l-15 -8q-13 -8 -39 -20q-25 -7 -80 -7zM123 35q7 2 32 16l15 9q29 13 53 42q32 36 42 70q12 36 12 106q0 27 1 40q5 84 -18 211q-24 121 -101 168q-26 14 -54 17q0 -8 0.5 -26t0.5 -26q3 -78 3 -81l-4 -66q0 -35 -3 -71 q0 -17 -1 -26q0 -4 -0.5 -13t-0.5 -13h2q1 1 2 1q7 0 19 0.5t15 0.5h19v-39h-19q-7 0 -31 -2h-9q-2 -126 3 -206l4 -117q9 2 18 5z" />
<glyph unicode="&#xd1;" horiz-adv-x="398" d="M300 -9h-38l-1 2l-13 49q-15 63 -32 113q-21 67 -47 174l-8 33q-8 34 -36 119q-13 34 -27 76l-15 54q-3 -75 1 -140q8 -152 0 -306q-1 -29 1 -88q0 -6 0.5 -14t1.5 -18t1 -15h43v-39h-20q-31 0 -42 -1q-4 0 -18 -1t-26 -1h-20v41h43l-2 47q-2 70 -1 92q8 150 0 301 q-4 65 0 160q1 28 1 85h-46v40h80l5 -14l51 -171l25 -75q24 -63 40 -123l7 -33q24 -101 46 -170l7 -23q1 50 -1 151q0 27 -1 83.5t-1 84.5q0 9 0.5 19.5t1.5 23.5t1 20q2 44 2 71q0 9 -0.5 30t-0.5 30q-1 17 -1 54h-45v40h63q11 2 43 2h21v-40h-43q0 -9 0.5 -28t0.5 -27 q2 -18 2 -61q0 -2 -3 -74q0 -9 -0.5 -29.5t-0.5 -30.5q-1 -58 1 -166q0 -31 0.5 -93.5t0.5 -93.5q0 -26 -1 -39v-81zM223 844q-18 0 -37 11q-12 6 -25 16q-36 25 -47 14q-10 -7 -12 -18l-3 -20l-39 8l3 19q3 25 23 41q28 21 57 11q8 -2 42 -24l18 -12q17 -7 27 -4 q11 5 13 21l3 20l39 -5l-2 -20q-5 -41 -38 -52q-14 -6 -22 -6z" />
<glyph unicode="&#xd2;" horiz-adv-x="381" d="M164 -16q-26 0 -58 15q-20 11 -34 27t-23.5 40t-13.5 38.5t-10 43.5l-5 20q0 2 -6 38l-4 26q-14 78 -6 233l3 37v13q1 33 2.5 48.5t7 40.5t16.5 47l6 16q9 20 14.5 31t18.5 25.5t30 22.5q27 13 62 13q27 0 54 -8q24 -7 39 -23.5t20 -29.5t10 -37l4 -17q30 -110 30 -264 v-8q0 -128 -10 -196q-3 -16 -3 -32q-2 -26 -3.5 -37t-9.5 -31.5t-21 -34.5q-56 -57 -110 -57zM164 720q-26 0 -45 -10q-24 -10 -43 -59q-3 -5 -7 -15q-20 -46 -22 -122q0 -2 -0.5 -6.5t-0.5 -6.5q0 -7 -0.5 -20t-0.5 -18q-12 -143 5 -223l4 -29q2 -24 5 -34l4 -21 q7 -32 12 -50t18 -40t33 -32t38 -10q38 0 81 44q19 21 24 79q0 10 2 34q9 65 9 191v8q0 145 -27 253q-1 9 -5 18q-5 21 -8.5 31t-11.5 18.5t-22 12.5q-23 7 -42 7zM186 846l-37 -15l-8 19q-17 44 -41 77l-10 17l33 22l10 -16q12 -17 23 -38.5t16.5 -34t5.5 -13.5z" />
<glyph unicode="&#xd3;" horiz-adv-x="381" d="M164 -16q-26 0 -58 15q-20 11 -34 27t-23.5 40t-13.5 38.5t-10 43.5l-5 20q0 2 -6 38l-4 26q-14 78 -6 233l3 37v13q1 33 2.5 48.5t7 40.5t16.5 47l6 16q9 20 14.5 31t18.5 25.5t30 22.5q27 13 62 13q27 0 54 -8q24 -7 39 -23.5t20 -29.5t10 -37l4 -17q30 -110 30 -264 v-8q0 -128 -10 -196q-3 -16 -3 -32q-2 -26 -3.5 -37t-9.5 -31.5t-21 -34.5q-56 -57 -110 -57zM164 720q-26 0 -45 -10q-24 -10 -43 -59q-3 -5 -7 -15q-20 -46 -22 -122q0 -2 -0.5 -6.5t-0.5 -6.5q0 -7 -0.5 -20t-0.5 -18q-12 -143 5 -223l4 -29q2 -24 5 -34l4 -21 q7 -32 12 -50t18 -40t33 -32t38 -10q38 0 81 44q19 21 24 79q0 10 2 34q9 65 9 191v8q0 145 -27 253q-1 9 -5 18q-5 21 -8.5 31t-11.5 18.5t-22 12.5q-23 7 -42 7zM201 848l-10 -17l-35 19l9 17q11 22 20 35q2 8 12 21q1 4 5 12.5t5 11.5l5 18l38 -13l-6 -19q-2 -5 -13 -28 l-12 -23q-7 -10 -18 -34z" />
<glyph unicode="&#xd4;" horiz-adv-x="381" d="M164 -16q-26 0 -58 15q-20 11 -34 27t-23.5 40t-13.5 38.5t-10 43.5l-5 20q0 2 -6 38l-4 26q-14 78 -6 233l3 37v13q1 33 2.5 48.5t7 40.5t16.5 47l6 16q9 20 14.5 31t18.5 25.5t30 22.5q27 13 62 13q27 0 54 -8q24 -7 39 -23.5t20 -29.5t10 -37l4 -17q30 -110 30 -264 v-8q0 -128 -10 -196q-3 -16 -3 -32q-2 -26 -3.5 -37t-9.5 -31.5t-21 -34.5q-56 -57 -110 -57zM164 720q-26 0 -45 -10q-24 -10 -43 -59q-3 -5 -7 -15q-20 -46 -22 -122q0 -2 -0.5 -6.5t-0.5 -6.5q0 -7 -0.5 -20t-0.5 -18q-12 -143 5 -223l4 -29q2 -24 5 -34l4 -21 q7 -32 12 -50t18 -40t33 -32t38 -10q38 0 81 44q19 21 24 79q0 10 2 34q9 65 9 191v8q0 145 -27 253q-1 9 -5 18q-5 21 -8.5 31t-11.5 18.5t-22 12.5q-23 7 -42 7zM160 902l-82 -82l-28 28l13 13q18 19 39.5 40t32.5 32l11 11h27q2 -1 21 -20t26 -27q5 -5 12.5 -14t12.5 -16 t6 -7l11 -16l-31 -24l-12 15q0 4 -29 36q-4 5 -30 31z" />
<glyph unicode="&#xd5;" horiz-adv-x="381" d="M164 -16q-26 0 -58 15q-20 11 -34 27t-23.5 40t-13.5 38.5t-10 43.5l-5 20q0 2 -6 38l-4 26q-14 78 -6 233l3 37v13q1 33 2.5 48.5t7 40.5t16.5 47l6 16q9 20 14.5 31t18.5 25.5t30 22.5q27 13 62 13q27 0 54 -8q24 -7 39 -23.5t20 -29.5t10 -37l4 -17q30 -110 30 -264 v-8q0 -128 -10 -196q-3 -16 -3 -32q-2 -26 -3.5 -37t-9.5 -31.5t-21 -34.5q-56 -57 -110 -57zM164 720q-26 0 -45 -10q-24 -10 -43 -59q-3 -5 -7 -15q-20 -46 -22 -122q0 -2 -0.5 -6.5t-0.5 -6.5q0 -7 -0.5 -20t-0.5 -18q-12 -143 5 -223l4 -29q2 -24 5 -34l4 -21 q7 -32 12 -50t18 -40t33 -32t38 -10q38 0 81 44q19 21 24 79q0 10 2 34q9 65 9 191v8q0 145 -27 253q-1 9 -5 18q-5 21 -8.5 31t-11.5 18.5t-22 12.5q-23 7 -42 7zM210 844q-18 0 -37 11q-12 6 -25 16q-36 25 -47 14q-10 -7 -12 -18l-3 -20l-39 8l3 19q3 25 23 41 q28 21 57 11q8 -2 42 -24l18 -12q17 -7 27 -4q11 5 13 21l3 20l39 -5l-2 -20q-5 -41 -38 -52q-14 -6 -22 -6z" />
<glyph unicode="&#xd6;" horiz-adv-x="381" d="M164 -16q-26 0 -58 15q-20 11 -34 27t-23.5 40t-13.5 38.5t-10 43.5l-5 20q0 2 -6 38l-4 26q-14 78 -6 233l3 37v13q1 33 2.5 48.5t7 40.5t16.5 47l6 16q9 20 14.5 31t18.5 25.5t30 22.5q27 13 62 13q27 0 54 -8q24 -7 39 -23.5t20 -29.5t10 -37l4 -17q30 -110 30 -264 v-8q0 -128 -10 -196q-3 -16 -3 -32q-2 -26 -3.5 -37t-9.5 -31.5t-21 -34.5q-56 -57 -110 -57zM164 720q-26 0 -45 -10q-24 -10 -43 -59q-3 -5 -7 -15q-20 -46 -22 -122q0 -2 -0.5 -6.5t-0.5 -6.5q0 -7 -0.5 -20t-0.5 -18q-12 -143 5 -223l4 -29q2 -24 5 -34l4 -21 q7 -32 12 -50t18 -40t33 -32t38 -10q38 0 81 44q19 21 24 79q0 10 2 34q9 65 9 191v8q0 145 -27 253q-1 9 -5 18q-5 21 -8.5 31t-11.5 18.5t-22 12.5q-23 7 -42 7zM255 846l-19 -2h-27l-18 2l-1 18v20l1 19h46l17 -1l1 -18v-38zM137 864v-20h-46l-17 2l-1 18v38l18 1h28 l18 -1v-18q1 -1 1 -4.5v-6.5v-6z" />
<glyph unicode="&#xd7;" horiz-adv-x="328" d="M43 257l-14 -13l-29 27l14 15l32 29q28 24 59 57l8 8q-8 9 -26.5 26t-27.5 27l-39 38l-15 13l29 28l14 -14l39 -37q27 -26 53 -53l19 15q58 57 68 71l12 16l32 -24l-13 -15q-18 -27 -73 -77l-17 -15q29 -34 80 -84l23 -24l-29 -27l-23 23q-50 48 -80 83l-5 -5 q-15 -17 -62 -61q-13 -9 -29 -27z" />
<glyph unicode="&#xd8;" horiz-adv-x="442" d="M45 4l-8 -17l-37 18l9 17l64 125v1q-4 15 -5 20q-4 27 -5 38l-4 26q-15 82 -7 233l3 37v14q5 81 19 118q3 8 7 17l7 16q9 21 14 31.5t18.5 25.5t30.5 23q26 12 61 12q27 0 54 -8q24 -7 39.5 -23.5t20.5 -30t10 -36.5q0 -4 2 -12q9 20 33 88l6 18l38 -12l-6 -20 q-26 -76 -56 -140q17 -93 17 -203v-8q0 -128 -11 -196q0 -4 -1 -10.5t-1.5 -11.5t-0.5 -10q-4 -72 -34 -103q-54 -57 -111 -57q-26 0 -56 15q-46 23 -67 89q-15 -26 -43 -84zM212 720q-27 0 -44 -10q-26 -11 -43 -59q-6 -10 -7 -15q-20 -42 -22 -122q-2 -4 -2 -13 q0 -7 -0.5 -19.5t-0.5 -18.5q-10 -146 5 -223l4 -29v-9l67 120q65 116 105 192q1 3 8 15.5t14.5 27.5t14.5 31q-7 33 -10 45l-5 18q-5 21 -8.5 31t-11.5 18.5t-22 12.5q-23 7 -42 7zM174 34q20 -10 37 -10q40 0 83 44q20 22 22 79l4 34q9 65 9 191v8q0 66 -7 139l-13 -25 q-41 -76 -105 -191l-90 -164q21 -84 60 -105z" />
<glyph unicode="&#xd9;" horiz-adv-x="391" d="M126 754v-41h-43q0 -8 -3 -146q-2 -120 0 -245v-11q0 -108 16 -177q23 -109 76 -110q26 0 46 19q43 45 43 165v69q-1 31 -1 97v65v74v61t-1 68.5t-1 70.5h-43v41h20q31 0 43 1h64v-39h-43v-141q1 -65 1 -201v-166q0 -139 -55 -194q-32 -30 -73 -30q-49 0 -79 47 q-20 29 -37 95q-15 74 -15 183v12q-4 101 0 246q1 46 1 146q-3 0 -11 0.5t-13 0.5l-19 2l1 39l20 -1h106zM192 846l-37 -15l-8 19q-17 44 -41 77l-10 17l33 22l10 -16q12 -17 23 -38.5t16.5 -34t5.5 -13.5z" />
<glyph unicode="&#xda;" horiz-adv-x="391" d="M126 754v-41h-43q0 -8 -3 -146q-2 -120 0 -245v-11q0 -108 16 -177q23 -109 76 -110q26 0 46 19q43 45 43 165v69q-1 31 -1 97v65v74v61t-1 68.5t-1 70.5h-43v41h20q31 0 43 1h64v-39h-43v-141q1 -65 1 -201v-166q0 -139 -55 -194q-32 -30 -73 -30q-49 0 -79 47 q-20 29 -37 95q-15 74 -15 183v12q-4 101 0 246q1 46 1 146q-3 0 -11 0.5t-13 0.5l-19 2l1 39l20 -1h106zM198 848l-10 -17l-35 19l9 17q11 22 20 35q2 8 12 21q1 4 5 12.5t5 11.5l5 18l38 -13l-6 -19q-2 -5 -13 -28l-12 -23q-7 -10 -18 -34z" />
<glyph unicode="&#xdb;" horiz-adv-x="391" d="M126 754v-41h-43q0 -8 -3 -146q-2 -120 0 -245v-11q0 -108 16 -177q23 -109 76 -110q26 0 46 19q43 45 43 165v69q-1 31 -1 97v65v74v61t-1 68.5t-1 70.5h-43v41h20q31 0 43 1h64v-39h-43v-141q1 -65 1 -201v-166q0 -139 -55 -194q-32 -30 -73 -30q-49 0 -79 47 q-20 29 -37 95q-15 74 -15 183v12q-4 101 0 246q1 46 1 146q-3 0 -11 0.5t-13 0.5l-19 2l1 39l20 -1h106zM173 902l-82 -82l-28 28l13 13q18 19 39.5 40t32.5 32l11 11h27q2 -1 21 -20t26 -27q5 -5 12.5 -14t12.5 -16t6 -7l11 -16l-31 -24l-12 15q0 4 -29 36q-4 5 -30 31z " />
<glyph unicode="&#xdc;" horiz-adv-x="391" d="M126 754v-41h-43q0 -8 -3 -146q-2 -120 0 -245v-11q0 -108 16 -177q23 -109 76 -110q26 0 46 19q43 45 43 165v69q-1 31 -1 97v65v74v61t-1 68.5t-1 70.5h-43v41h20q31 0 43 1h64v-39h-43v-141q1 -65 1 -201v-166q0 -139 -55 -194q-32 -30 -73 -30q-49 0 -79 47 q-20 29 -37 95q-15 74 -15 183v12q-4 101 0 246q1 46 1 146q-3 0 -11 0.5t-13 0.5l-19 2l1 39l20 -1h106zM263 846l-19 -2h-27l-18 2l-1 18v20l1 19h46l17 -1l1 -18v-38zM145 864v-20h-46l-17 2l-1 18v38l18 1h28l18 -1v-18q1 -1 1 -4.5v-6.5v-6z" />
<glyph unicode="&#xdd;" horiz-adv-x="412" d="M128 754v-41h-41q1 -1 3.5 -11t5.5 -19q1 -3 5 -17t6 -22q14 -38 16 -50l21 -70l42 -136l33 107q7 21 13 33q9 25 10 29q4 12 10 34.5t9 31.5q7 35 16 61l7 30h-23l-20 2l1 39h21q25 -1 50 -1q4 0 15.5 0.5t20.5 0.5h21v-41h-44l-11 -42l-16 -60q-5 -22 -19 -68l-11 -32 q-5 -8 -12 -28l-51 -169q0 -22 0.5 -64.5t0.5 -63.5q3 -129 3 -133v-9q-2 -6 -2 -14h41v-39h-20q-10 0 -23.5 -0.5t-19.5 -0.5q-12 -1 -43 -1h-21v39h47q-1 0 -1 9l1 9q0 2 0.5 4t0.5 3q0 47 -2 133q-2 41 -2 128l-60 197l-21 71q-2 10 -16 49l-11 40l-10 28l-3 16h-23 l-19 -2l-3 40l20 1h56q11 -1 33 -1h19zM208 848l-10 -17l-35 19l9 17q11 22 20 35q2 8 12 21q1 4 5 12.5t5 11.5l5 18l38 -13l-6 -19q-2 -5 -13 -28l-12 -23q-7 -10 -18 -34z" />
<glyph unicode="&#xde;" horiz-adv-x="345" d="M138 135q-27 0 -37 1v-105q5 0 19 -0.5t23 -0.5h20l-2 -40l-19 1h-75h-67v39h62q0 190 4 317q2 78 -2 227q-2 94 -2 140h-42h-20v40h163l-2 -41h-19q-9 0 -22.5 0.5t-18.5 0.5q0 -73 1 -110q81 14 131 -25q40 -33 58 -112q22 -93 3 -200q-15 -77 -59 -108 q-35 -24 -97 -24zM105 346l-4 -169q71 -12 111 14q32 23 42 83q18 101 -1 183q-7 25 -10 35.5t-12.5 28t-22.5 27.5q-36 29 -104 16q4 -126 1 -218z" />
<glyph unicode="&#xdf;" horiz-adv-x="346" d="M20 -12h-20v41h42q3 1 8 1v85q0 53 1 75q0 9 0.5 30.5t0.5 35.5q0 3 3 57l3 49v23h-4q-4 -1 -19 -1h-19v39h19q5 0 9 1l4 1h8q-1 11 -1 35l-3 41q0 8 0.5 17t1.5 20t1 18q0 8 0.5 22t0.5 20v6q0 72 12 102q10 25 33.5 39.5t54.5 14.5q65 0 93.5 -46.5t28.5 -151.5 q0 -84 -29 -132q-7 -13 -21 -22q38 -23 51 -66q17 -59 11 -107v-50q0 -37 -2 -55v-5q-2 -31 -11 -53q-2 -2 -6 -13q-1 -3 -3 -8t-4.5 -9.5t-5.5 -8.5q-14 -15 -26 -24q-30 -21 -81 -21h-20v41h20q39 0 59 13q8 5 15 14q5 7 8 17q1 1 3.5 7.5t4.5 9.5q7 14 7 37q1 3 1 7 q1 15 1 51q-2 25 0 54q5 45 -9 91q-14 47 -68 54h-26v39h25q31 7 43 28q22 34 22 111q0 56 -7 91t-21.5 48t-24.5 16t-28 3q-39 0 -50 -28q-10 -27 -10 -88v-6q0 -29 -2 -45q-2 -35 -1 -51q0 -24 1 -41q4 -72 3 -101q0 -26 -3 -49q0 -9 -0.5 -28t-0.5 -29l-3 -65 q0 -13 -0.5 -42.5t-0.5 -50.5v-105h-20q-17 0 -24 -1q-4 0 -12 -1t-13 -1z" />
<glyph unicode="&#xe0;" horiz-adv-x="317" d="M105 -14q-22 0 -42 10q-28 13 -39 37t-15 57q-1 19 -1 55v35q0 10 -2 30t-2 27l-3 30q-1 25 1 75q0 6 1 16t1 16v6q2 67 15 101q17 44 48 62q24 15 64 7q26 -4 50 -27v4v20h72v-41h-33v-25.5v-29v-16.5v-9q1 -107 -3 -195q-2 -41 -2 -125v-76h6q4 0 11.5 -0.5t10.5 -0.5 h20v-39h-20q-17 0 -24 1q-4 0 -12 0.5t-13 0.5h-21v15l-7 -6q-23 -11 -51 -14h-3q-2 -1 -7 -1zM175 97v9q0 84 2 127q5 79 2 192v8l-4 19q-5 23 -19 39q-17 18 -33 21q-23 5 -35 -3q-22 -14 -32 -42q-12 -34 -12 -88v-7l-2 -33q-4 -42 0 -69q0 -5 0.5 -15t0.5 -15 q4 -25 4 -59q1 -12 1 -36q-1 -26 0 -51q6 -50 32 -61q16 -9 27 -7h3q17 2 28.5 6t21.5 15.5t13 29.5zM148 636l-37 -15l-8 19q-17 44 -41 77l-10 17l33 22l10 -16q12 -17 23 -38.5t16.5 -34t5.5 -13.5z" />
<glyph unicode="&#xe1;" horiz-adv-x="317" d="M105 -14q-22 0 -42 10q-28 13 -39 37t-15 57q-1 19 -1 55v35q0 10 -2 30t-2 27l-3 30q-1 25 1 75q0 6 1 16t1 16v6q2 67 15 101q17 44 48 62q24 15 64 7q26 -4 50 -27v4v20h72v-41h-33v-25.5v-29v-16.5v-9q1 -107 -3 -195q-2 -41 -2 -125v-76h6q4 0 11.5 -0.5t10.5 -0.5 h20v-39h-20q-17 0 -24 1q-4 0 -12 0.5t-13 0.5h-21v15l-7 -6q-23 -11 -51 -14h-3q-2 -1 -7 -1zM175 97v9q0 84 2 127q5 79 2 192v8l-4 19q-5 23 -19 39q-17 18 -33 21q-23 5 -35 -3q-22 -14 -32 -42q-12 -34 -12 -88v-7l-2 -33q-4 -42 0 -69q0 -5 0.5 -15t0.5 -15 q4 -25 4 -59q1 -12 1 -36q-1 -26 0 -51q6 -50 32 -61q16 -9 27 -7h3q17 2 28.5 6t21.5 15.5t13 29.5zM147 638l-10 -17l-35 19l9 17q11 23 20 35q2 8 12 21q1 4 5 12.5t5 11.5l5 18l38 -13l-6 -19q-2 -5 -13 -28l-12 -23q-7 -10 -18 -34z" />
<glyph unicode="&#xe2;" horiz-adv-x="317" d="M105 -14q-22 0 -42 10q-28 13 -39 37t-15 57q-1 19 -1 55v35q0 10 -2 30t-2 27l-3 30q-1 25 1 75q0 6 1 16t1 16v6q2 67 15 101q17 44 48 62q24 15 64 7q26 -4 50 -27v4v20h72v-41h-33v-25.5v-29v-16.5v-9q1 -107 -3 -195q-2 -41 -2 -125v-76h6q4 0 11.5 -0.5t10.5 -0.5 h20v-39h-20q-17 0 -24 1q-4 0 -12 0.5t-13 0.5h-21v15l-7 -6q-23 -11 -51 -14h-3q-2 -1 -7 -1zM175 97v9q0 84 2 127q5 79 2 192v8l-4 19q-5 23 -19 39q-17 18 -33 21q-23 5 -35 -3q-22 -14 -32 -42q-12 -34 -12 -88v-7l-2 -33q-4 -42 0 -69q0 -5 0.5 -15t0.5 -15 q4 -25 4 -59q1 -12 1 -36q-1 -26 0 -51q6 -50 32 -61q16 -9 27 -7h3q17 2 28.5 6t21.5 15.5t13 29.5zM120 705l-82 -82l-28 28l13 13q18 19 39.5 40t32.5 32l11 11h27q2 -1 21 -20t26 -27q5 -5 12.5 -14t12.5 -16t6 -7l11 -16l-31 -24l-12 15q0 4 -29 36q-4 5 -30 31z" />
<glyph unicode="&#xe3;" horiz-adv-x="317" d="M105 -14q-22 0 -42 10q-28 13 -39 37t-15 57q-1 19 -1 55v35q0 10 -2 30t-2 27l-3 30q-1 25 1 75q0 6 1 16t1 16v6q2 67 15 101q17 44 48 62q24 15 64 7q26 -4 50 -27v4v20h72v-41h-33v-25.5v-29v-16.5v-9q1 -107 -3 -195q-2 -41 -2 -125v-76h6q4 0 11.5 -0.5t10.5 -0.5 h20v-39h-20q-17 0 -24 1q-4 0 -12 0.5t-13 0.5h-21v15l-7 -6q-23 -11 -51 -14h-3q-2 -1 -7 -1zM175 97v9q0 84 2 127q5 79 2 192v8l-4 19q-5 23 -19 39q-17 18 -33 21q-23 5 -35 -3q-22 -14 -32 -42q-12 -34 -12 -88v-7l-2 -33q-4 -42 0 -69q0 -5 0.5 -15t0.5 -15 q4 -25 4 -59q1 -12 1 -36q-1 -26 0 -51q6 -50 32 -61q16 -9 27 -7h3q17 2 28.5 6t21.5 15.5t13 29.5zM167 634q-18 0 -37 11q-12 6 -25 16q-36 25 -47 14q-10 -7 -12 -18l-3 -20l-39 8l3 19q3 25 23 41q28 21 57 11q8 -2 42 -24l18 -12q17 -7 27 -4q11 5 13 21l3 20l39 -5 l-2 -20q-5 -41 -38 -52q-14 -6 -22 -6z" />
<glyph unicode="&#xe4;" horiz-adv-x="317" d="M105 -14q-22 0 -42 10q-28 13 -39 37t-15 57q-1 19 -1 55v35q0 10 -2 30t-2 27l-3 30q-1 25 1 75q0 6 1 16t1 16v6q2 67 15 101q17 44 48 62q24 15 64 7q26 -4 50 -27v4v20h72v-41h-33v-25.5v-29v-16.5v-9q1 -107 -3 -195q-2 -41 -2 -125v-76h6q4 0 11.5 -0.5t10.5 -0.5 h20v-39h-20q-17 0 -24 1q-4 0 -12 0.5t-13 0.5h-21v15l-7 -6q-23 -11 -51 -14h-3q-2 -1 -7 -1zM175 97v9q0 84 2 127q5 79 2 192v8l-4 19q-5 23 -19 39q-17 18 -33 21q-23 5 -35 -3q-22 -14 -32 -42q-12 -34 -12 -88v-7l-2 -33q-4 -42 0 -69q0 -5 0.5 -15t0.5 -15 q4 -25 4 -59q1 -12 1 -36q-1 -26 0 -51q6 -50 32 -61q16 -9 27 -7h3q17 2 28.5 6t21.5 15.5t13 29.5zM215 649l-19 -2h-27l-18 2l-1 18v20l1 19h46l17 -1l1 -18v-38zM97 667v-20h-46l-17 2l-1 18v38l18 1h28l18 -1v-18v-20z" />
<glyph unicode="&#xe5;" horiz-adv-x="317" d="M105 -14q-22 0 -42 10q-28 13 -39 37t-15 57q-1 19 -1 55v35q0 10 -2 30t-2 27l-3 30q-1 25 1 75q0 6 1 16t1 16v6q2 67 15 101q17 44 48 62q24 15 64 7q26 -4 50 -27v4v20h72v-41h-33v-25.5v-29v-16.5v-9q1 -107 -3 -195q-2 -41 -2 -125v-76h6q4 0 11.5 -0.5t10.5 -0.5 h20v-39h-20q-17 0 -24 1q-4 0 -12 0.5t-13 0.5h-21v15l-7 -6q-23 -11 -51 -14h-3q-2 -1 -7 -1zM175 97v9q0 84 2 127q5 79 2 192v8l-4 19q-5 23 -19 39q-17 18 -33 21q-23 5 -35 -3q-22 -14 -32 -42q-12 -34 -12 -88v-7l-2 -33q-4 -42 0 -69q0 -5 0.5 -15t0.5 -15 q4 -25 4 -59q1 -12 1 -36q-1 -26 0 -51q6 -50 32 -61q16 -9 27 -7h3q17 2 28.5 6t21.5 15.5t13 29.5zM131 621q-24 0 -42 12q-21 14 -26 31.5t-5 43.5v2q-1 25 13 45t38 21h1q37 0 58.5 -22.5t21.5 -60.5q2 -46 -30 -65q-14 -7 -29 -7zM110 735q-13 0 -13 -25v-1 q0 -33 15 -42q7 -6 19 -6q7 0 8 1q12 8 12 31q0 18 -7 27.5t-14.5 12t-19.5 2.5z" />
<glyph unicode="&#xe6;" horiz-adv-x="425" d="M100 -16q-13 0 -20 3q-62 14 -76 88q-8 34 -3 110v18q2 23 3.5 33t7 25.5t18.5 26t34 19.5q25 10 80 8q4 0 12 -1t13 -1v2q0 7 -0.5 20.5t-0.5 19.5q-3 35 0 71q2 40 -12 60q-21 28 -64 28q-9 0 -23 -4.5t-17 -8.5l-30 27q12 12 33.5 18.5t36.5 6.5h1q64 0 94 -44l3 -6 q15 24 34 38q25 18 68 9l3 -1q30 -4 44 -25q13 -16 19 -34q8 -20 10 -61l3 -17l4 -25q0 -24 1 -38q0 -1 -1 -24t-1 -31l-2 -19l-17 -1q-24 -2 -77 1q-36 4 -71 0v-9q-2 -123 3 -173q4 -47 39 -63q16 -8 25 -8l3 2q21 2 34 7q9 8 13 29l4 20l39 -7l-4 -19q-6 -41 -31 -55 q-13 -8 -49 -15l-4 -1h-8q-15 0 -40 10q-23 12 -40 36q-14 -18 -34 -28q-28 -17 -57 -17zM168 267v7q-19 0 -26 1q-44 4 -62 -5q-25 -12 -31 -23.5t-7 -45.5q-1 -6 -1 -19q-6 -69 2.5 -108.5t45.5 -48.5q22 -5 49 12q26 14 28 30l4 22q-6 70 -2 178zM245 317q13 0 37 -2 q23 -3 52 -2q2 16 2 34q0 27 -2 37q0 6 -2 20q-3 12 -3 22q-2 30 -8 51q-8 16 -13 24q-8 8 -22 10h-4q-25 7 -34 -1q-20 -15 -30 -43q-11 -33 -11 -111q1 -13 1 -40q15 1 37 1z" />
<glyph unicode="&#xe7;" horiz-adv-x="257" d="M84 -163h-22l1 41h20q19 -1 31 3q20 9 21 22q0 12 -4 17q-11 16 -50 11l-19 28q6 15 14 29l-13 5q-53 28 -60 96q-5 52 -3 178q0 32 1 48q0 7 -0.5 20t-0.5 20q-2 84 13 125q16 42 43 61q25 18 69 9l2 -1q26 -4 41 -20v24h39v-29q2 -32 -9 -67l-38 2q-8 25 -20 42 q-5 5 -22 10h-3q-23 6 -35 -2q-20 -13 -30 -42q-11 -33 -11 -111q2 -13 2 -41q0 -8 -1 -24.5t-1 -24.5q-2 -114 3 -173q7 -48 39 -63q16 -8 25 -8l3 2q21 2 34 7q11 9 13 29l4 20l39 -7l-4 -19q-4 -39 -31 -55q-18 -11 -42 -13l-9 -12q0 -1 -1 -2l-1 -2q38 -6 52 -26 q14 -19 11 -46q-3 -40 -48 -55q-18 -6 -42 -6z" />
<glyph unicode="&#xe8;" horiz-adv-x="257" d="M113 -17h-8q-16 0 -41 10q-54 26 -61 96q-5 51 -3 178q0 8 0.5 24t0.5 24q0 27 -1 40q0 84 13 125q15 41 43 61q26 18 69 9l2 -1q33 -9 45 -25q10 -13 19 -34q9 -29 11 -61q0 -5 2 -19q3 -12 3 -23q1 -12 1 -38q0 -25 -2 -57v-17l-19 -1q-25 -2 -76 1q-32 3 -70 0v-9 q-4 -106 2 -173q4 -46 38 -64q17 -7 25 -7l4 2q22 2 33 7q10 8 14 28l3 20l39 -6l-2 -19q-6 -39 -32 -55q-16 -11 -50 -15zM77 317q17 0 37 -2q23 -3 54 -2v15v14l1 5q-1 15 -1 37l-3 20l-4 22q-2 34 -8 50q-1 7 -13 25q-3 4 -22 10h-3q-22 6 -35 -2q-21 -14 -29 -42 q-14 -39 -10 -111v-41q30 2 36 2zM131 636l-37 -15l-8 19q-17 44 -41 77l-10 17l33 22l10 -16q12 -17 23 -38.5t16.5 -34t5.5 -13.5z" />
<glyph unicode="&#xe9;" horiz-adv-x="257" d="M113 -17h-8q-16 0 -41 10q-54 26 -61 96q-5 51 -3 178q0 8 0.5 24t0.5 24q0 27 -1 40q0 84 13 125q15 41 43 61q26 18 69 9l2 -1q33 -9 45 -25q10 -13 19 -34q9 -29 11 -61q0 -5 2 -19q3 -12 3 -23q1 -12 1 -38q0 -25 -2 -57v-17l-19 -1q-25 -2 -76 1q-32 3 -70 0v-9 q-4 -106 2 -173q4 -46 38 -64q17 -7 25 -7l4 2q22 2 33 7q10 8 14 28l3 20l39 -6l-2 -19q-6 -39 -32 -55q-16 -11 -50 -15zM77 317q17 0 37 -2q23 -3 54 -2v15v14l1 5q-1 15 -1 37l-3 20l-4 22q-2 34 -8 50q-1 7 -13 25q-3 4 -22 10h-3q-22 6 -35 -2q-21 -14 -29 -42 q-14 -39 -10 -111v-41q30 2 36 2zM132 638l-10 -17l-35 19l9 17q11 23 20 35q2 8 12 21q1 4 5 12.5t5 11.5l5 18l38 -13l-6 -19q-2 -5 -13 -28l-12 -23q-7 -10 -18 -34z" />
<glyph unicode="&#xea;" horiz-adv-x="257" d="M113 -17h-8q-16 0 -41 10q-54 26 -61 96q-5 51 -3 178q0 8 0.5 24t0.5 24q0 27 -1 40q0 84 13 125q15 41 43 61q26 18 69 9l2 -1q33 -9 45 -25q10 -13 19 -34q9 -29 11 -61q0 -5 2 -19q3 -12 3 -23q1 -12 1 -38q0 -25 -2 -57v-17l-19 -1q-25 -2 -76 1q-32 3 -70 0v-9 q-4 -106 2 -173q4 -46 38 -64q17 -7 25 -7l4 2q22 2 33 7q10 8 14 28l3 20l39 -6l-2 -19q-6 -39 -32 -55q-16 -11 -50 -15zM77 317q17 0 37 -2q23 -3 54 -2v15v14l1 5q-1 15 -1 37l-3 20l-4 22q-2 34 -8 50q-1 7 -13 25q-3 4 -22 10h-3q-22 6 -35 -2q-21 -14 -29 -42 q-14 -39 -10 -111v-41q30 2 36 2zM110 705l-82 -82l-28 28l13 13q18 19 39.5 40t32.5 32l11 11h27q2 -1 21 -20t26 -27q5 -5 12.5 -14t12.5 -16t6 -7l11 -16l-31 -24l-12 15q0 4 -29 36q-4 5 -30 31z" />
<glyph unicode="&#xeb;" horiz-adv-x="257" d="M113 -17h-8q-16 0 -41 10q-54 26 -61 96q-5 51 -3 178q0 8 0.5 24t0.5 24q0 27 -1 40q0 84 13 125q15 41 43 61q26 18 69 9l2 -1q33 -9 45 -25q10 -13 19 -34q9 -29 11 -61q0 -5 2 -19q3 -12 3 -23q1 -12 1 -38q0 -25 -2 -57v-17l-19 -1q-25 -2 -76 1q-32 3 -70 0v-9 q-4 -106 2 -173q4 -46 38 -64q17 -7 25 -7l4 2q22 2 33 7q10 8 14 28l3 20l39 -6l-2 -19q-6 -39 -32 -55q-16 -11 -50 -15zM77 317q17 0 37 -2q23 -3 54 -2v15v14l1 5q-1 15 -1 37l-3 20l-4 22q-2 34 -8 50q-1 7 -13 25q-3 4 -22 10h-3q-22 6 -35 -2q-21 -14 -29 -42 q-14 -39 -10 -111v-41q30 2 36 2zM191 649l-19 -2h-27l-18 2l-1 18v20l1 19h46l17 -1l1 -18v-38zM73 667v-20h-46l-17 2l-1 18v38l18 1h28l18 -1v-18v-20z" />
<glyph unicode="&#xec;" horiz-adv-x="185" d="M38 -9l-21 -1l-3 39l20 1q5 0 13 0.5t11 0.5q-2 105 2 217q4 127 -4 262q-6 0 -9 -1h-38v39h20q2 0 7.5 0.5t9.5 0.5h31l17 -1l2 -19q6 -107 4 -283q-4 -111 -3 -215h39v-40h-47q-23 1 -51 0zM92 636l-37 -15l-8 19q-17 44 -41 77l-10 17l33 22l10 -16q12 -17 23 -38.5 t16.5 -34t5.5 -13.5z" />
<glyph unicode="&#xed;" horiz-adv-x="176" d="M29 -9l-21 -1l-3 39l20 1q5 0 12.5 0.5t10.5 0.5q-1 138 3 217q2 153 -4 262q-6 0 -9 -1h-38v39h20q2 0 7.5 0.5t9.5 0.5h31l17 -1l2 -19q7 -134 3 -283q-3 -147 -2 -215h39v-40h-47q-23 1 -51 0zM86 638l-10 -17l-35 19l9 17q11 23 20 35q2 8 12 21q1 4 5 12.5t5 11.5 l5 18l38 -13l-6 -19q-2 -5 -13 -28l-12 -23q-7 -10 -18 -34z" />
<glyph unicode="&#xee;" horiz-adv-x="220" d="M73 -9l-21 -1l-2 39l19 1q5 0 13 0.5t11 0.5q-1 138 3 217q2 139 -4 262q-7 0 -9 -1h-38v39h19q2 0 8 0.5t9 0.5h32l17 -1l1 -19q6 -107 4 -283q-3 -183 -3 -215h40v-40h-47q-24 1 -52 0zM106 705l-82 -82l-28 28l13 13q18 19 39.5 40t32.5 32l11 11h27q2 -1 21 -20 t26 -27q5 -5 12.5 -14t12.5 -16t6 -7l11 -16l-31 -24l-12 15q0 4 -29 36q-4 5 -30 31z" />
<glyph unicode="&#xef;" horiz-adv-x="214" d="M67 -9l-21 -1l-3 39l20 1q5 0 13 0.5t11 0.5q-2 105 2 217q2 153 -4 262q-6 0 -9 -1h-38v39h20q2 0 7.5 0.5t9.5 0.5h31l17 -1l2 -19q7 -134 3 -283q-3 -147 -2 -215h39v-40h-47q-23 1 -51 0zM181 649l-19 -2h-27l-18 2l-1 18v20l1 19h46l17 -1l1 -18v-38zM63 667v-20 h-46l-17 2l-1 18v38l18 1h28l18 -1v-18v-20z" />
<glyph unicode="&#xf0;" horiz-adv-x="277" d="M60 640l-19 -6l-11 38l20 6l16 4q1 0 4 1t5 1q-23 19 -63 34l-19 7l15 36l18 -6q52 -18 96 -59q34 8 67 8h19v-41h-19q-13 0 -37 -2q22 -30 42 -78q15 -39 26 -164v-1l3 -33q1 -30 1 -86v-116q0 -47 -12 -93l-2 -21q-7 -50 -34 -68q-9 -6 -49 -14h-2q-2 0 -4.5 -0.5 t-3.5 -0.5q-19 0 -41 11q-55 26 -62 96q-16 179 -2 334q8 82 56 118q18 12 42 12q14 0 26 -4h3q1 0 10.5 -3t14.5 -6q-1 10 -7 26q-19 48 -48 81l-33 -7zM110 516q-13 0 -18 -4q-21 -15 -29.5 -34.5t-11.5 -54.5q-13 -145 3 -326q4 -47 39 -64q16 -7 24 -7h5q30 7 33 9 q12 8 15 38q0 7 4 27q9 35 9 83v116q0 75 -1 84q-4 84 -30 120q-4 7 -22 11l-3 1q-6 1 -17 1z" />
<glyph unicode="&#xf1;" horiz-adv-x="354" d="M28 -10l-20 -2l-3 40l20 2h25v32q2 45 -2 74q-2 20 0 75q0 6 1 18.5t1 19.5v64q0 133 -3 196h-47v39h37q15 2 31 0l17 -1l2 -18v-7q24 24 51 28q38 8 65 -7q32 -21 50 -63q18 -44 14 -125v-40q0 -120 -1 -176q0 -17 -0.5 -54t-0.5 -55q2 0 9.5 0.5t11.5 0.5h19v-40h-19 q-28 0 -40 -1q-4 0 -18 -1t-24 -1h-19v41h40q0 75 2 110v53.5v65.5v57q0 28 1 41q2 76 -12 109q-9 24 -34 44q-12 7 -37 2q-17 -3 -31 -20q-18 -19 -22 -40l-3 -9v-41.5v-47.5v-40v-64q0 -7 -0.5 -21t-0.5 -20q-2 -50 0 -66q2 -14 2 -82q-1 -10 -1 -30h38v-39h-47 q-41 0 -52 -1zM192 634q-18 0 -37 11q-12 6 -25 16q-36 25 -47 14q-10 -7 -12 -18l-3 -20l-39 8l3 19q3 25 23 41q28 21 57 11q8 -2 42 -24l18 -12q17 -7 27 -4q11 5 13 21l3 20l39 -5l-2 -20q-5 -41 -38 -52q-14 -6 -22 -6z" />
<glyph unicode="&#xf2;" horiz-adv-x="261" d="M114 -17q-14 0 -27 3l-3 1q-31 6 -45 25q-32 42 -38 143q-1 14 -1 86v114q0 49 10 95q3 8 3 21q7 48 34 66q16 11 49 15l4 1q24 2 48 -10q53 -26 60 -96q18 -186 3 -336q-8 -80 -56 -116q-17 -12 -41 -12zM107 514h-2l-3 -2q-25 -3 -33 -7q-14 -10 -15 -40q0 -2 -2 -11.5 t-4 -14.5q-9 -41 -9 -84v-114q0 -56 2 -85q4 -86 30 -121q5 -5 22 -10h4q15 -3 17 -3q11 0 17 6q35 23 41 87q14 153 -3 328q-6 48 -38 64q-16 7 -24 7zM131 636l-37 -15l-8 19q-17 44 -41 77l-10 17l33 22l10 -16q12 -17 23 -38.5t16.5 -34t5.5 -13.5z" />
<glyph unicode="&#xf3;" horiz-adv-x="261" d="M114 -17q-14 0 -27 3l-3 1q-31 6 -45 25q-32 42 -38 143q-1 14 -1 86v114q0 49 10 95q3 8 3 21q7 48 34 66q16 11 49 15l4 1q24 2 48 -10q53 -26 60 -96q18 -186 3 -336q-8 -80 -56 -116q-17 -12 -41 -12zM107 514h-2l-3 -2q-25 -3 -33 -7q-14 -10 -15 -40q0 -2 -2 -11.5 t-4 -14.5q-9 -41 -9 -84v-114q0 -56 2 -85q4 -86 30 -121q5 -5 22 -10h4q15 -3 17 -3q11 0 17 6q35 23 41 87q14 153 -3 328q-6 48 -38 64q-16 7 -24 7zM128 638l-10 -17l-35 19l9 17q11 23 20 35q2 8 12 21q1 4 5 12.5t5 11.5l5 18l38 -13l-6 -19q-2 -5 -13 -28l-12 -23 q-7 -10 -18 -34z" />
<glyph unicode="&#xf4;" horiz-adv-x="261" d="M114 -17q-14 0 -27 3l-3 1q-31 6 -45 25q-32 42 -38 143q-1 14 -1 86v114q0 49 10 95q3 8 3 21q7 48 34 66q16 11 49 15l4 1q24 2 48 -10q53 -26 60 -96q18 -186 3 -336q-8 -80 -56 -116q-17 -12 -41 -12zM107 514h-2l-3 -2q-25 -3 -33 -7q-14 -10 -15 -40q0 -2 -2 -11.5 t-4 -14.5q-9 -41 -9 -84v-114q0 -56 2 -85q4 -86 30 -121q5 -5 22 -10h4q15 -3 17 -3q11 0 17 6q35 23 41 87q14 153 -3 328q-6 48 -38 64q-16 7 -24 7zM111 705l-82 -82l-28 28l13 13q18 19 39.5 40t32.5 32l11 11h27q2 -1 21 -20t26 -27q5 -5 12.5 -14t12.5 -16t6 -7 l11 -16l-31 -24l-12 15q0 4 -29 36q-4 5 -30 31z" />
<glyph unicode="&#xf5;" horiz-adv-x="271" d="M124 -17q-14 0 -27 3l-3 1q-31 6 -45 25q-32 42 -38 143q-1 14 -1 86v114q0 49 10 95q3 8 3 21q7 48 34 66q16 11 49 15l4 1q24 2 48 -10q53 -26 60 -96q18 -186 3 -336q-8 -80 -56 -116q-17 -12 -41 -12zM117 514h-2l-3 -2q-25 -3 -33 -7q-14 -10 -15 -40q0 -2 -2 -11.5 t-4 -14.5q-9 -41 -9 -84v-114q0 -56 2 -85q4 -86 30 -121q5 -5 22 -10h4q15 -3 17 -3q11 0 17 6q35 23 41 87q14 153 -3 328q-6 48 -38 64q-16 7 -24 7zM162 634q-18 0 -37 11q-12 6 -25 16q-36 25 -47 14q-10 -7 -12 -18l-3 -20l-39 8l3 19q3 25 23 41q28 21 57 11 q8 -2 42 -24l18 -12q17 -7 27 -4q11 5 13 21l3 20l39 -5l-2 -20q-5 -41 -38 -52q-14 -6 -22 -6z" />
<glyph unicode="&#xf6;" horiz-adv-x="261" d="M114 -17q-14 0 -27 3l-3 1q-31 6 -45 25q-32 42 -38 143q-1 14 -1 86v114q0 49 10 95q3 8 3 21q7 48 34 66q16 11 49 15l4 1q24 2 48 -10q53 -26 60 -96q18 -186 3 -336q-8 -80 -56 -116q-17 -12 -41 -12zM107 514h-2l-3 -2q-25 -3 -33 -7q-14 -10 -15 -40q0 -2 -2 -11.5 t-4 -14.5q-9 -41 -9 -84v-114q0 -56 2 -85q4 -86 30 -121q5 -5 22 -10h4q15 -3 17 -3q11 0 17 6q35 23 41 87q14 153 -3 328q-6 48 -38 64q-16 7 -24 7zM196 649l-19 -2h-27l-18 2l-1 18v20l1 19h46l17 -1l1 -18v-38zM78 667v-20h-46l-17 2l-1 18v38l18 1h28l18 -1v-18v-20z " />
<glyph unicode="&#xf7;" horiz-adv-x="330" d="M168 358q-6 0 -17.5 0.5t-18.5 0.5q-32 3 -101 3h-31v40h31q70 0 105 -2q16 -2 70 -2q14 2 43 2h20v-40h-20q-7 0 -21.5 -0.5t-20.5 -0.5q-7 0 -20 -0.5t-19 -0.5zM163 246l-19 -1h-38l-1 20v26l1 18l17 2h21l20 -2v-25q0 -15 -1 -19v-19zM163 451l-19 -1h-39v45l1 19 l17 1h20l20 -1v-19q2 -12 0 -27v-17z" />
<glyph unicode="&#xf8;" horiz-adv-x="349" d="M45 1l-10 -17l-35 19l9 17q35 67 38 84l5 14q-2 24 -2 37q-4 35 -2 86v114q0 52 11 93q3 21 3 23q5 48 34 66q14 10 48 15l4 1q24 2 49 -10q34 -18 51 -59q13 24 21 47l6 19l38 -13l-6 -18q-9 -26 -47 -101q13 -168 0 -307q-4 -39 -15.5 -67t-41.5 -49q-18 -12 -40 -12 q-19 0 -28 3l-3 1q-32 7 -44 25q-11 12 -20 36zM119 35q6 -5 23 -10h2q2 0 9 -1.5t10 -1.5q11 0 17 6q34 23 40 87q10 107 4 236l-73 -132l-10 -18t-9 -16t-5 -9q-24 -40 -34 -65q7 -49 26 -76zM156 514h-3l-2 -2q-24 -2 -34 -7q-12 -9 -15 -40q-2 -18 -5 -26q-9 -35 -9 -84 v-168l4 8l23 44q63 110 104 188q0 3 -0.5 8.5t-0.5 7.5q-6 48 -40 63q-14 8 -22 8z" />
<glyph unicode="&#xf9;" horiz-adv-x="349" d="M142 -17q-20 0 -40 12q-34 20 -50 63q-16 38 -14 124v41v183q1 33 1 103h-4q-3 0 -8 -1t-7 -1h-20v41h33h8.5h10.5h10l18 -3v-17q0 -20 -0.5 -61.5t-0.5 -60.5q-2 -60 -2 -183q1 -7 1 -14t-0.5 -15.5t-0.5 -12.5q-2 -74 12 -109q13 -31 34 -43q11 -9 36 -3q20 5 32 20 q19 20 23 39l1 9q0 87 1 130v64q0 28 2 41q2 46 0 67q-5 32 -3 89v22h-37v41h59l17 -3v-60q0 -66 3 -84q2 -20 0 -75q0 -5 -0.5 -18t-0.5 -20v-65q0 -161 2 -192h47v-39h-21q-10 0 -15 -1h-17q-11 0 -15 1l-17 1l-1 17q0 1 -0.5 2.5t-0.5 3.5q-19 -22 -50 -29q-3 0 -12 -2 t-14 -2zM155 636l-37 -15l-8 19q-17 44 -41 77l-10 17l33 22l10 -16q12 -17 23 -38.5t16.5 -34t5.5 -13.5z" />
<glyph unicode="&#xfa;" horiz-adv-x="349" d="M142 -17q-20 0 -40 12q-34 20 -50 63q-16 38 -14 124v41v183q1 33 1 103h-4q-3 0 -8 -1t-7 -1h-20v41h33h8.5h10.5h10l18 -3v-17q0 -20 -0.5 -61.5t-0.5 -60.5q-2 -60 -2 -183q1 -7 1 -14t-0.5 -15.5t-0.5 -12.5q-2 -74 12 -109q13 -31 34 -43q11 -9 36 -3q20 5 32 20 q19 20 23 39l1 9q0 87 1 130v64q0 28 2 41q2 46 0 67q-5 32 -3 89v22h-37v41h59l17 -3v-60q0 -66 3 -84q2 -20 0 -75q0 -5 -0.5 -18t-0.5 -20v-65q0 -161 2 -192h47v-39h-21q-10 0 -15 -1h-17q-11 0 -15 1l-17 1l-1 17q0 1 -0.5 2.5t-0.5 3.5q-19 -22 -50 -29q-3 0 -12 -2 t-14 -2zM160 638l-10 -17l-35 19l9 17q11 23 20 35q2 8 12 21q1 4 5 12.5t5 11.5l5 18l38 -13l-6 -19q-2 -5 -13 -28l-12 -23q-7 -10 -18 -34z" />
<glyph unicode="&#xfb;" horiz-adv-x="349" d="M142 -17q-20 0 -40 12q-34 20 -50 63q-16 38 -14 124v41v183q1 33 1 103h-4q-3 0 -8 -1t-7 -1h-20v41h33h8.5h10.5h10l18 -3v-17q0 -20 -0.5 -61.5t-0.5 -60.5q-2 -60 -2 -183q1 -7 1 -14t-0.5 -15.5t-0.5 -12.5q-2 -74 12 -109q13 -31 34 -43q11 -9 36 -3q20 5 32 20 q19 20 23 39l1 9q0 87 1 130v64q0 28 2 41q2 46 0 67q-5 32 -3 89v22h-37v41h59l17 -3v-60q0 -66 3 -84q2 -20 0 -75q0 -5 -0.5 -18t-0.5 -20v-65q0 -161 2 -192h47v-39h-21q-10 0 -15 -1h-17q-11 0 -15 1l-17 1l-1 17q0 1 -0.5 2.5t-0.5 3.5q-19 -22 -50 -29q-3 0 -12 -2 t-14 -2zM138 705l-82 -82l-28 28l13 13q18 19 39.5 40t32.5 32l11 11h27q2 -1 21 -20t26 -27q5 -5 12.5 -14t12.5 -16t6 -7l11 -16l-31 -24l-12 15q0 4 -29 36q-4 5 -30 31z" />
<glyph unicode="&#xfc;" horiz-adv-x="349" d="M142 -17q-20 0 -40 12q-34 20 -50 63q-16 38 -14 124v41v183q1 33 1 103h-4q-3 0 -8 -1t-7 -1h-20v41h33h8.5h10.5h10l18 -3v-17q0 -20 -0.5 -61.5t-0.5 -60.5q-2 -60 -2 -183q1 -7 1 -14t-0.5 -15.5t-0.5 -12.5q-2 -74 12 -109q13 -31 34 -43q11 -9 36 -3q20 5 32 20 q19 20 23 39l1 9q0 87 1 130v64q0 28 2 41q2 46 0 67q-5 32 -3 89v22h-37v41h59l17 -3v-60q0 -66 3 -84q2 -20 0 -75q0 -5 -0.5 -18t-0.5 -20v-65q0 -161 2 -192h47v-39h-21q-10 0 -15 -1h-17q-11 0 -15 1l-17 1l-1 17q0 1 -0.5 2.5t-0.5 3.5q-19 -22 -50 -29q-3 0 -12 -2 t-14 -2zM227 649l-19 -2h-27l-18 2l-1 18v20l1 19h46l17 -1l1 -18v-38zM109 667v-20h-46l-17 2l-1 18v38l18 1h28l18 -1v-18v-20z" />
<glyph unicode="&#xfd;" horiz-adv-x="356" d="M39 507h-39v41h113v-41h-33q10 -39 18 -92q2 -6 3.5 -17t2.5 -13q3 -27 9 -53q11 -47 30 -147q2 -16 10 -62q5 -31 6 -34q0 3 1 5l3 15q3 14 9 44q7 34 19 104l8 42q4 24 9 51.5t11.5 61.5t9.5 52l8 43h-31v41h56q3 0 14.5 0.5t22.5 0.5h19v-40h-39q-7 -28 -10 -53 q-7 -30 -17.5 -87t-14.5 -77q-1 -8 -3 -23t-3 -19l-20 -105l-9 -44l-3 -14l-9 -39q-6 -22 -9 -41l-5 -28q-7 -39 -10 -54l-2 -9q0 -4 -3 -10l-12 -65q-4 -18 -5 -32h32v-40h-20q-8 0 -20 -0.5t-17 -0.5q-10 -1 -36 -1h-21v39h40q2 8 4.5 22.5t3.5 19.5q9 49 13 67l3 9 q0 2 0.5 5.5t0.5 4.5q6 24 9 50v6l-1 10q-6 29 -21 117l-10 60q-30 140 -31 145q-2 9 -3.5 18.5t-3 21t-2.5 17.5q-2 21 -5 30q-8 53 -20 98zM188 638l-10 -17l-35 19l9 17q11 23 20 35q2 8 12 21q1 4 5 12.5t5 11.5l5 18l38 -13l-6 -19q-2 -5 -13 -28l-12 -23 q-7 -10 -18 -34z" />
<glyph unicode="&#xfe;" horiz-adv-x="347" d="M34 -231l-20 -2l-4 39l20 3q8 1 21 1q0 19 0.5 43.5t0.5 41.5v18v4q-4 130 -4 189q0 42 6 118l2 39q1 19 -1 83q-1 20 -1 59v325h-54v41h20q3 0 8 -1t7 -1q19 0 38 2l21 1v-22q-1 -27 -1 -218q3 4 8 5q23 13 50 16h2q18 3 33 -3.5t20 -12t17 -19.5l6 -9q28 -36 31 -97 q1 -60 -2 -132q-1 -30 -1 -89q0 -86 -16 -137q-10 -33 -32.5 -52t-52.5 -19q-9 0 -24 3l-2 1q-30 9 -41 20q0 -43 3 -88v-6q0 -77 -2 -104h16h20v-40h-43q-24 3 -49 0zM102 51q14 -14 15 -16q5 -5 22 -10h4q45 -10 60 41q13 45 13 125q0 1 3 91q2 86 1 128q-1 46 -22 74 l-8 10q-11 14 -16 17.5t-15 2.5h-3q-55 -8 -60 -51l-3 -20v-38q0 -10 0.5 -28.5t0.5 -27.5q4 -57 2 -87q0 -6 -0.5 -13t-1.5 -15t-1 -13q-3 -38 -5 -115v-38q0 -9 14 -17z" />
<glyph unicode="&#xff;" horiz-adv-x="356" d="M39 507h-39v41h113v-41h-33q10 -39 18 -92q2 -6 3.5 -17t2.5 -13q3 -27 9 -53q11 -47 30 -147q2 -16 10 -62q5 -31 6 -34q0 3 1 5l3 15q3 14 9 44q7 34 19 104l8 42q4 24 9 51.5t11.5 61.5t9.5 52l8 43h-31v41h56q3 0 14.5 0.5t22.5 0.5h19v-40h-39q-7 -28 -10 -53 q-7 -30 -17.5 -87t-14.5 -77q-1 -8 -3 -23t-3 -19l-20 -105l-9 -44l-3 -14l-9 -39q-6 -22 -9 -41l-5 -28q-7 -39 -10 -54l-2 -9q0 -4 -3 -10l-12 -65q-4 -18 -5 -32h32v-40h-20q-8 0 -20 -0.5t-17 -0.5q-10 -1 -36 -1h-21v39h40q2 8 4.5 22.5t3.5 19.5q9 49 13 67l3 9 q0 2 0.5 5.5t0.5 4.5q6 24 9 50v6l-1 10q-6 29 -21 117l-10 60q-30 140 -31 145q-2 9 -3.5 18.5t-3 21t-2.5 17.5q-2 21 -5 30q-8 53 -20 98zM254 649l-19 -2h-27l-18 2l-1 18v20l1 19h46l17 -1l1 -18v-38zM136 667v-20h-46l-17 2l-1 18v38l18 1h28l18 -1v-18v-20z" />
<glyph unicode="&#x152;" horiz-adv-x="588" d="M497 368v-21h-41v30q-18 -1 -41 2h-44q-2 0 -41 -3q-4 -1 -9 -1q1 -174 8 -345q30 0 62 3q15 0 46 0.5t48 0.5v51h39v-93l-29 1q-23 1 -103 -1q-14 0 -43 -0.5t-44 -0.5h-35q-14 -1 -46 -1q-80 0 -118 20q-37 21 -54 57.5t-27 88.5q-1 5 -5 20q-2 6 -4 19.5t-2 16.5 l-4 27q-14 75 -6 222q3 39 3 41q0 9 1 13q2 82 25 134l5 10q9 21 14.5 31t18.5 24.5t31 22.5q39 18 126 18h90q31 0 46 1h38q10 0 29 -0.5t28 -0.5q10 -1 30 -1l20 -2v-19q0 -16 1 -27v-44h-39v20q0 14 -2 23v9h-13q-26 3 -54 3q-6 0 -18 -0.5t-18 -0.5h-53q0 -1 3 -46 q2 -34 2 -50q0 -22 1 -69t1 -69q0 -11 0.5 -33t0.5 -34h5q23 3 44 3h47q13 -1 38 -1v36h39v-19q0 -25 1 -32q0 -1 1 -11.5t1 -22.5zM282 379q0 17 -1 51.5t-1 51.5q-1 45 -1 138q0 14 -2 46q-4 21 -4 50h-45q-76 0 -109 -15q-23 -11 -41 -51l-3 -6q-2 -2 -4 -7l-2 -5 q-20 -45 -22 -118q0 -9 -1 -15q0 -5 -0.5 -19t-0.5 -20q-11 -139 5 -215l4 -27q2 -23 5 -33q1 -11 5 -21q18 -96 62 -119q16 -9 41.5 -12.5t50 -3t51.5 0.5h21q-6 108 -8 349z" />
<glyph unicode="&#x153;" horiz-adv-x="436" d="M114 -17q-16 0 -27 3l-3 1q-32 6 -45 25q-32 42 -38 143q-3 37 -1 86v114q0 50 10 93q3 10 3 23q7 50 34 66q16 11 49 15l4 1q22 2 48 -10q32 -18 49 -53q13 32 39 51q24 18 68 9l3 -1q32 -9 44 -25q13 -17 19 -35q8 -24 10 -60l3 -19l4 -23q0 -25 1 -38q0 -2 -1.5 -25 t-1.5 -32l-1 -17l-17 -1q-40 -3 -77 1q-32 3 -71 0v-9q0 -6 -0.5 -18t-0.5 -17v-28q0 -75 3 -110q6 -47 39 -64q18 -7 26 -7h2q4 1 11.5 2.5t13 3t8.5 3.5q11 6 15 28l3 20l40 -6l-4 -19q-6 -40 -32 -57q-9 -6 -48 -14h-12q-18 0 -41 10q-30 14 -47 49q-14 -29 -40 -47 q-17 -12 -41 -12zM180 267v48v39l-2 10q-2 29 -5 44l-4 35q-7 48 -39 63q-16 8 -25 8l-3 -2q-25 -2 -34 -7q-13 -10 -14 -40q0 -2 -2 -11.5t-4 -14.5q-9 -41 -9 -84v-114q0 -56 2 -85q4 -86 30 -121q5 -5 22 -10h3q25 -7 35 3q35 23 41 87q6 96 6 97q0 10 1 28t1 27z M257 317q13 0 37 -2q23 -3 52 -2q1 16 1 34q0 27 -1 37q0 10 -3 20q-2 12 -2 21q-4 39 -9 51q-5 14 -12 23q-5 7 -22 11l-4 1q-24 6 -34 -2q-20 -13 -31 -44q-10 -32 -10 -109q1 -13 1 -41q30 2 37 2z" />
<glyph unicode="&#x178;" horiz-adv-x="412" d="M128 754v-41h-41q1 -1 3.5 -11t5.5 -19q1 -3 5 -17t6 -22q14 -38 16 -50l21 -70l42 -136l33 107q7 21 13 33q9 25 10 29q4 12 10 34.5t9 31.5q7 35 16 61l7 30h-23l-20 2l1 39h21q25 -1 50 -1q4 0 15.5 0.5t20.5 0.5h21v-41h-44l-11 -42l-16 -60q-5 -22 -19 -68l-11 -32 q-5 -8 -12 -28l-51 -169q0 -22 0.5 -64.5t0.5 -63.5q3 -129 3 -133v-9q-2 -6 -2 -14h41v-39h-20q-10 0 -23.5 -0.5t-19.5 -0.5q-12 -1 -43 -1h-21v39h47q-1 0 -1 9l1 9q0 2 0.5 4t0.5 3q0 47 -2 133q-2 41 -2 128l-60 197l-21 71q-2 10 -16 49l-11 40l-10 28l-3 16h-23 l-19 -2l-3 40l20 1h56q11 -1 33 -1h19zM282 846l-19 -2h-27l-18 2l-1 18v20l1 19h46l17 -1l1 -18v-38zM164 864v-20h-46l-17 2l-1 18v38l18 1h28l18 -1v-18q1 -1 1 -4.5v-6.5t-1 -6v-3z" />
<glyph unicode="&#x2c6;" horiz-adv-x="266" d="M110 705l-82 -82l-28 28l13 13q18 19 39.5 40t32.5 32l11 11h27q2 -1 21 -20t26 -27q5 -5 12.5 -14t12.5 -16t6 -7l11 -16l-31 -24l-12 15q0 4 -29 36q-4 5 -30 31z" />
<glyph unicode="&#x2dc;" horiz-adv-x="278" d="M163 634q-18 0 -37 11q-12 6 -25 16q-36 25 -47 14q-10 -7 -12 -18l-3 -20l-39 8l3 19q3 25 23 41q28 21 57 11q8 -2 42 -24l18 -12q17 -7 27 -4q11 5 13 21l3 20l39 -5l-2 -20q-5 -41 -38 -52q-14 -6 -22 -6z" />
<glyph unicode="&#x2000;" horiz-adv-x="486" />
<glyph unicode="&#x2001;" horiz-adv-x="973" />
<glyph unicode="&#x2002;" horiz-adv-x="486" />
<glyph unicode="&#x2003;" horiz-adv-x="973" />
<glyph unicode="&#x2004;" horiz-adv-x="324" />
<glyph unicode="&#x2005;" horiz-adv-x="243" />
<glyph unicode="&#x2006;" horiz-adv-x="162" />
<glyph unicode="&#x2007;" horiz-adv-x="162" />
<glyph unicode="&#x2008;" horiz-adv-x="121" />
<glyph unicode="&#x2009;" horiz-adv-x="194" />
<glyph unicode="&#x200a;" horiz-adv-x="54" />
<glyph unicode="&#x2010;" horiz-adv-x="291" d="M136 359h-59q-18 1 -57 1h-20v40h79q9 0 28 -1t29 -1q6 0 18 1t19 1q6 0 18 0.5t19 0.5h19v-41h-55q-13 -1 -38 -1z" />
<glyph unicode="&#x2011;" horiz-adv-x="291" d="M136 359h-59q-18 1 -57 1h-20v40h79q9 0 28 -1t29 -1q6 0 18 1t19 1q6 0 18 0.5t19 0.5h19v-41h-55q-13 -1 -38 -1z" />
<glyph unicode="&#x2012;" horiz-adv-x="291" d="M136 359h-59q-18 1 -57 1h-20v40h79q9 0 28 -1t29 -1q6 0 18 1t19 1q6 0 18 0.5t19 0.5h19v-41h-55q-13 -1 -38 -1z" />
<glyph unicode="&#x2013;" horiz-adv-x="363" d="M24 356l-20 -1l-4 39l20 2q57 6 184 4q41 -3 78 -3h19v-39h-19q-13 0 -39.5 0.5t-39.5 0.5q-96 5 -179 -3z" />
<glyph unicode="&#x2014;" horiz-adv-x="442" d="M24 360l-20 -1l-4 39l21 2q18 1 106 1q20 -1 58 -1h84q30 1 91 1h20v-39h-20q-15 0 -45.5 -1t-44.5 -1t-42 -0.5t-43 -0.5q-10 0 -30 0.5t-29 0.5q-63 3 -102 0z" />
<glyph unicode="&#x2018;" horiz-adv-x="139" d="M5 735l5 20l38 -9l-3 -20q-6 -26 -6 -42h24v-18v-20v-18l-18 -2h-28l-17 2l-1 17v23q0 36 6 67z" />
<glyph unicode="&#x2019;" horiz-adv-x="140" d="M77 640l-5 -20l-38 9l4 20q5 22 5 42h-23v18v20v18l18 1h28l17 -1l1 -17v-24q0 -36 -7 -66z" />
<glyph unicode="&#x201a;" horiz-adv-x="155" d="M87 -60l-6 -20l-38 9l4 20q5 22 5 42h-23v18v6.5v8.5v5v18l18 1h28l17 -1l1 -17v-23q0 -36 -6 -67z" />
<glyph unicode="&#x201c;" horiz-adv-x="266" d="M122 735l5 20l38 -9l-4 -20q-5 -32 -5 -42h24v-18v-6.5v-8.5v-5v-18l-19 -2h-27l-17 2l-2 17v23q0 31 7 67zM5 735l5 20l38 -9l-3 -20q-6 -26 -6 -42h24v-18v-20v-18l-18 -2h-28l-17 2l-1 17v23q0 36 6 67z" />
<glyph unicode="&#x201d;" horiz-adv-x="261" d="M83 640l-6 -20l-38 9l4 20q5 22 5 42h-23v18v20v18l18 1h28l17 -1l1 -17v-24q0 -35 -6 -66zM198 640l-5 -20l-38 9l4 20q5 33 5 42h-24v18v6.5v8.5v5v18l19 1h27l17 -1l1 -17v-24q0 -35 -6 -66z" />
<glyph unicode="&#x201e;" horiz-adv-x="277" d="M208 -60l-5 -20l-38 9l4 20q5 22 5 42h-23v18v20v18l18 1h28l17 -1l1 -17v-23q0 -37 -7 -67zM92 -60l-5 -20l-39 9l4 20q6 26 6 42h-24v18v6.5v8.5v5v18l18 1h28l17 -1l1 -17v-23q0 -36 -6 -67z" />
<glyph unicode="&#x2022;" horiz-adv-x="172" d="M110 326h-60q-24 0 -32 2h-17l-1 18v67v18l18 2q2 0 20 0.5t30 0.5h24l17 -1l1 -19v-88z" />
<glyph unicode="&#x2026;" horiz-adv-x="444" d="M383 30v-39h-65v57h63zM98 30v-39h-64v57h63zM177 9v39h64v-57h-63z" />
<glyph unicode="&#x202f;" horiz-adv-x="194" />
<glyph unicode="&#x2039;" horiz-adv-x="210" d="M145 298l-27 -29l-14 14q-14 14 -44 48t-31 36l-1 26l8 10q8 10 19 23t17 20q23 26 32 32l14 13l27 -28l-14 -13q-2 -2 -14 -14.5t-15 -16.5q-13 -13 -33 -39q10 -9 33.5 -35.5t29.5 -33.5z" />
<glyph unicode="&#x203a;" horiz-adv-x="229" d="M43 283l-14 -14l-29 27l14 15q28 28 37 38l26 31q-19 27 -63 70l-14 13l28 28l14 -13q19 -19 38 -40t28.5 -32.5t10.5 -13.5l-1 -24q-5 -9 -38 -46q-4 -4 -13.5 -14t-16.5 -18z" />
<glyph unicode="&#x205f;" horiz-adv-x="243" />
<glyph unicode="&#x20ac;" horiz-adv-x="391" d="M22 296l-19 -1l-3 41l20 1l36 2q0 42 2 65h-7.5t-8 0.5t-10 1t-12.5 0.5l-20 2l3 39l19 -1q29 -3 37 -3q0 8 -0.5 26t-0.5 28q0 7 -1 23t-1 24q-1 55 20 117q18 53 60 82q34 25 89 11h4q43 -13 59 -32v32h40v-96q-2 -5 -2 -14l-38 -8q-17 43 -31 61q-8 11 -37 17l-4 2 q-40 6 -57 -6q-30 -18 -45 -63q-18 -48 -18 -102q0 -8 0.5 -23.5t0.5 -22.5q0 -9 1.5 -28t1.5 -28q16 0 38 3q10 0 25.5 0.5t19.5 0.5h21v-39h-21q-5 0 -20.5 -1.5t-22.5 -1.5q-9 0 -23.5 -0.5t-19.5 -0.5v-21.5v-24v-19.5q25 0 41 2q18 1 45 1h21v-39h-21q-3 0 -18 -1 t-25 -1q-30 -2 -42 -2q0 -5 1 -14t1 -12l2 -55v-38v-43t5.5 -39.5t17.5 -33.5q14 -21 36 -31q27 -13 42 -11q1 2 5 2q40 5 50 13q19 9 25 44l3 20l39 -7l-3 -19q-8 -51 -42 -72q-18 -11 -66 -19l-6 -1h-9q-22 0 -55 14q-23 10 -50 42q-16 19 -23.5 47.5t-8 43.5t-0.5 51 q1 12 1 35q0 2 -1.5 23t-1.5 32l-2 28q-3 0 -15 -1t-21 -2z" />
<glyph unicode="&#x2122;" horiz-adv-x="598" d="M461 351h-19v41h27l-4 244q-2 -7 -6 -19l-6 -15l-9 -24q-2 -4 -4.5 -10.5t-3.5 -9.5l-3 -8h-44q-6 14 -14 35q-1 3 -5 11q-7 23 -14 37l-3 8v-63q0 -4 -1 -13.5t-1 -14.5q0 -2 -0.5 -7t-0.5 -8t0.5 -9.5t0.5 -10.5q0 -2 1 -8.5t1 -9.5q0 -20 0.5 -54.5t0.5 -49.5h27v-40 h-47q-2 0 -11 -1t-18 -1h-19v41h27q0 67 -1 105v15q-1 8 -1 24q0 12 1 17v105q1 18 1 55h-27v41l21 -2h43l4 -12l4 -10q4 -9 8.5 -19t4.5 -11l10 -25v-1l7 -13q1 -6 5 -11l15 -39l2 -8l7 13l5 16q2 3 4 9l3 9q3 13 5 18l4 8l4 13q0 2 6 19l3 6q2 5 5 14l4 12l5 12h64v-39 h-27q2 -53 4 -177t3 -143h28v-40h-47q-3 0 -12.5 -1t-16.5 -1zM232 679l-41 1l2 20v14h-53l-2 -78v-134v-108h27v-39h-38q-1 0 -4 -0.5t-5 -0.5h-49v39h29v15q0 63 -1 93q-1 46 1 136q2 25 2 77h-59q0 -2 -1 -6t-1 -6v-20l-39 1v21l1 31l2 19h18q48 1 58 1h85l48 -1h20v-75z " />
<glyph unicode="&#x25fc;" horiz-adv-x="550" d="M0 550h550v-550h-550v550z" />
</font>
</defs>
</svg>
